%FSLAX45Y45*%
G04 Gerber Fmt 4.5, Leading zero omitted, Abs format (unit mm)*
G04 Created by KiCad (PCBNEW 5.1.10-88a1d61d58~88~ubuntu20.10.1) date 2021-06-17 10:47:51*
%MOMM*%
%LPD*%
G01*
G04 APERTURE LIST*
%TA.AperFunction,Profile*%
%ADD10C,0.127000*%
%TD*%
%ADD11C,0.200000*%
%ADD12C,0.300000*%
G04 APERTURE END LIST*
D10*
X22860000Y-16256000D02*
X5080000Y-16256000D01*
X24130000Y-14986000D02*
X22860000Y-16256000D01*
X24130000Y-2794000D02*
X24130000Y-14986000D01*
X22860000Y-1524000D02*
X24130000Y-2794000D01*
X5080000Y-1524000D02*
X22860000Y-1524000D01*
X3810000Y-2794000D02*
X5080000Y-1524000D01*
X3810000Y-14986000D02*
X3810000Y-2794000D01*
X5080000Y-16256000D02*
X3810000Y-14986000D01*
D11*
X4499870Y-6924600D02*
X4540510Y-6965240D01*
X4540510Y-6924600D02*
X4499870Y-6965240D01*
X8181740Y-2245920D02*
X8222380Y-2286560D01*
X8222380Y-2245920D02*
X8181740Y-2286560D01*
X11981180Y-5418740D02*
X12021820Y-5459380D01*
X12021820Y-5418740D02*
X11981180Y-5459380D01*
X12128410Y-11280490D02*
X12169050Y-11321130D01*
X12169050Y-11280490D02*
X12128410Y-11321130D01*
X12815770Y-13071520D02*
X12856410Y-13112160D01*
X12856410Y-13071520D02*
X12815770Y-13112160D01*
X13378181Y-8869680D02*
X13418821Y-8910320D01*
X13418821Y-8869680D02*
X13378181Y-8910320D01*
X13441680Y-9441180D02*
X13482320Y-9481820D01*
X13482320Y-9441180D02*
X13441680Y-9481820D01*
X13646330Y-9314180D02*
X13686970Y-9354820D01*
X13686970Y-9314180D02*
X13646330Y-9354820D01*
X13820220Y-12990050D02*
X13860860Y-13030690D01*
X13860860Y-12990050D02*
X13820220Y-13030690D01*
X13863570Y-9772670D02*
X13904210Y-9813310D01*
X13904210Y-9772670D02*
X13863570Y-9813310D01*
X13927490Y-12963860D02*
X13968130Y-13004500D01*
X13968130Y-12963860D02*
X13927490Y-13004500D01*
X13928320Y-13090930D02*
X13968960Y-13131570D01*
X13968960Y-13090930D02*
X13928320Y-13131570D01*
X13952832Y-9568180D02*
X13993472Y-9608820D01*
X13993472Y-9568180D02*
X13952832Y-9608820D01*
X13967960Y-12887250D02*
X14008600Y-12927890D01*
X14008600Y-12887250D02*
X13967960Y-12927890D01*
X13969121Y-9695180D02*
X14009761Y-9735820D01*
X14009761Y-9695180D02*
X13969121Y-9735820D01*
X14693371Y-12600940D02*
X14734011Y-12641580D01*
X14734011Y-12600940D02*
X14693371Y-12641580D01*
X17148610Y-9870240D02*
X17189250Y-9910880D01*
X17189250Y-9870240D02*
X17148610Y-9910880D01*
X18751520Y-2242880D02*
X18792160Y-2283520D01*
X18792160Y-2242880D02*
X18751520Y-2283520D01*
X19781100Y-9758680D02*
X19821740Y-9799320D01*
X19821740Y-9758680D02*
X19781100Y-9799320D01*
X20498370Y-5666280D02*
X20539010Y-5706920D01*
X20539010Y-5666280D02*
X20498370Y-5706920D01*
X13761000Y-4826000D02*
G75*
G03*
X13761000Y-4826000I-45000J0D01*
G01*
X14015000Y-4826000D02*
G75*
G03*
X14015000Y-4826000I-45000J0D01*
G01*
X13208000Y-12712700D02*
X13208000Y-12814300D01*
X13157200Y-12763500D02*
X13258800Y-12763500D01*
X13208000Y-12966700D02*
X13208000Y-13068300D01*
X13157200Y-13017500D02*
X13258800Y-13017500D01*
X13208000Y-13220700D02*
X13208000Y-13322300D01*
X13157200Y-13271500D02*
X13258800Y-13271500D01*
X13208000Y-13474700D02*
X13208000Y-13576300D01*
X13157200Y-13525500D02*
X13258800Y-13525500D01*
X13208000Y-13728700D02*
X13208000Y-13830300D01*
X13157200Y-13779500D02*
X13258800Y-13779500D01*
X13208000Y-13982700D02*
X13208000Y-14084300D01*
X13157200Y-14033500D02*
X13258800Y-14033500D01*
X13208000Y-14236700D02*
X13208000Y-14338300D01*
X13157200Y-14287500D02*
X13258800Y-14287500D01*
X13208000Y-14490700D02*
X13208000Y-14592300D01*
X13157200Y-14541500D02*
X13258800Y-14541500D01*
X13208000Y-14744700D02*
X13208000Y-14846300D01*
X13157200Y-14795500D02*
X13258800Y-14795500D01*
X13208000Y-14998700D02*
X13208000Y-15100300D01*
X13157200Y-15049500D02*
X13258800Y-15049500D01*
X13208000Y-15252700D02*
X13208000Y-15354300D01*
X13157200Y-15303500D02*
X13258800Y-15303500D01*
X13208000Y-15506700D02*
X13208000Y-15608300D01*
X13157200Y-15557500D02*
X13258800Y-15557500D01*
X13208000Y-15760700D02*
X13208000Y-15862300D01*
X13157200Y-15811500D02*
X13258800Y-15811500D01*
X13208000Y-16014700D02*
X13208000Y-16116300D01*
X13157200Y-16065500D02*
X13258800Y-16065500D01*
X14732000Y-12712700D02*
X14732000Y-12814300D01*
X14681200Y-12763500D02*
X14782800Y-12763500D01*
X14732000Y-12966700D02*
X14732000Y-13068300D01*
X14681200Y-13017500D02*
X14782800Y-13017500D01*
X14732000Y-13220700D02*
X14732000Y-13322300D01*
X14681200Y-13271500D02*
X14782800Y-13271500D01*
X14732000Y-13474700D02*
X14732000Y-13576300D01*
X14681200Y-13525500D02*
X14782800Y-13525500D01*
X14732000Y-13728700D02*
X14732000Y-13830300D01*
X14681200Y-13779500D02*
X14782800Y-13779500D01*
X14732000Y-13982700D02*
X14732000Y-14084300D01*
X14681200Y-14033500D02*
X14782800Y-14033500D01*
X14732000Y-14236700D02*
X14732000Y-14338300D01*
X14681200Y-14287500D02*
X14782800Y-14287500D01*
X14732000Y-14490700D02*
X14732000Y-14592300D01*
X14681200Y-14541500D02*
X14782800Y-14541500D01*
X14732000Y-14744700D02*
X14732000Y-14846300D01*
X14681200Y-14795500D02*
X14782800Y-14795500D01*
X14732000Y-14998700D02*
X14732000Y-15100300D01*
X14681200Y-15049500D02*
X14782800Y-15049500D01*
X14732000Y-15252700D02*
X14732000Y-15354300D01*
X14681200Y-15303500D02*
X14782800Y-15303500D01*
X14732000Y-15506700D02*
X14732000Y-15608300D01*
X14681200Y-15557500D02*
X14782800Y-15557500D01*
X14732000Y-15760700D02*
X14732000Y-15862300D01*
X14681200Y-15811500D02*
X14782800Y-15811500D01*
X14732000Y-16014700D02*
X14732000Y-16116300D01*
X14681200Y-16065500D02*
X14782800Y-16065500D01*
X4935462Y-6474962D02*
X4935462Y-6383038D01*
X4843538Y-6383038D01*
X4843538Y-6474962D01*
X4935462Y-6474962D01*
X4935462Y-6824962D02*
X4935462Y-6733038D01*
X4843538Y-6733038D01*
X4843538Y-6824962D01*
X4935462Y-6824962D01*
X4935462Y-12189962D02*
X4935462Y-12098038D01*
X4843538Y-12098038D01*
X4843538Y-12189962D01*
X4935462Y-12189962D01*
X4935462Y-12539962D02*
X4935462Y-12448038D01*
X4843538Y-12448038D01*
X4843538Y-12539962D01*
X4935462Y-12539962D01*
X7554462Y-2712962D02*
X7554462Y-2621038D01*
X7462538Y-2621038D01*
X7462538Y-2712962D01*
X7554462Y-2712962D01*
X7904462Y-2712962D02*
X7904462Y-2621038D01*
X7812538Y-2621038D01*
X7812538Y-2712962D01*
X7904462Y-2712962D01*
X8697462Y-15158962D02*
X8697462Y-15067038D01*
X8605538Y-15067038D01*
X8605538Y-15158962D01*
X8697462Y-15158962D01*
X9047462Y-15158962D02*
X9047462Y-15067038D01*
X8955538Y-15067038D01*
X8955538Y-15158962D01*
X9047462Y-15158962D01*
X11666462Y-5331962D02*
X11666462Y-5240038D01*
X11574538Y-5240038D01*
X11574538Y-5331962D01*
X11666462Y-5331962D01*
X11666462Y-5681962D02*
X11666462Y-5590038D01*
X11574538Y-5590038D01*
X11574538Y-5681962D01*
X11666462Y-5681962D01*
X11666462Y-11046962D02*
X11666462Y-10955038D01*
X11574538Y-10955038D01*
X11574538Y-11046962D01*
X11666462Y-11046962D01*
X11666462Y-11396962D02*
X11666462Y-11305038D01*
X11574538Y-11305038D01*
X11574538Y-11396962D01*
X11666462Y-11396962D01*
X16365462Y-12189962D02*
X16365462Y-12098038D01*
X16273538Y-12098038D01*
X16273538Y-12189962D01*
X16365462Y-12189962D01*
X16365462Y-12539962D02*
X16365462Y-12448038D01*
X16273538Y-12448038D01*
X16273538Y-12539962D01*
X16365462Y-12539962D01*
X18984462Y-2712962D02*
X18984462Y-2621038D01*
X18892538Y-2621038D01*
X18892538Y-2712962D01*
X18984462Y-2712962D01*
X18984462Y-8427962D02*
X18984462Y-8336038D01*
X18892538Y-8336038D01*
X18892538Y-8427962D01*
X18984462Y-8427962D01*
X19334462Y-2712962D02*
X19334462Y-2621038D01*
X19242538Y-2621038D01*
X19242538Y-2712962D01*
X19334462Y-2712962D01*
X19334462Y-8427962D02*
X19334462Y-8336038D01*
X19242538Y-8336038D01*
X19242538Y-8427962D01*
X19334462Y-8427962D01*
X20127462Y-9443962D02*
X20127462Y-9352038D01*
X20035538Y-9352038D01*
X20035538Y-9443962D01*
X20127462Y-9443962D01*
X20127462Y-15158962D02*
X20127462Y-15067038D01*
X20035538Y-15067038D01*
X20035538Y-15158962D01*
X20127462Y-15158962D01*
X20477462Y-9443962D02*
X20477462Y-9352038D01*
X20385538Y-9352038D01*
X20385538Y-9443962D01*
X20477462Y-9443962D01*
X20477462Y-15158962D02*
X20477462Y-15067038D01*
X20385538Y-15067038D01*
X20385538Y-15158962D01*
X20477462Y-15158962D01*
X23096462Y-5331962D02*
X23096462Y-5240038D01*
X23004538Y-5240038D01*
X23004538Y-5331962D01*
X23096462Y-5331962D01*
X23096462Y-5681962D02*
X23096462Y-5590038D01*
X23004538Y-5590038D01*
X23004538Y-5681962D01*
X23096462Y-5681962D01*
X13770000Y-2659500D02*
X13855000Y-2574500D01*
X13770000Y-2489500D01*
X13685000Y-2574500D01*
X13770000Y-2659500D01*
X13770000Y-3479500D02*
X13855000Y-3394500D01*
X13770000Y-3309500D01*
X13685000Y-3394500D01*
X13770000Y-3479500D01*
X13362000Y-4218000D02*
X13562000Y-4418000D01*
X13562000Y-4218000D02*
X13362000Y-4418000D01*
X13562000Y-4318000D02*
G75*
G03*
X13562000Y-4318000I-100000J0D01*
G01*
X13362000Y-5234000D02*
X13562000Y-5434000D01*
X13562000Y-5234000D02*
X13362000Y-5434000D01*
X13562000Y-5334000D02*
G75*
G03*
X13562000Y-5334000I-100000J0D01*
G01*
X14378000Y-4218000D02*
X14578000Y-4418000D01*
X14578000Y-4218000D02*
X14378000Y-4418000D01*
X14578000Y-4318000D02*
G75*
G03*
X14578000Y-4318000I-100000J0D01*
G01*
X4304900Y-3224900D02*
X4635100Y-3555100D01*
X4635100Y-3224900D02*
X4304900Y-3555100D01*
X4470000Y-3224900D02*
X4470000Y-3555100D01*
X4304900Y-3390000D02*
X4635100Y-3390000D01*
X4304900Y-8724900D02*
X4635100Y-9055100D01*
X4635100Y-8724900D02*
X4304900Y-9055100D01*
X4470000Y-8724900D02*
X4470000Y-9055100D01*
X4304900Y-8890000D02*
X4635100Y-8890000D01*
X4304900Y-14224900D02*
X4635100Y-14555100D01*
X4635100Y-14224900D02*
X4304900Y-14555100D01*
X4470000Y-14224900D02*
X4470000Y-14555100D01*
X4304900Y-14390000D02*
X4635100Y-14390000D01*
X5756519Y-4406900D02*
X6086719Y-4737100D01*
X6086719Y-4406900D02*
X5756519Y-4737100D01*
X5921619Y-4406900D02*
X5921619Y-4737100D01*
X5756519Y-4572000D02*
X6086719Y-4572000D01*
X5756519Y-7327900D02*
X6086719Y-7658100D01*
X6086719Y-7327900D02*
X5756519Y-7658100D01*
X5921619Y-7327900D02*
X5921619Y-7658100D01*
X5756519Y-7493000D02*
X6086719Y-7493000D01*
X5756519Y-13042900D02*
X6086719Y-13373100D01*
X6086719Y-13042900D02*
X5756519Y-13373100D01*
X5921619Y-13042900D02*
X5921619Y-13373100D01*
X5756519Y-13208000D02*
X6086719Y-13208000D01*
X5804900Y-5724900D02*
X6135100Y-6055100D01*
X6135100Y-5724900D02*
X5804900Y-6055100D01*
X5970000Y-5724900D02*
X5970000Y-6055100D01*
X5804900Y-5890000D02*
X6135100Y-5890000D01*
X5804900Y-11724900D02*
X6135100Y-12055100D01*
X6135100Y-11724900D02*
X5804900Y-12055100D01*
X5970000Y-11724900D02*
X5970000Y-12055100D01*
X5804900Y-11890000D02*
X6135100Y-11890000D01*
X6629400Y-3534019D02*
X6959600Y-3864219D01*
X6959600Y-3534019D02*
X6629400Y-3864219D01*
X6794500Y-3534019D02*
X6794500Y-3864219D01*
X6629400Y-3699119D02*
X6959600Y-3699119D01*
X6629400Y-5279781D02*
X6959600Y-5609981D01*
X6959600Y-5279781D02*
X6629400Y-5609981D01*
X6794500Y-5279781D02*
X6794500Y-5609981D01*
X6629400Y-5444881D02*
X6959600Y-5444881D01*
X6629400Y-6455019D02*
X6959600Y-6785219D01*
X6959600Y-6455019D02*
X6629400Y-6785219D01*
X6794500Y-6455019D02*
X6794500Y-6785219D01*
X6629400Y-6620119D02*
X6959600Y-6620119D01*
X6629400Y-8200781D02*
X6959600Y-8530981D01*
X6959600Y-8200781D02*
X6629400Y-8530981D01*
X6794500Y-8200781D02*
X6794500Y-8530981D01*
X6629400Y-8365881D02*
X6959600Y-8365881D01*
X6629400Y-12170019D02*
X6959600Y-12500219D01*
X6959600Y-12170019D02*
X6629400Y-12500219D01*
X6794500Y-12170019D02*
X6794500Y-12500219D01*
X6629400Y-12335119D02*
X6959600Y-12335119D01*
X6629400Y-13915781D02*
X6959600Y-14245981D01*
X6959600Y-13915781D02*
X6629400Y-14245981D01*
X6794500Y-13915781D02*
X6794500Y-14245981D01*
X6629400Y-14080881D02*
X6959600Y-14080881D01*
X7502281Y-4406900D02*
X7832481Y-4737100D01*
X7832481Y-4406900D02*
X7502281Y-4737100D01*
X7667381Y-4406900D02*
X7667381Y-4737100D01*
X7502281Y-4572000D02*
X7832481Y-4572000D01*
X7502281Y-7327900D02*
X7832481Y-7658100D01*
X7832481Y-7327900D02*
X7502281Y-7658100D01*
X7667381Y-7327900D02*
X7667381Y-7658100D01*
X7502281Y-7493000D02*
X7832481Y-7493000D01*
X7502281Y-13042900D02*
X7832481Y-13373100D01*
X7832481Y-13042900D02*
X7502281Y-13373100D01*
X7667381Y-13042900D02*
X7667381Y-13373100D01*
X7502281Y-13208000D02*
X7832481Y-13208000D01*
X8677519Y-4406900D02*
X9007719Y-4737100D01*
X9007719Y-4406900D02*
X8677519Y-4737100D01*
X8842619Y-4406900D02*
X8842619Y-4737100D01*
X8677519Y-4572000D02*
X9007719Y-4572000D01*
X8677519Y-10121900D02*
X9007719Y-10452100D01*
X9007719Y-10121900D02*
X8677519Y-10452100D01*
X8842619Y-10121900D02*
X8842619Y-10452100D01*
X8677519Y-10287000D02*
X9007719Y-10287000D01*
X8677519Y-13042900D02*
X9007719Y-13373100D01*
X9007719Y-13042900D02*
X8677519Y-13373100D01*
X8842619Y-13042900D02*
X8842619Y-13373100D01*
X8677519Y-13208000D02*
X9007719Y-13208000D01*
X9550400Y-3534019D02*
X9880600Y-3864219D01*
X9880600Y-3534019D02*
X9550400Y-3864219D01*
X9715500Y-3534019D02*
X9715500Y-3864219D01*
X9550400Y-3699119D02*
X9880600Y-3699119D01*
X9550400Y-5279781D02*
X9880600Y-5609981D01*
X9880600Y-5279781D02*
X9550400Y-5609981D01*
X9715500Y-5279781D02*
X9715500Y-5609981D01*
X9550400Y-5444881D02*
X9880600Y-5444881D01*
X9550400Y-9249019D02*
X9880600Y-9579219D01*
X9880600Y-9249019D02*
X9550400Y-9579219D01*
X9715500Y-9249019D02*
X9715500Y-9579219D01*
X9550400Y-9414119D02*
X9880600Y-9414119D01*
X9550400Y-10994781D02*
X9880600Y-11324981D01*
X9880600Y-10994781D02*
X9550400Y-11324981D01*
X9715500Y-10994781D02*
X9715500Y-11324981D01*
X9550400Y-11159881D02*
X9880600Y-11159881D01*
X9550400Y-12170019D02*
X9880600Y-12500219D01*
X9880600Y-12170019D02*
X9550400Y-12500219D01*
X9715500Y-12170019D02*
X9715500Y-12500219D01*
X9550400Y-12335119D02*
X9880600Y-12335119D01*
X9550400Y-13915781D02*
X9880600Y-14245981D01*
X9880600Y-13915781D02*
X9550400Y-14245981D01*
X9715500Y-13915781D02*
X9715500Y-14245981D01*
X9550400Y-14080881D02*
X9880600Y-14080881D01*
X10423281Y-4406900D02*
X10753481Y-4737100D01*
X10753481Y-4406900D02*
X10423281Y-4737100D01*
X10588381Y-4406900D02*
X10588381Y-4737100D01*
X10423281Y-4572000D02*
X10753481Y-4572000D01*
X10423281Y-10121900D02*
X10753481Y-10452100D01*
X10753481Y-10121900D02*
X10423281Y-10452100D01*
X10588381Y-10121900D02*
X10588381Y-10452100D01*
X10423281Y-10287000D02*
X10753481Y-10287000D01*
X10423281Y-13042900D02*
X10753481Y-13373100D01*
X10753481Y-13042900D02*
X10423281Y-13373100D01*
X10588381Y-13042900D02*
X10588381Y-13373100D01*
X10423281Y-13208000D02*
X10753481Y-13208000D01*
X11804900Y-3224900D02*
X12135100Y-3555100D01*
X12135100Y-3224900D02*
X11804900Y-3555100D01*
X11970000Y-3224900D02*
X11970000Y-3555100D01*
X11804900Y-3390000D02*
X12135100Y-3390000D01*
X11804900Y-14224900D02*
X12135100Y-14555100D01*
X12135100Y-14224900D02*
X11804900Y-14555100D01*
X11970000Y-14224900D02*
X11970000Y-14555100D01*
X11804900Y-14390000D02*
X12135100Y-14390000D01*
X15804900Y-3224900D02*
X16135100Y-3555100D01*
X16135100Y-3224900D02*
X15804900Y-3555100D01*
X15970000Y-3224900D02*
X15970000Y-3555100D01*
X15804900Y-3390000D02*
X16135100Y-3390000D01*
X15804900Y-14224900D02*
X16135100Y-14555100D01*
X16135100Y-14224900D02*
X15804900Y-14555100D01*
X15970000Y-14224900D02*
X15970000Y-14555100D01*
X15804900Y-14390000D02*
X16135100Y-14390000D01*
X17186519Y-4406900D02*
X17516719Y-4737100D01*
X17516719Y-4406900D02*
X17186519Y-4737100D01*
X17351619Y-4406900D02*
X17351619Y-4737100D01*
X17186519Y-4572000D02*
X17516719Y-4572000D01*
X17186519Y-10121900D02*
X17516719Y-10452100D01*
X17516719Y-10121900D02*
X17186519Y-10452100D01*
X17351619Y-10121900D02*
X17351619Y-10452100D01*
X17186519Y-10287000D02*
X17516719Y-10287000D01*
X17186519Y-13042900D02*
X17516719Y-13373100D01*
X17516719Y-13042900D02*
X17186519Y-13373100D01*
X17351619Y-13042900D02*
X17351619Y-13373100D01*
X17186519Y-13208000D02*
X17516719Y-13208000D01*
X18059400Y-3534019D02*
X18389600Y-3864219D01*
X18389600Y-3534019D02*
X18059400Y-3864219D01*
X18224500Y-3534019D02*
X18224500Y-3864219D01*
X18059400Y-3699119D02*
X18389600Y-3699119D01*
X18059400Y-5279781D02*
X18389600Y-5609981D01*
X18389600Y-5279781D02*
X18059400Y-5609981D01*
X18224500Y-5279781D02*
X18224500Y-5609981D01*
X18059400Y-5444881D02*
X18389600Y-5444881D01*
X18059400Y-9249019D02*
X18389600Y-9579219D01*
X18389600Y-9249019D02*
X18059400Y-9579219D01*
X18224500Y-9249019D02*
X18224500Y-9579219D01*
X18059400Y-9414119D02*
X18389600Y-9414119D01*
X18059400Y-10994781D02*
X18389600Y-11324981D01*
X18389600Y-10994781D02*
X18059400Y-11324981D01*
X18224500Y-10994781D02*
X18224500Y-11324981D01*
X18059400Y-11159881D02*
X18389600Y-11159881D01*
X18059400Y-12170019D02*
X18389600Y-12500219D01*
X18389600Y-12170019D02*
X18059400Y-12500219D01*
X18224500Y-12170019D02*
X18224500Y-12500219D01*
X18059400Y-12335119D02*
X18389600Y-12335119D01*
X18059400Y-13915781D02*
X18389600Y-14245981D01*
X18389600Y-13915781D02*
X18059400Y-14245981D01*
X18224500Y-13915781D02*
X18224500Y-14245981D01*
X18059400Y-14080881D02*
X18389600Y-14080881D01*
X18932281Y-4406900D02*
X19262481Y-4737100D01*
X19262481Y-4406900D02*
X18932281Y-4737100D01*
X19097381Y-4406900D02*
X19097381Y-4737100D01*
X18932281Y-4572000D02*
X19262481Y-4572000D01*
X18932281Y-10121900D02*
X19262481Y-10452100D01*
X19262481Y-10121900D02*
X18932281Y-10452100D01*
X19097381Y-10121900D02*
X19097381Y-10452100D01*
X18932281Y-10287000D02*
X19262481Y-10287000D01*
X18932281Y-13042900D02*
X19262481Y-13373100D01*
X19262481Y-13042900D02*
X18932281Y-13373100D01*
X19097381Y-13042900D02*
X19097381Y-13373100D01*
X18932281Y-13208000D02*
X19262481Y-13208000D01*
X20107519Y-4406900D02*
X20437719Y-4737100D01*
X20437719Y-4406900D02*
X20107519Y-4737100D01*
X20272619Y-4406900D02*
X20272619Y-4737100D01*
X20107519Y-4572000D02*
X20437719Y-4572000D01*
X20107519Y-7327900D02*
X20437719Y-7658100D01*
X20437719Y-7327900D02*
X20107519Y-7658100D01*
X20272619Y-7327900D02*
X20272619Y-7658100D01*
X20107519Y-7493000D02*
X20437719Y-7493000D01*
X20107519Y-13042900D02*
X20437719Y-13373100D01*
X20437719Y-13042900D02*
X20107519Y-13373100D01*
X20272619Y-13042900D02*
X20272619Y-13373100D01*
X20107519Y-13208000D02*
X20437719Y-13208000D01*
X20980400Y-3534019D02*
X21310600Y-3864219D01*
X21310600Y-3534019D02*
X20980400Y-3864219D01*
X21145500Y-3534019D02*
X21145500Y-3864219D01*
X20980400Y-3699119D02*
X21310600Y-3699119D01*
X20980400Y-5279781D02*
X21310600Y-5609981D01*
X21310600Y-5279781D02*
X20980400Y-5609981D01*
X21145500Y-5279781D02*
X21145500Y-5609981D01*
X20980400Y-5444881D02*
X21310600Y-5444881D01*
X20980400Y-6455019D02*
X21310600Y-6785219D01*
X21310600Y-6455019D02*
X20980400Y-6785219D01*
X21145500Y-6455019D02*
X21145500Y-6785219D01*
X20980400Y-6620119D02*
X21310600Y-6620119D01*
X20980400Y-8200781D02*
X21310600Y-8530981D01*
X21310600Y-8200781D02*
X20980400Y-8530981D01*
X21145500Y-8200781D02*
X21145500Y-8530981D01*
X20980400Y-8365881D02*
X21310600Y-8365881D01*
X20980400Y-12170019D02*
X21310600Y-12500219D01*
X21310600Y-12170019D02*
X20980400Y-12500219D01*
X21145500Y-12170019D02*
X21145500Y-12500219D01*
X20980400Y-12335119D02*
X21310600Y-12335119D01*
X20980400Y-13915781D02*
X21310600Y-14245981D01*
X21310600Y-13915781D02*
X20980400Y-14245981D01*
X21145500Y-13915781D02*
X21145500Y-14245981D01*
X20980400Y-14080881D02*
X21310600Y-14080881D01*
X21804900Y-5724900D02*
X22135100Y-6055100D01*
X22135100Y-5724900D02*
X21804900Y-6055100D01*
X21970000Y-5724900D02*
X21970000Y-6055100D01*
X21804900Y-5890000D02*
X22135100Y-5890000D01*
X21804900Y-11724900D02*
X22135100Y-12055100D01*
X22135100Y-11724900D02*
X21804900Y-12055100D01*
X21970000Y-11724900D02*
X21970000Y-12055100D01*
X21804900Y-11890000D02*
X22135100Y-11890000D01*
X21853281Y-4406900D02*
X22183481Y-4737100D01*
X22183481Y-4406900D02*
X21853281Y-4737100D01*
X22018381Y-4406900D02*
X22018381Y-4737100D01*
X21853281Y-4572000D02*
X22183481Y-4572000D01*
X21853281Y-7327900D02*
X22183481Y-7658100D01*
X22183481Y-7327900D02*
X21853281Y-7658100D01*
X22018381Y-7327900D02*
X22018381Y-7658100D01*
X21853281Y-7493000D02*
X22183481Y-7493000D01*
X21853281Y-13042900D02*
X22183481Y-13373100D01*
X22183481Y-13042900D02*
X21853281Y-13373100D01*
X22018381Y-13042900D02*
X22018381Y-13373100D01*
X21853281Y-13208000D02*
X22183481Y-13208000D01*
X23304900Y-3224900D02*
X23635100Y-3555100D01*
X23635100Y-3224900D02*
X23304900Y-3555100D01*
X23470000Y-3224900D02*
X23470000Y-3555100D01*
X23304900Y-3390000D02*
X23635100Y-3390000D01*
X23304900Y-8724900D02*
X23635100Y-9055100D01*
X23635100Y-8724900D02*
X23304900Y-9055100D01*
X23470000Y-8724900D02*
X23470000Y-9055100D01*
X23304900Y-8890000D02*
X23635100Y-8890000D01*
X23304900Y-14224900D02*
X23635100Y-14555100D01*
X23635100Y-14224900D02*
X23304900Y-14555100D01*
X23470000Y-14224900D02*
X23470000Y-14555100D01*
X23304900Y-14390000D02*
X23635100Y-14390000D01*
X13760000Y-2774500D02*
X14180000Y-3194500D01*
X14180000Y-2774500D02*
X13760000Y-3194500D01*
X14118494Y-3132994D02*
X14118494Y-2836006D01*
X13821506Y-2836006D01*
X13821506Y-3132994D01*
X14118494Y-3132994D01*
X5185410Y-2962910D02*
X5609590Y-3387090D01*
X5609590Y-2962910D02*
X5185410Y-3387090D01*
X5397500Y-3387090D02*
X5609590Y-3175000D01*
X5397500Y-2962910D01*
X5185410Y-3175000D01*
X5397500Y-3387090D01*
X5185410Y-8677910D02*
X5609590Y-9102090D01*
X5609590Y-8677910D02*
X5185410Y-9102090D01*
X5397500Y-9102090D02*
X5609590Y-8890000D01*
X5397500Y-8677910D01*
X5185410Y-8890000D01*
X5397500Y-9102090D01*
X5185410Y-14392910D02*
X5609590Y-14817090D01*
X5609590Y-14392910D02*
X5185410Y-14817090D01*
X5397500Y-14817090D02*
X5609590Y-14605000D01*
X5397500Y-14392910D01*
X5185410Y-14605000D01*
X5397500Y-14817090D01*
X10900410Y-2962910D02*
X11324590Y-3387090D01*
X11324590Y-2962910D02*
X10900410Y-3387090D01*
X11112500Y-3387090D02*
X11324590Y-3175000D01*
X11112500Y-2962910D01*
X10900410Y-3175000D01*
X11112500Y-3387090D01*
X10900410Y-8677910D02*
X11324590Y-9102090D01*
X11324590Y-8677910D02*
X10900410Y-9102090D01*
X11112500Y-9102090D02*
X11324590Y-8890000D01*
X11112500Y-8677910D01*
X10900410Y-8890000D01*
X11112500Y-9102090D01*
X10900410Y-14392910D02*
X11324590Y-14817090D01*
X11324590Y-14392910D02*
X10900410Y-14817090D01*
X11112500Y-14817090D02*
X11324590Y-14605000D01*
X11112500Y-14392910D01*
X10900410Y-14605000D01*
X11112500Y-14817090D01*
X16615410Y-2962910D02*
X17039590Y-3387090D01*
X17039590Y-2962910D02*
X16615410Y-3387090D01*
X16827500Y-3387090D02*
X17039590Y-3175000D01*
X16827500Y-2962910D01*
X16615410Y-3175000D01*
X16827500Y-3387090D01*
X16615410Y-8677910D02*
X17039590Y-9102090D01*
X17039590Y-8677910D02*
X16615410Y-9102090D01*
X16827500Y-9102090D02*
X17039590Y-8890000D01*
X16827500Y-8677910D01*
X16615410Y-8890000D01*
X16827500Y-9102090D01*
X16615410Y-14392910D02*
X17039590Y-14817090D01*
X17039590Y-14392910D02*
X16615410Y-14817090D01*
X16827500Y-14817090D02*
X17039590Y-14605000D01*
X16827500Y-14392910D01*
X16615410Y-14605000D01*
X16827500Y-14817090D01*
X22330410Y-2962910D02*
X22754590Y-3387090D01*
X22754590Y-2962910D02*
X22330410Y-3387090D01*
X22542500Y-3387090D02*
X22754590Y-3175000D01*
X22542500Y-2962910D01*
X22330410Y-3175000D01*
X22542500Y-3387090D01*
X22330410Y-8677910D02*
X22754590Y-9102090D01*
X22754590Y-8677910D02*
X22330410Y-9102090D01*
X22542500Y-9102090D02*
X22754590Y-8890000D01*
X22542500Y-8677910D01*
X22330410Y-8890000D01*
X22542500Y-9102090D01*
X22330410Y-14392910D02*
X22754590Y-14817090D01*
X22754590Y-14392910D02*
X22330410Y-14817090D01*
X22542500Y-14817090D02*
X22754590Y-14605000D01*
X22542500Y-14392910D01*
X22330410Y-14605000D01*
X22542500Y-14817090D01*
D12*
X4090078Y-16728064D02*
X4090078Y-16428064D01*
X4161507Y-16428064D01*
X4204364Y-16442350D01*
X4232936Y-16470921D01*
X4247221Y-16499493D01*
X4261507Y-16556636D01*
X4261507Y-16599493D01*
X4247221Y-16656636D01*
X4232936Y-16685207D01*
X4204364Y-16713779D01*
X4161507Y-16728064D01*
X4090078Y-16728064D01*
X4390078Y-16728064D02*
X4390078Y-16528064D01*
X4390078Y-16585207D02*
X4404364Y-16556636D01*
X4418650Y-16542350D01*
X4447221Y-16528064D01*
X4475793Y-16528064D01*
X4575793Y-16728064D02*
X4575793Y-16528064D01*
X4575793Y-16428064D02*
X4561507Y-16442350D01*
X4575793Y-16456636D01*
X4590078Y-16442350D01*
X4575793Y-16428064D01*
X4575793Y-16456636D01*
X4761507Y-16728064D02*
X4732936Y-16713779D01*
X4718650Y-16685207D01*
X4718650Y-16428064D01*
X4918650Y-16728064D02*
X4890078Y-16713779D01*
X4875793Y-16685207D01*
X4875793Y-16428064D01*
X5261507Y-16728064D02*
X5261507Y-16428064D01*
X5361507Y-16642350D01*
X5461507Y-16428064D01*
X5461507Y-16728064D01*
X5732936Y-16728064D02*
X5732936Y-16570921D01*
X5718650Y-16542350D01*
X5690078Y-16528064D01*
X5632936Y-16528064D01*
X5604364Y-16542350D01*
X5732936Y-16713779D02*
X5704364Y-16728064D01*
X5632936Y-16728064D01*
X5604364Y-16713779D01*
X5590078Y-16685207D01*
X5590078Y-16656636D01*
X5604364Y-16628064D01*
X5632936Y-16613779D01*
X5704364Y-16613779D01*
X5732936Y-16599493D01*
X5875793Y-16528064D02*
X5875793Y-16828064D01*
X5875793Y-16542350D02*
X5904364Y-16528064D01*
X5961507Y-16528064D01*
X5990078Y-16542350D01*
X6004364Y-16556636D01*
X6018650Y-16585207D01*
X6018650Y-16670921D01*
X6004364Y-16699493D01*
X5990078Y-16713779D01*
X5961507Y-16728064D01*
X5904364Y-16728064D01*
X5875793Y-16713779D01*
X6147221Y-16699493D02*
X6161507Y-16713779D01*
X6147221Y-16728064D01*
X6132936Y-16713779D01*
X6147221Y-16699493D01*
X6147221Y-16728064D01*
X6147221Y-16542350D02*
X6161507Y-16556636D01*
X6147221Y-16570921D01*
X6132936Y-16556636D01*
X6147221Y-16542350D01*
X6147221Y-16570921D01*
X3763010Y-17202030D02*
X3803650Y-17242670D01*
X3803650Y-17202030D02*
X3763010Y-17242670D01*
X4147221Y-17058064D02*
X4175793Y-17058064D01*
X4204364Y-17072350D01*
X4218650Y-17086636D01*
X4232936Y-17115207D01*
X4247221Y-17172350D01*
X4247221Y-17243779D01*
X4232936Y-17300922D01*
X4218650Y-17329493D01*
X4204364Y-17343779D01*
X4175793Y-17358064D01*
X4147221Y-17358064D01*
X4118650Y-17343779D01*
X4104364Y-17329493D01*
X4090078Y-17300922D01*
X4075793Y-17243779D01*
X4075793Y-17172350D01*
X4090078Y-17115207D01*
X4104364Y-17086636D01*
X4118650Y-17072350D01*
X4147221Y-17058064D01*
X4375793Y-17329493D02*
X4390078Y-17343779D01*
X4375793Y-17358064D01*
X4361507Y-17343779D01*
X4375793Y-17329493D01*
X4375793Y-17358064D01*
X4647221Y-17158064D02*
X4647221Y-17358064D01*
X4575793Y-17043779D02*
X4504364Y-17258064D01*
X4690078Y-17258064D01*
X4861507Y-17058064D02*
X4890078Y-17058064D01*
X4918650Y-17072350D01*
X4932936Y-17086636D01*
X4947221Y-17115207D01*
X4961507Y-17172350D01*
X4961507Y-17243779D01*
X4947221Y-17300922D01*
X4932936Y-17329493D01*
X4918650Y-17343779D01*
X4890078Y-17358064D01*
X4861507Y-17358064D01*
X4832936Y-17343779D01*
X4818650Y-17329493D01*
X4804364Y-17300922D01*
X4790078Y-17243779D01*
X4790078Y-17172350D01*
X4804364Y-17115207D01*
X4818650Y-17086636D01*
X4832936Y-17072350D01*
X4861507Y-17058064D01*
X5218650Y-17058064D02*
X5161507Y-17058064D01*
X5132936Y-17072350D01*
X5118650Y-17086636D01*
X5090078Y-17129493D01*
X5075793Y-17186636D01*
X5075793Y-17300922D01*
X5090078Y-17329493D01*
X5104364Y-17343779D01*
X5132936Y-17358064D01*
X5190078Y-17358064D01*
X5218650Y-17343779D01*
X5232936Y-17329493D01*
X5247221Y-17300922D01*
X5247221Y-17229493D01*
X5232936Y-17200922D01*
X5218650Y-17186636D01*
X5190078Y-17172350D01*
X5132936Y-17172350D01*
X5104364Y-17186636D01*
X5090078Y-17200922D01*
X5075793Y-17229493D01*
X5375793Y-17358064D02*
X5375793Y-17158064D01*
X5375793Y-17186636D02*
X5390078Y-17172350D01*
X5418650Y-17158064D01*
X5461507Y-17158064D01*
X5490078Y-17172350D01*
X5504364Y-17200922D01*
X5504364Y-17358064D01*
X5504364Y-17200922D02*
X5518650Y-17172350D01*
X5547221Y-17158064D01*
X5590078Y-17158064D01*
X5618650Y-17172350D01*
X5632936Y-17200922D01*
X5632936Y-17358064D01*
X5775793Y-17358064D02*
X5775793Y-17158064D01*
X5775793Y-17186636D02*
X5790078Y-17172350D01*
X5818650Y-17158064D01*
X5861507Y-17158064D01*
X5890078Y-17172350D01*
X5904364Y-17200922D01*
X5904364Y-17358064D01*
X5904364Y-17200922D02*
X5918650Y-17172350D01*
X5947221Y-17158064D01*
X5990078Y-17158064D01*
X6018650Y-17172350D01*
X6032936Y-17200922D01*
X6032936Y-17358064D01*
X6618650Y-17043779D02*
X6361507Y-17429493D01*
X7004364Y-17058064D02*
X7032936Y-17058064D01*
X7061507Y-17072350D01*
X7075793Y-17086636D01*
X7090078Y-17115207D01*
X7104364Y-17172350D01*
X7104364Y-17243779D01*
X7090078Y-17300922D01*
X7075793Y-17329493D01*
X7061507Y-17343779D01*
X7032936Y-17358064D01*
X7004364Y-17358064D01*
X6975793Y-17343779D01*
X6961507Y-17329493D01*
X6947221Y-17300922D01*
X6932936Y-17243779D01*
X6932936Y-17172350D01*
X6947221Y-17115207D01*
X6961507Y-17086636D01*
X6975793Y-17072350D01*
X7004364Y-17058064D01*
X7232936Y-17329493D02*
X7247221Y-17343779D01*
X7232936Y-17358064D01*
X7218650Y-17343779D01*
X7232936Y-17329493D01*
X7232936Y-17358064D01*
X7432936Y-17058064D02*
X7461507Y-17058064D01*
X7490078Y-17072350D01*
X7504364Y-17086636D01*
X7518650Y-17115207D01*
X7532936Y-17172350D01*
X7532936Y-17243779D01*
X7518650Y-17300922D01*
X7504364Y-17329493D01*
X7490078Y-17343779D01*
X7461507Y-17358064D01*
X7432936Y-17358064D01*
X7404364Y-17343779D01*
X7390078Y-17329493D01*
X7375793Y-17300922D01*
X7361507Y-17243779D01*
X7361507Y-17172350D01*
X7375793Y-17115207D01*
X7390078Y-17086636D01*
X7404364Y-17072350D01*
X7432936Y-17058064D01*
X7818650Y-17358064D02*
X7647221Y-17358064D01*
X7732936Y-17358064D02*
X7732936Y-17058064D01*
X7704364Y-17100922D01*
X7675793Y-17129493D01*
X7647221Y-17143779D01*
X8075793Y-17058064D02*
X8018650Y-17058064D01*
X7990078Y-17072350D01*
X7975793Y-17086636D01*
X7947221Y-17129493D01*
X7932936Y-17186636D01*
X7932936Y-17300922D01*
X7947221Y-17329493D01*
X7961507Y-17343779D01*
X7990078Y-17358064D01*
X8047221Y-17358064D01*
X8075793Y-17343779D01*
X8090078Y-17329493D01*
X8104364Y-17300922D01*
X8104364Y-17229493D01*
X8090078Y-17200922D01*
X8075793Y-17186636D01*
X8047221Y-17172350D01*
X7990078Y-17172350D01*
X7961507Y-17186636D01*
X7947221Y-17200922D01*
X7932936Y-17229493D01*
X8290078Y-17058064D02*
X8318650Y-17058064D01*
X8347221Y-17072350D01*
X8361507Y-17086636D01*
X8375793Y-17115207D01*
X8390078Y-17172350D01*
X8390078Y-17243779D01*
X8375793Y-17300922D01*
X8361507Y-17329493D01*
X8347221Y-17343779D01*
X8318650Y-17358064D01*
X8290078Y-17358064D01*
X8261507Y-17343779D01*
X8247221Y-17329493D01*
X8232936Y-17300922D01*
X8218650Y-17243779D01*
X8218650Y-17172350D01*
X8232936Y-17115207D01*
X8247221Y-17086636D01*
X8261507Y-17072350D01*
X8290078Y-17058064D01*
X8504364Y-17058064D02*
X8504364Y-17115207D01*
X8618650Y-17058064D02*
X8618650Y-17115207D01*
X9061507Y-17472350D02*
X9047221Y-17458064D01*
X9018650Y-17415207D01*
X9004364Y-17386636D01*
X8990078Y-17343779D01*
X8975793Y-17272350D01*
X8975793Y-17215207D01*
X8990078Y-17143779D01*
X9004364Y-17100922D01*
X9018650Y-17072350D01*
X9047221Y-17029493D01*
X9061507Y-17015207D01*
X9161507Y-17086636D02*
X9175793Y-17072350D01*
X9204364Y-17058064D01*
X9275793Y-17058064D01*
X9304364Y-17072350D01*
X9318650Y-17086636D01*
X9332936Y-17115207D01*
X9332936Y-17143779D01*
X9318650Y-17186636D01*
X9147221Y-17358064D01*
X9332936Y-17358064D01*
X9518650Y-17058064D02*
X9547221Y-17058064D01*
X9575793Y-17072350D01*
X9590078Y-17086636D01*
X9604364Y-17115207D01*
X9618650Y-17172350D01*
X9618650Y-17243779D01*
X9604364Y-17300922D01*
X9590078Y-17329493D01*
X9575793Y-17343779D01*
X9547221Y-17358064D01*
X9518650Y-17358064D01*
X9490078Y-17343779D01*
X9475793Y-17329493D01*
X9461507Y-17300922D01*
X9447221Y-17243779D01*
X9447221Y-17172350D01*
X9461507Y-17115207D01*
X9475793Y-17086636D01*
X9490078Y-17072350D01*
X9518650Y-17058064D01*
X9975793Y-17358064D02*
X9975793Y-17058064D01*
X10104364Y-17358064D02*
X10104364Y-17200922D01*
X10090078Y-17172350D01*
X10061507Y-17158064D01*
X10018650Y-17158064D01*
X9990078Y-17172350D01*
X9975793Y-17186636D01*
X10290078Y-17358064D02*
X10261507Y-17343779D01*
X10247221Y-17329493D01*
X10232936Y-17300922D01*
X10232936Y-17215207D01*
X10247221Y-17186636D01*
X10261507Y-17172350D01*
X10290078Y-17158064D01*
X10332936Y-17158064D01*
X10361507Y-17172350D01*
X10375793Y-17186636D01*
X10390078Y-17215207D01*
X10390078Y-17300922D01*
X10375793Y-17329493D01*
X10361507Y-17343779D01*
X10332936Y-17358064D01*
X10290078Y-17358064D01*
X10561507Y-17358064D02*
X10532936Y-17343779D01*
X10518650Y-17315207D01*
X10518650Y-17058064D01*
X10790078Y-17343779D02*
X10761507Y-17358064D01*
X10704364Y-17358064D01*
X10675793Y-17343779D01*
X10661507Y-17315207D01*
X10661507Y-17200922D01*
X10675793Y-17172350D01*
X10704364Y-17158064D01*
X10761507Y-17158064D01*
X10790078Y-17172350D01*
X10804364Y-17200922D01*
X10804364Y-17229493D01*
X10661507Y-17258064D01*
X10918650Y-17343779D02*
X10947221Y-17358064D01*
X11004364Y-17358064D01*
X11032936Y-17343779D01*
X11047221Y-17315207D01*
X11047221Y-17300922D01*
X11032936Y-17272350D01*
X11004364Y-17258064D01*
X10961507Y-17258064D01*
X10932936Y-17243779D01*
X10918650Y-17215207D01*
X10918650Y-17200922D01*
X10932936Y-17172350D01*
X10961507Y-17158064D01*
X11004364Y-17158064D01*
X11032936Y-17172350D01*
X11147221Y-17472350D02*
X11161507Y-17458064D01*
X11190078Y-17415207D01*
X11204364Y-17386636D01*
X11218650Y-17343779D01*
X11232936Y-17272350D01*
X11232936Y-17215207D01*
X11218650Y-17143779D01*
X11204364Y-17100922D01*
X11190078Y-17072350D01*
X11161507Y-17029493D01*
X11147221Y-17015207D01*
X3803650Y-17618350D02*
G75*
G03*
X3803650Y-17618350I-45000J0D01*
G01*
X4147221Y-17454064D02*
X4175793Y-17454064D01*
X4204364Y-17468350D01*
X4218650Y-17482636D01*
X4232936Y-17511207D01*
X4247221Y-17568350D01*
X4247221Y-17639779D01*
X4232936Y-17696922D01*
X4218650Y-17725493D01*
X4204364Y-17739779D01*
X4175793Y-17754064D01*
X4147221Y-17754064D01*
X4118650Y-17739779D01*
X4104364Y-17725493D01*
X4090078Y-17696922D01*
X4075793Y-17639779D01*
X4075793Y-17568350D01*
X4090078Y-17511207D01*
X4104364Y-17482636D01*
X4118650Y-17468350D01*
X4147221Y-17454064D01*
X4375793Y-17725493D02*
X4390078Y-17739779D01*
X4375793Y-17754064D01*
X4361507Y-17739779D01*
X4375793Y-17725493D01*
X4375793Y-17754064D01*
X4532936Y-17754064D02*
X4590078Y-17754064D01*
X4618650Y-17739779D01*
X4632936Y-17725493D01*
X4661507Y-17682636D01*
X4675793Y-17625493D01*
X4675793Y-17511207D01*
X4661507Y-17482636D01*
X4647221Y-17468350D01*
X4618650Y-17454064D01*
X4561507Y-17454064D01*
X4532936Y-17468350D01*
X4518650Y-17482636D01*
X4504364Y-17511207D01*
X4504364Y-17582636D01*
X4518650Y-17611207D01*
X4532936Y-17625493D01*
X4561507Y-17639779D01*
X4618650Y-17639779D01*
X4647221Y-17625493D01*
X4661507Y-17611207D01*
X4675793Y-17582636D01*
X4861507Y-17454064D02*
X4890078Y-17454064D01*
X4918650Y-17468350D01*
X4932936Y-17482636D01*
X4947221Y-17511207D01*
X4961507Y-17568350D01*
X4961507Y-17639779D01*
X4947221Y-17696922D01*
X4932936Y-17725493D01*
X4918650Y-17739779D01*
X4890078Y-17754064D01*
X4861507Y-17754064D01*
X4832936Y-17739779D01*
X4818650Y-17725493D01*
X4804364Y-17696922D01*
X4790078Y-17639779D01*
X4790078Y-17568350D01*
X4804364Y-17511207D01*
X4818650Y-17482636D01*
X4832936Y-17468350D01*
X4861507Y-17454064D01*
X5147221Y-17454064D02*
X5175793Y-17454064D01*
X5204364Y-17468350D01*
X5218650Y-17482636D01*
X5232936Y-17511207D01*
X5247221Y-17568350D01*
X5247221Y-17639779D01*
X5232936Y-17696922D01*
X5218650Y-17725493D01*
X5204364Y-17739779D01*
X5175793Y-17754064D01*
X5147221Y-17754064D01*
X5118650Y-17739779D01*
X5104364Y-17725493D01*
X5090078Y-17696922D01*
X5075793Y-17639779D01*
X5075793Y-17568350D01*
X5090078Y-17511207D01*
X5104364Y-17482636D01*
X5118650Y-17468350D01*
X5147221Y-17454064D01*
X5375793Y-17754064D02*
X5375793Y-17554064D01*
X5375793Y-17582636D02*
X5390078Y-17568350D01*
X5418650Y-17554064D01*
X5461507Y-17554064D01*
X5490078Y-17568350D01*
X5504364Y-17596922D01*
X5504364Y-17754064D01*
X5504364Y-17596922D02*
X5518650Y-17568350D01*
X5547221Y-17554064D01*
X5590078Y-17554064D01*
X5618650Y-17568350D01*
X5632936Y-17596922D01*
X5632936Y-17754064D01*
X5775793Y-17754064D02*
X5775793Y-17554064D01*
X5775793Y-17582636D02*
X5790078Y-17568350D01*
X5818650Y-17554064D01*
X5861507Y-17554064D01*
X5890078Y-17568350D01*
X5904364Y-17596922D01*
X5904364Y-17754064D01*
X5904364Y-17596922D02*
X5918650Y-17568350D01*
X5947221Y-17554064D01*
X5990078Y-17554064D01*
X6018650Y-17568350D01*
X6032936Y-17596922D01*
X6032936Y-17754064D01*
X6618650Y-17439779D02*
X6361507Y-17825493D01*
X7004364Y-17454064D02*
X7032936Y-17454064D01*
X7061507Y-17468350D01*
X7075793Y-17482636D01*
X7090078Y-17511207D01*
X7104364Y-17568350D01*
X7104364Y-17639779D01*
X7090078Y-17696922D01*
X7075793Y-17725493D01*
X7061507Y-17739779D01*
X7032936Y-17754064D01*
X7004364Y-17754064D01*
X6975793Y-17739779D01*
X6961507Y-17725493D01*
X6947221Y-17696922D01*
X6932936Y-17639779D01*
X6932936Y-17568350D01*
X6947221Y-17511207D01*
X6961507Y-17482636D01*
X6975793Y-17468350D01*
X7004364Y-17454064D01*
X7232936Y-17725493D02*
X7247221Y-17739779D01*
X7232936Y-17754064D01*
X7218650Y-17739779D01*
X7232936Y-17725493D01*
X7232936Y-17754064D01*
X7432936Y-17454064D02*
X7461507Y-17454064D01*
X7490078Y-17468350D01*
X7504364Y-17482636D01*
X7518650Y-17511207D01*
X7532936Y-17568350D01*
X7532936Y-17639779D01*
X7518650Y-17696922D01*
X7504364Y-17725493D01*
X7490078Y-17739779D01*
X7461507Y-17754064D01*
X7432936Y-17754064D01*
X7404364Y-17739779D01*
X7390078Y-17725493D01*
X7375793Y-17696922D01*
X7361507Y-17639779D01*
X7361507Y-17568350D01*
X7375793Y-17511207D01*
X7390078Y-17482636D01*
X7404364Y-17468350D01*
X7432936Y-17454064D01*
X7632936Y-17454064D02*
X7818650Y-17454064D01*
X7718650Y-17568350D01*
X7761507Y-17568350D01*
X7790078Y-17582636D01*
X7804364Y-17596922D01*
X7818650Y-17625493D01*
X7818650Y-17696922D01*
X7804364Y-17725493D01*
X7790078Y-17739779D01*
X7761507Y-17754064D01*
X7675793Y-17754064D01*
X7647221Y-17739779D01*
X7632936Y-17725493D01*
X8090078Y-17454064D02*
X7947221Y-17454064D01*
X7932936Y-17596922D01*
X7947221Y-17582636D01*
X7975793Y-17568350D01*
X8047221Y-17568350D01*
X8075793Y-17582636D01*
X8090078Y-17596922D01*
X8104364Y-17625493D01*
X8104364Y-17696922D01*
X8090078Y-17725493D01*
X8075793Y-17739779D01*
X8047221Y-17754064D01*
X7975793Y-17754064D01*
X7947221Y-17739779D01*
X7932936Y-17725493D01*
X8361507Y-17554064D02*
X8361507Y-17754064D01*
X8290078Y-17439779D02*
X8218650Y-17654064D01*
X8404364Y-17654064D01*
X8504364Y-17454064D02*
X8504364Y-17511207D01*
X8618650Y-17454064D02*
X8618650Y-17511207D01*
X9061507Y-17868350D02*
X9047221Y-17854064D01*
X9018650Y-17811207D01*
X9004364Y-17782636D01*
X8990078Y-17739779D01*
X8975793Y-17668350D01*
X8975793Y-17611207D01*
X8990078Y-17539779D01*
X9004364Y-17496922D01*
X9018650Y-17468350D01*
X9047221Y-17425493D01*
X9061507Y-17411207D01*
X9161507Y-17482636D02*
X9175793Y-17468350D01*
X9204364Y-17454064D01*
X9275793Y-17454064D01*
X9304364Y-17468350D01*
X9318650Y-17482636D01*
X9332936Y-17511207D01*
X9332936Y-17539779D01*
X9318650Y-17582636D01*
X9147221Y-17754064D01*
X9332936Y-17754064D01*
X9690078Y-17754064D02*
X9690078Y-17454064D01*
X9818650Y-17754064D02*
X9818650Y-17596922D01*
X9804364Y-17568350D01*
X9775793Y-17554064D01*
X9732936Y-17554064D01*
X9704364Y-17568350D01*
X9690078Y-17582636D01*
X10004364Y-17754064D02*
X9975793Y-17739779D01*
X9961507Y-17725493D01*
X9947221Y-17696922D01*
X9947221Y-17611207D01*
X9961507Y-17582636D01*
X9975793Y-17568350D01*
X10004364Y-17554064D01*
X10047221Y-17554064D01*
X10075793Y-17568350D01*
X10090078Y-17582636D01*
X10104364Y-17611207D01*
X10104364Y-17696922D01*
X10090078Y-17725493D01*
X10075793Y-17739779D01*
X10047221Y-17754064D01*
X10004364Y-17754064D01*
X10275793Y-17754064D02*
X10247221Y-17739779D01*
X10232936Y-17711207D01*
X10232936Y-17454064D01*
X10504364Y-17739779D02*
X10475793Y-17754064D01*
X10418650Y-17754064D01*
X10390078Y-17739779D01*
X10375793Y-17711207D01*
X10375793Y-17596922D01*
X10390078Y-17568350D01*
X10418650Y-17554064D01*
X10475793Y-17554064D01*
X10504364Y-17568350D01*
X10518650Y-17596922D01*
X10518650Y-17625493D01*
X10375793Y-17654064D01*
X10632936Y-17739779D02*
X10661507Y-17754064D01*
X10718650Y-17754064D01*
X10747221Y-17739779D01*
X10761507Y-17711207D01*
X10761507Y-17696922D01*
X10747221Y-17668350D01*
X10718650Y-17654064D01*
X10675793Y-17654064D01*
X10647221Y-17639779D01*
X10632936Y-17611207D01*
X10632936Y-17596922D01*
X10647221Y-17568350D01*
X10675793Y-17554064D01*
X10718650Y-17554064D01*
X10747221Y-17568350D01*
X10861507Y-17868350D02*
X10875793Y-17854064D01*
X10904364Y-17811207D01*
X10918650Y-17782636D01*
X10932936Y-17739779D01*
X10947221Y-17668350D01*
X10947221Y-17611207D01*
X10932936Y-17539779D01*
X10918650Y-17496922D01*
X10904364Y-17468350D01*
X10875793Y-17425493D01*
X10861507Y-17411207D01*
X3752850Y-17963550D02*
X3752850Y-18065150D01*
X3702050Y-18014350D02*
X3803650Y-18014350D01*
X4247221Y-18150064D02*
X4075793Y-18150064D01*
X4161507Y-18150064D02*
X4161507Y-17850064D01*
X4132936Y-17892922D01*
X4104364Y-17921493D01*
X4075793Y-17935779D01*
X4375793Y-18121493D02*
X4390078Y-18135779D01*
X4375793Y-18150064D01*
X4361507Y-18135779D01*
X4375793Y-18121493D01*
X4375793Y-18150064D01*
X4575793Y-17850064D02*
X4604364Y-17850064D01*
X4632936Y-17864350D01*
X4647221Y-17878636D01*
X4661507Y-17907207D01*
X4675793Y-17964350D01*
X4675793Y-18035779D01*
X4661507Y-18092922D01*
X4647221Y-18121493D01*
X4632936Y-18135779D01*
X4604364Y-18150064D01*
X4575793Y-18150064D01*
X4547221Y-18135779D01*
X4532936Y-18121493D01*
X4518650Y-18092922D01*
X4504364Y-18035779D01*
X4504364Y-17964350D01*
X4518650Y-17907207D01*
X4532936Y-17878636D01*
X4547221Y-17864350D01*
X4575793Y-17850064D01*
X4961507Y-18150064D02*
X4790078Y-18150064D01*
X4875793Y-18150064D02*
X4875793Y-17850064D01*
X4847221Y-17892922D01*
X4818650Y-17921493D01*
X4790078Y-17935779D01*
X5218650Y-17850064D02*
X5161507Y-17850064D01*
X5132936Y-17864350D01*
X5118650Y-17878636D01*
X5090078Y-17921493D01*
X5075793Y-17978636D01*
X5075793Y-18092922D01*
X5090078Y-18121493D01*
X5104364Y-18135779D01*
X5132936Y-18150064D01*
X5190078Y-18150064D01*
X5218650Y-18135779D01*
X5232936Y-18121493D01*
X5247221Y-18092922D01*
X5247221Y-18021493D01*
X5232936Y-17992922D01*
X5218650Y-17978636D01*
X5190078Y-17964350D01*
X5132936Y-17964350D01*
X5104364Y-17978636D01*
X5090078Y-17992922D01*
X5075793Y-18021493D01*
X5375793Y-18150064D02*
X5375793Y-17950064D01*
X5375793Y-17978636D02*
X5390078Y-17964350D01*
X5418650Y-17950064D01*
X5461507Y-17950064D01*
X5490078Y-17964350D01*
X5504364Y-17992922D01*
X5504364Y-18150064D01*
X5504364Y-17992922D02*
X5518650Y-17964350D01*
X5547221Y-17950064D01*
X5590078Y-17950064D01*
X5618650Y-17964350D01*
X5632936Y-17992922D01*
X5632936Y-18150064D01*
X5775793Y-18150064D02*
X5775793Y-17950064D01*
X5775793Y-17978636D02*
X5790078Y-17964350D01*
X5818650Y-17950064D01*
X5861507Y-17950064D01*
X5890078Y-17964350D01*
X5904364Y-17992922D01*
X5904364Y-18150064D01*
X5904364Y-17992922D02*
X5918650Y-17964350D01*
X5947221Y-17950064D01*
X5990078Y-17950064D01*
X6018650Y-17964350D01*
X6032936Y-17992922D01*
X6032936Y-18150064D01*
X6618650Y-17835779D02*
X6361507Y-18221493D01*
X7004364Y-17850064D02*
X7032936Y-17850064D01*
X7061507Y-17864350D01*
X7075793Y-17878636D01*
X7090078Y-17907207D01*
X7104364Y-17964350D01*
X7104364Y-18035779D01*
X7090078Y-18092922D01*
X7075793Y-18121493D01*
X7061507Y-18135779D01*
X7032936Y-18150064D01*
X7004364Y-18150064D01*
X6975793Y-18135779D01*
X6961507Y-18121493D01*
X6947221Y-18092922D01*
X6932936Y-18035779D01*
X6932936Y-17964350D01*
X6947221Y-17907207D01*
X6961507Y-17878636D01*
X6975793Y-17864350D01*
X7004364Y-17850064D01*
X7232936Y-18121493D02*
X7247221Y-18135779D01*
X7232936Y-18150064D01*
X7218650Y-18135779D01*
X7232936Y-18121493D01*
X7232936Y-18150064D01*
X7432936Y-17850064D02*
X7461507Y-17850064D01*
X7490078Y-17864350D01*
X7504364Y-17878636D01*
X7518650Y-17907207D01*
X7532936Y-17964350D01*
X7532936Y-18035779D01*
X7518650Y-18092922D01*
X7504364Y-18121493D01*
X7490078Y-18135779D01*
X7461507Y-18150064D01*
X7432936Y-18150064D01*
X7404364Y-18135779D01*
X7390078Y-18121493D01*
X7375793Y-18092922D01*
X7361507Y-18035779D01*
X7361507Y-17964350D01*
X7375793Y-17907207D01*
X7390078Y-17878636D01*
X7404364Y-17864350D01*
X7432936Y-17850064D01*
X7790078Y-17950064D02*
X7790078Y-18150064D01*
X7718650Y-17835779D02*
X7647221Y-18050064D01*
X7832936Y-18050064D01*
X8004364Y-17850064D02*
X8032936Y-17850064D01*
X8061507Y-17864350D01*
X8075793Y-17878636D01*
X8090078Y-17907207D01*
X8104364Y-17964350D01*
X8104364Y-18035779D01*
X8090078Y-18092922D01*
X8075793Y-18121493D01*
X8061507Y-18135779D01*
X8032936Y-18150064D01*
X8004364Y-18150064D01*
X7975793Y-18135779D01*
X7961507Y-18121493D01*
X7947221Y-18092922D01*
X7932936Y-18035779D01*
X7932936Y-17964350D01*
X7947221Y-17907207D01*
X7961507Y-17878636D01*
X7975793Y-17864350D01*
X8004364Y-17850064D01*
X8290078Y-17850064D02*
X8318650Y-17850064D01*
X8347221Y-17864350D01*
X8361507Y-17878636D01*
X8375793Y-17907207D01*
X8390078Y-17964350D01*
X8390078Y-18035779D01*
X8375793Y-18092922D01*
X8361507Y-18121493D01*
X8347221Y-18135779D01*
X8318650Y-18150064D01*
X8290078Y-18150064D01*
X8261507Y-18135779D01*
X8247221Y-18121493D01*
X8232936Y-18092922D01*
X8218650Y-18035779D01*
X8218650Y-17964350D01*
X8232936Y-17907207D01*
X8247221Y-17878636D01*
X8261507Y-17864350D01*
X8290078Y-17850064D01*
X8504364Y-17850064D02*
X8504364Y-17907207D01*
X8618650Y-17850064D02*
X8618650Y-17907207D01*
X9061507Y-18264350D02*
X9047221Y-18250064D01*
X9018650Y-18207207D01*
X9004364Y-18178636D01*
X8990078Y-18135779D01*
X8975793Y-18064350D01*
X8975793Y-18007207D01*
X8990078Y-17935779D01*
X9004364Y-17892922D01*
X9018650Y-17864350D01*
X9047221Y-17821493D01*
X9061507Y-17807207D01*
X9161507Y-17878636D02*
X9175793Y-17864350D01*
X9204364Y-17850064D01*
X9275793Y-17850064D01*
X9304364Y-17864350D01*
X9318650Y-17878636D01*
X9332936Y-17907207D01*
X9332936Y-17935779D01*
X9318650Y-17978636D01*
X9147221Y-18150064D01*
X9332936Y-18150064D01*
X9504364Y-17978636D02*
X9475793Y-17964350D01*
X9461507Y-17950064D01*
X9447221Y-17921493D01*
X9447221Y-17907207D01*
X9461507Y-17878636D01*
X9475793Y-17864350D01*
X9504364Y-17850064D01*
X9561507Y-17850064D01*
X9590078Y-17864350D01*
X9604364Y-17878636D01*
X9618650Y-17907207D01*
X9618650Y-17921493D01*
X9604364Y-17950064D01*
X9590078Y-17964350D01*
X9561507Y-17978636D01*
X9504364Y-17978636D01*
X9475793Y-17992922D01*
X9461507Y-18007207D01*
X9447221Y-18035779D01*
X9447221Y-18092922D01*
X9461507Y-18121493D01*
X9475793Y-18135779D01*
X9504364Y-18150064D01*
X9561507Y-18150064D01*
X9590078Y-18135779D01*
X9604364Y-18121493D01*
X9618650Y-18092922D01*
X9618650Y-18035779D01*
X9604364Y-18007207D01*
X9590078Y-17992922D01*
X9561507Y-17978636D01*
X9975793Y-18150064D02*
X9975793Y-17850064D01*
X10104364Y-18150064D02*
X10104364Y-17992922D01*
X10090078Y-17964350D01*
X10061507Y-17950064D01*
X10018650Y-17950064D01*
X9990078Y-17964350D01*
X9975793Y-17978636D01*
X10290078Y-18150064D02*
X10261507Y-18135779D01*
X10247221Y-18121493D01*
X10232936Y-18092922D01*
X10232936Y-18007207D01*
X10247221Y-17978636D01*
X10261507Y-17964350D01*
X10290078Y-17950064D01*
X10332936Y-17950064D01*
X10361507Y-17964350D01*
X10375793Y-17978636D01*
X10390078Y-18007207D01*
X10390078Y-18092922D01*
X10375793Y-18121493D01*
X10361507Y-18135779D01*
X10332936Y-18150064D01*
X10290078Y-18150064D01*
X10561507Y-18150064D02*
X10532936Y-18135779D01*
X10518650Y-18107207D01*
X10518650Y-17850064D01*
X10790078Y-18135779D02*
X10761507Y-18150064D01*
X10704364Y-18150064D01*
X10675793Y-18135779D01*
X10661507Y-18107207D01*
X10661507Y-17992922D01*
X10675793Y-17964350D01*
X10704364Y-17950064D01*
X10761507Y-17950064D01*
X10790078Y-17964350D01*
X10804364Y-17992922D01*
X10804364Y-18021493D01*
X10661507Y-18050064D01*
X10918650Y-18135779D02*
X10947221Y-18150064D01*
X11004364Y-18150064D01*
X11032936Y-18135779D01*
X11047221Y-18107207D01*
X11047221Y-18092922D01*
X11032936Y-18064350D01*
X11004364Y-18050064D01*
X10961507Y-18050064D01*
X10932936Y-18035779D01*
X10918650Y-18007207D01*
X10918650Y-17992922D01*
X10932936Y-17964350D01*
X10961507Y-17950064D01*
X11004364Y-17950064D01*
X11032936Y-17964350D01*
X11147221Y-18264350D02*
X11161507Y-18250064D01*
X11190078Y-18207207D01*
X11204364Y-18178636D01*
X11218650Y-18135779D01*
X11232936Y-18064350D01*
X11232936Y-18007207D01*
X11218650Y-17935779D01*
X11204364Y-17892922D01*
X11190078Y-17864350D01*
X11161507Y-17821493D01*
X11147221Y-17807207D01*
X3784612Y-18456313D02*
X3784612Y-18364388D01*
X3692687Y-18364388D01*
X3692687Y-18456313D01*
X3784612Y-18456313D01*
X4247221Y-18546064D02*
X4075793Y-18546064D01*
X4161507Y-18546064D02*
X4161507Y-18246064D01*
X4132936Y-18288922D01*
X4104364Y-18317493D01*
X4075793Y-18331779D01*
X4375793Y-18517493D02*
X4390078Y-18531779D01*
X4375793Y-18546064D01*
X4361507Y-18531779D01*
X4375793Y-18517493D01*
X4375793Y-18546064D01*
X4490078Y-18246064D02*
X4675793Y-18246064D01*
X4575793Y-18360350D01*
X4618650Y-18360350D01*
X4647221Y-18374636D01*
X4661507Y-18388922D01*
X4675793Y-18417493D01*
X4675793Y-18488922D01*
X4661507Y-18517493D01*
X4647221Y-18531779D01*
X4618650Y-18546064D01*
X4532936Y-18546064D01*
X4504364Y-18531779D01*
X4490078Y-18517493D01*
X4861507Y-18246064D02*
X4890078Y-18246064D01*
X4918650Y-18260350D01*
X4932936Y-18274636D01*
X4947221Y-18303207D01*
X4961507Y-18360350D01*
X4961507Y-18431779D01*
X4947221Y-18488922D01*
X4932936Y-18517493D01*
X4918650Y-18531779D01*
X4890078Y-18546064D01*
X4861507Y-18546064D01*
X4832936Y-18531779D01*
X4818650Y-18517493D01*
X4804364Y-18488922D01*
X4790078Y-18431779D01*
X4790078Y-18360350D01*
X4804364Y-18303207D01*
X4818650Y-18274636D01*
X4832936Y-18260350D01*
X4861507Y-18246064D01*
X5147221Y-18246064D02*
X5175793Y-18246064D01*
X5204364Y-18260350D01*
X5218650Y-18274636D01*
X5232936Y-18303207D01*
X5247221Y-18360350D01*
X5247221Y-18431779D01*
X5232936Y-18488922D01*
X5218650Y-18517493D01*
X5204364Y-18531779D01*
X5175793Y-18546064D01*
X5147221Y-18546064D01*
X5118650Y-18531779D01*
X5104364Y-18517493D01*
X5090078Y-18488922D01*
X5075793Y-18431779D01*
X5075793Y-18360350D01*
X5090078Y-18303207D01*
X5104364Y-18274636D01*
X5118650Y-18260350D01*
X5147221Y-18246064D01*
X5375793Y-18546064D02*
X5375793Y-18346064D01*
X5375793Y-18374636D02*
X5390078Y-18360350D01*
X5418650Y-18346064D01*
X5461507Y-18346064D01*
X5490078Y-18360350D01*
X5504364Y-18388922D01*
X5504364Y-18546064D01*
X5504364Y-18388922D02*
X5518650Y-18360350D01*
X5547221Y-18346064D01*
X5590078Y-18346064D01*
X5618650Y-18360350D01*
X5632936Y-18388922D01*
X5632936Y-18546064D01*
X5775793Y-18546064D02*
X5775793Y-18346064D01*
X5775793Y-18374636D02*
X5790078Y-18360350D01*
X5818650Y-18346064D01*
X5861507Y-18346064D01*
X5890078Y-18360350D01*
X5904364Y-18388922D01*
X5904364Y-18546064D01*
X5904364Y-18388922D02*
X5918650Y-18360350D01*
X5947221Y-18346064D01*
X5990078Y-18346064D01*
X6018650Y-18360350D01*
X6032936Y-18388922D01*
X6032936Y-18546064D01*
X6618650Y-18231779D02*
X6361507Y-18617493D01*
X7004364Y-18246064D02*
X7032936Y-18246064D01*
X7061507Y-18260350D01*
X7075793Y-18274636D01*
X7090078Y-18303207D01*
X7104364Y-18360350D01*
X7104364Y-18431779D01*
X7090078Y-18488922D01*
X7075793Y-18517493D01*
X7061507Y-18531779D01*
X7032936Y-18546064D01*
X7004364Y-18546064D01*
X6975793Y-18531779D01*
X6961507Y-18517493D01*
X6947221Y-18488922D01*
X6932936Y-18431779D01*
X6932936Y-18360350D01*
X6947221Y-18303207D01*
X6961507Y-18274636D01*
X6975793Y-18260350D01*
X7004364Y-18246064D01*
X7232936Y-18517493D02*
X7247221Y-18531779D01*
X7232936Y-18546064D01*
X7218650Y-18531779D01*
X7232936Y-18517493D01*
X7232936Y-18546064D01*
X7432936Y-18246064D02*
X7461507Y-18246064D01*
X7490078Y-18260350D01*
X7504364Y-18274636D01*
X7518650Y-18303207D01*
X7532936Y-18360350D01*
X7532936Y-18431779D01*
X7518650Y-18488922D01*
X7504364Y-18517493D01*
X7490078Y-18531779D01*
X7461507Y-18546064D01*
X7432936Y-18546064D01*
X7404364Y-18531779D01*
X7390078Y-18517493D01*
X7375793Y-18488922D01*
X7361507Y-18431779D01*
X7361507Y-18360350D01*
X7375793Y-18303207D01*
X7390078Y-18274636D01*
X7404364Y-18260350D01*
X7432936Y-18246064D01*
X7804364Y-18246064D02*
X7661507Y-18246064D01*
X7647221Y-18388922D01*
X7661507Y-18374636D01*
X7690078Y-18360350D01*
X7761507Y-18360350D01*
X7790078Y-18374636D01*
X7804364Y-18388922D01*
X7818650Y-18417493D01*
X7818650Y-18488922D01*
X7804364Y-18517493D01*
X7790078Y-18531779D01*
X7761507Y-18546064D01*
X7690078Y-18546064D01*
X7661507Y-18531779D01*
X7647221Y-18517493D01*
X8104364Y-18546064D02*
X7932936Y-18546064D01*
X8018650Y-18546064D02*
X8018650Y-18246064D01*
X7990078Y-18288922D01*
X7961507Y-18317493D01*
X7932936Y-18331779D01*
X8218650Y-18274636D02*
X8232936Y-18260350D01*
X8261507Y-18246064D01*
X8332936Y-18246064D01*
X8361507Y-18260350D01*
X8375793Y-18274636D01*
X8390078Y-18303207D01*
X8390078Y-18331779D01*
X8375793Y-18374636D01*
X8204364Y-18546064D01*
X8390078Y-18546064D01*
X8504364Y-18246064D02*
X8504364Y-18303207D01*
X8618650Y-18246064D02*
X8618650Y-18303207D01*
X9061507Y-18660350D02*
X9047221Y-18646064D01*
X9018650Y-18603207D01*
X9004364Y-18574636D01*
X8990078Y-18531779D01*
X8975793Y-18460350D01*
X8975793Y-18403207D01*
X8990078Y-18331779D01*
X9004364Y-18288922D01*
X9018650Y-18260350D01*
X9047221Y-18217493D01*
X9061507Y-18203207D01*
X9161507Y-18274636D02*
X9175793Y-18260350D01*
X9204364Y-18246064D01*
X9275793Y-18246064D01*
X9304364Y-18260350D01*
X9318650Y-18274636D01*
X9332936Y-18303207D01*
X9332936Y-18331779D01*
X9318650Y-18374636D01*
X9147221Y-18546064D01*
X9332936Y-18546064D01*
X9590078Y-18346064D02*
X9590078Y-18546064D01*
X9518650Y-18231779D02*
X9447221Y-18446064D01*
X9632936Y-18446064D01*
X9975793Y-18546064D02*
X9975793Y-18246064D01*
X10104364Y-18546064D02*
X10104364Y-18388922D01*
X10090078Y-18360350D01*
X10061507Y-18346064D01*
X10018650Y-18346064D01*
X9990078Y-18360350D01*
X9975793Y-18374636D01*
X10290078Y-18546064D02*
X10261507Y-18531779D01*
X10247221Y-18517493D01*
X10232936Y-18488922D01*
X10232936Y-18403207D01*
X10247221Y-18374636D01*
X10261507Y-18360350D01*
X10290078Y-18346064D01*
X10332936Y-18346064D01*
X10361507Y-18360350D01*
X10375793Y-18374636D01*
X10390078Y-18403207D01*
X10390078Y-18488922D01*
X10375793Y-18517493D01*
X10361507Y-18531779D01*
X10332936Y-18546064D01*
X10290078Y-18546064D01*
X10561507Y-18546064D02*
X10532936Y-18531779D01*
X10518650Y-18503207D01*
X10518650Y-18246064D01*
X10790078Y-18531779D02*
X10761507Y-18546064D01*
X10704364Y-18546064D01*
X10675793Y-18531779D01*
X10661507Y-18503207D01*
X10661507Y-18388922D01*
X10675793Y-18360350D01*
X10704364Y-18346064D01*
X10761507Y-18346064D01*
X10790078Y-18360350D01*
X10804364Y-18388922D01*
X10804364Y-18417493D01*
X10661507Y-18446064D01*
X10918650Y-18531779D02*
X10947221Y-18546064D01*
X11004364Y-18546064D01*
X11032936Y-18531779D01*
X11047221Y-18503207D01*
X11047221Y-18488922D01*
X11032936Y-18460350D01*
X11004364Y-18446064D01*
X10961507Y-18446064D01*
X10932936Y-18431779D01*
X10918650Y-18403207D01*
X10918650Y-18388922D01*
X10932936Y-18360350D01*
X10961507Y-18346064D01*
X11004364Y-18346064D01*
X11032936Y-18360350D01*
X11147221Y-18660350D02*
X11161507Y-18646064D01*
X11190078Y-18603207D01*
X11204364Y-18574636D01*
X11218650Y-18531779D01*
X11232936Y-18460350D01*
X11232936Y-18403207D01*
X11218650Y-18331779D01*
X11204364Y-18288922D01*
X11190078Y-18260350D01*
X11161507Y-18217493D01*
X11147221Y-18203207D01*
X3718650Y-18891350D02*
X3803650Y-18806350D01*
X3718650Y-18721350D01*
X3633650Y-18806350D01*
X3718650Y-18891350D01*
X4247221Y-18942064D02*
X4075793Y-18942064D01*
X4161507Y-18942064D02*
X4161507Y-18642064D01*
X4132936Y-18684922D01*
X4104364Y-18713493D01*
X4075793Y-18727779D01*
X4375793Y-18913493D02*
X4390078Y-18927779D01*
X4375793Y-18942064D01*
X4361507Y-18927779D01*
X4375793Y-18913493D01*
X4375793Y-18942064D01*
X4490078Y-18642064D02*
X4690078Y-18642064D01*
X4561507Y-18942064D01*
X4861507Y-18642064D02*
X4890078Y-18642064D01*
X4918650Y-18656350D01*
X4932936Y-18670636D01*
X4947221Y-18699207D01*
X4961507Y-18756350D01*
X4961507Y-18827779D01*
X4947221Y-18884922D01*
X4932936Y-18913493D01*
X4918650Y-18927779D01*
X4890078Y-18942064D01*
X4861507Y-18942064D01*
X4832936Y-18927779D01*
X4818650Y-18913493D01*
X4804364Y-18884922D01*
X4790078Y-18827779D01*
X4790078Y-18756350D01*
X4804364Y-18699207D01*
X4818650Y-18670636D01*
X4832936Y-18656350D01*
X4861507Y-18642064D01*
X5147221Y-18642064D02*
X5175793Y-18642064D01*
X5204364Y-18656350D01*
X5218650Y-18670636D01*
X5232936Y-18699207D01*
X5247221Y-18756350D01*
X5247221Y-18827779D01*
X5232936Y-18884922D01*
X5218650Y-18913493D01*
X5204364Y-18927779D01*
X5175793Y-18942064D01*
X5147221Y-18942064D01*
X5118650Y-18927779D01*
X5104364Y-18913493D01*
X5090078Y-18884922D01*
X5075793Y-18827779D01*
X5075793Y-18756350D01*
X5090078Y-18699207D01*
X5104364Y-18670636D01*
X5118650Y-18656350D01*
X5147221Y-18642064D01*
X5375793Y-18942064D02*
X5375793Y-18742064D01*
X5375793Y-18770636D02*
X5390078Y-18756350D01*
X5418650Y-18742064D01*
X5461507Y-18742064D01*
X5490078Y-18756350D01*
X5504364Y-18784922D01*
X5504364Y-18942064D01*
X5504364Y-18784922D02*
X5518650Y-18756350D01*
X5547221Y-18742064D01*
X5590078Y-18742064D01*
X5618650Y-18756350D01*
X5632936Y-18784922D01*
X5632936Y-18942064D01*
X5775793Y-18942064D02*
X5775793Y-18742064D01*
X5775793Y-18770636D02*
X5790078Y-18756350D01*
X5818650Y-18742064D01*
X5861507Y-18742064D01*
X5890078Y-18756350D01*
X5904364Y-18784922D01*
X5904364Y-18942064D01*
X5904364Y-18784922D02*
X5918650Y-18756350D01*
X5947221Y-18742064D01*
X5990078Y-18742064D01*
X6018650Y-18756350D01*
X6032936Y-18784922D01*
X6032936Y-18942064D01*
X6618650Y-18627779D02*
X6361507Y-19013493D01*
X7004364Y-18642064D02*
X7032936Y-18642064D01*
X7061507Y-18656350D01*
X7075793Y-18670636D01*
X7090078Y-18699207D01*
X7104364Y-18756350D01*
X7104364Y-18827779D01*
X7090078Y-18884922D01*
X7075793Y-18913493D01*
X7061507Y-18927779D01*
X7032936Y-18942064D01*
X7004364Y-18942064D01*
X6975793Y-18927779D01*
X6961507Y-18913493D01*
X6947221Y-18884922D01*
X6932936Y-18827779D01*
X6932936Y-18756350D01*
X6947221Y-18699207D01*
X6961507Y-18670636D01*
X6975793Y-18656350D01*
X7004364Y-18642064D01*
X7232936Y-18913493D02*
X7247221Y-18927779D01*
X7232936Y-18942064D01*
X7218650Y-18927779D01*
X7232936Y-18913493D01*
X7232936Y-18942064D01*
X7432936Y-18642064D02*
X7461507Y-18642064D01*
X7490078Y-18656350D01*
X7504364Y-18670636D01*
X7518650Y-18699207D01*
X7532936Y-18756350D01*
X7532936Y-18827779D01*
X7518650Y-18884922D01*
X7504364Y-18913493D01*
X7490078Y-18927779D01*
X7461507Y-18942064D01*
X7432936Y-18942064D01*
X7404364Y-18927779D01*
X7390078Y-18913493D01*
X7375793Y-18884922D01*
X7361507Y-18827779D01*
X7361507Y-18756350D01*
X7375793Y-18699207D01*
X7390078Y-18670636D01*
X7404364Y-18656350D01*
X7432936Y-18642064D01*
X7790078Y-18642064D02*
X7732936Y-18642064D01*
X7704364Y-18656350D01*
X7690078Y-18670636D01*
X7661507Y-18713493D01*
X7647221Y-18770636D01*
X7647221Y-18884922D01*
X7661507Y-18913493D01*
X7675793Y-18927779D01*
X7704364Y-18942064D01*
X7761507Y-18942064D01*
X7790078Y-18927779D01*
X7804364Y-18913493D01*
X7818650Y-18884922D01*
X7818650Y-18813493D01*
X7804364Y-18784922D01*
X7790078Y-18770636D01*
X7761507Y-18756350D01*
X7704364Y-18756350D01*
X7675793Y-18770636D01*
X7661507Y-18784922D01*
X7647221Y-18813493D01*
X8075793Y-18642064D02*
X8018650Y-18642064D01*
X7990078Y-18656350D01*
X7975793Y-18670636D01*
X7947221Y-18713493D01*
X7932936Y-18770636D01*
X7932936Y-18884922D01*
X7947221Y-18913493D01*
X7961507Y-18927779D01*
X7990078Y-18942064D01*
X8047221Y-18942064D01*
X8075793Y-18927779D01*
X8090078Y-18913493D01*
X8104364Y-18884922D01*
X8104364Y-18813493D01*
X8090078Y-18784922D01*
X8075793Y-18770636D01*
X8047221Y-18756350D01*
X7990078Y-18756350D01*
X7961507Y-18770636D01*
X7947221Y-18784922D01*
X7932936Y-18813493D01*
X8247221Y-18942064D02*
X8304364Y-18942064D01*
X8332936Y-18927779D01*
X8347221Y-18913493D01*
X8375793Y-18870636D01*
X8390078Y-18813493D01*
X8390078Y-18699207D01*
X8375793Y-18670636D01*
X8361507Y-18656350D01*
X8332936Y-18642064D01*
X8275793Y-18642064D01*
X8247221Y-18656350D01*
X8232936Y-18670636D01*
X8218650Y-18699207D01*
X8218650Y-18770636D01*
X8232936Y-18799207D01*
X8247221Y-18813493D01*
X8275793Y-18827779D01*
X8332936Y-18827779D01*
X8361507Y-18813493D01*
X8375793Y-18799207D01*
X8390078Y-18770636D01*
X8504364Y-18642064D02*
X8504364Y-18699207D01*
X8618650Y-18642064D02*
X8618650Y-18699207D01*
X9061507Y-19056350D02*
X9047221Y-19042064D01*
X9018650Y-18999207D01*
X9004364Y-18970636D01*
X8990078Y-18927779D01*
X8975793Y-18856350D01*
X8975793Y-18799207D01*
X8990078Y-18727779D01*
X9004364Y-18684922D01*
X9018650Y-18656350D01*
X9047221Y-18613493D01*
X9061507Y-18599207D01*
X9161507Y-18670636D02*
X9175793Y-18656350D01*
X9204364Y-18642064D01*
X9275793Y-18642064D01*
X9304364Y-18656350D01*
X9318650Y-18670636D01*
X9332936Y-18699207D01*
X9332936Y-18727779D01*
X9318650Y-18770636D01*
X9147221Y-18942064D01*
X9332936Y-18942064D01*
X9690078Y-18942064D02*
X9690078Y-18642064D01*
X9818650Y-18942064D02*
X9818650Y-18784922D01*
X9804364Y-18756350D01*
X9775793Y-18742064D01*
X9732936Y-18742064D01*
X9704364Y-18756350D01*
X9690078Y-18770636D01*
X10004364Y-18942064D02*
X9975793Y-18927779D01*
X9961507Y-18913493D01*
X9947221Y-18884922D01*
X9947221Y-18799207D01*
X9961507Y-18770636D01*
X9975793Y-18756350D01*
X10004364Y-18742064D01*
X10047221Y-18742064D01*
X10075793Y-18756350D01*
X10090078Y-18770636D01*
X10104364Y-18799207D01*
X10104364Y-18884922D01*
X10090078Y-18913493D01*
X10075793Y-18927779D01*
X10047221Y-18942064D01*
X10004364Y-18942064D01*
X10275793Y-18942064D02*
X10247221Y-18927779D01*
X10232936Y-18899207D01*
X10232936Y-18642064D01*
X10504364Y-18927779D02*
X10475793Y-18942064D01*
X10418650Y-18942064D01*
X10390078Y-18927779D01*
X10375793Y-18899207D01*
X10375793Y-18784922D01*
X10390078Y-18756350D01*
X10418650Y-18742064D01*
X10475793Y-18742064D01*
X10504364Y-18756350D01*
X10518650Y-18784922D01*
X10518650Y-18813493D01*
X10375793Y-18842064D01*
X10632936Y-18927779D02*
X10661507Y-18942064D01*
X10718650Y-18942064D01*
X10747221Y-18927779D01*
X10761507Y-18899207D01*
X10761507Y-18884922D01*
X10747221Y-18856350D01*
X10718650Y-18842064D01*
X10675793Y-18842064D01*
X10647221Y-18827779D01*
X10632936Y-18799207D01*
X10632936Y-18784922D01*
X10647221Y-18756350D01*
X10675793Y-18742064D01*
X10718650Y-18742064D01*
X10747221Y-18756350D01*
X10861507Y-19056350D02*
X10875793Y-19042064D01*
X10904364Y-18999207D01*
X10918650Y-18970636D01*
X10932936Y-18927779D01*
X10947221Y-18856350D01*
X10947221Y-18799207D01*
X10932936Y-18727779D01*
X10918650Y-18684922D01*
X10904364Y-18656350D01*
X10875793Y-18613493D01*
X10861507Y-18599207D01*
X3603650Y-19102350D02*
X3803650Y-19302350D01*
X3803650Y-19102350D02*
X3603650Y-19302350D01*
X3803650Y-19202350D02*
G75*
G03*
X3803650Y-19202350I-100000J0D01*
G01*
X4075793Y-19066636D02*
X4090078Y-19052350D01*
X4118650Y-19038064D01*
X4190078Y-19038064D01*
X4218650Y-19052350D01*
X4232936Y-19066636D01*
X4247221Y-19095207D01*
X4247221Y-19123779D01*
X4232936Y-19166636D01*
X4061507Y-19338064D01*
X4247221Y-19338064D01*
X4375793Y-19309493D02*
X4390078Y-19323779D01*
X4375793Y-19338064D01*
X4361507Y-19323779D01*
X4375793Y-19309493D01*
X4375793Y-19338064D01*
X4575793Y-19038064D02*
X4604364Y-19038064D01*
X4632936Y-19052350D01*
X4647221Y-19066636D01*
X4661507Y-19095207D01*
X4675793Y-19152350D01*
X4675793Y-19223779D01*
X4661507Y-19280922D01*
X4647221Y-19309493D01*
X4632936Y-19323779D01*
X4604364Y-19338064D01*
X4575793Y-19338064D01*
X4547221Y-19323779D01*
X4532936Y-19309493D01*
X4518650Y-19280922D01*
X4504364Y-19223779D01*
X4504364Y-19152350D01*
X4518650Y-19095207D01*
X4532936Y-19066636D01*
X4547221Y-19052350D01*
X4575793Y-19038064D01*
X4861507Y-19038064D02*
X4890078Y-19038064D01*
X4918650Y-19052350D01*
X4932936Y-19066636D01*
X4947221Y-19095207D01*
X4961507Y-19152350D01*
X4961507Y-19223779D01*
X4947221Y-19280922D01*
X4932936Y-19309493D01*
X4918650Y-19323779D01*
X4890078Y-19338064D01*
X4861507Y-19338064D01*
X4832936Y-19323779D01*
X4818650Y-19309493D01*
X4804364Y-19280922D01*
X4790078Y-19223779D01*
X4790078Y-19152350D01*
X4804364Y-19095207D01*
X4818650Y-19066636D01*
X4832936Y-19052350D01*
X4861507Y-19038064D01*
X5147221Y-19038064D02*
X5175793Y-19038064D01*
X5204364Y-19052350D01*
X5218650Y-19066636D01*
X5232936Y-19095207D01*
X5247221Y-19152350D01*
X5247221Y-19223779D01*
X5232936Y-19280922D01*
X5218650Y-19309493D01*
X5204364Y-19323779D01*
X5175793Y-19338064D01*
X5147221Y-19338064D01*
X5118650Y-19323779D01*
X5104364Y-19309493D01*
X5090078Y-19280922D01*
X5075793Y-19223779D01*
X5075793Y-19152350D01*
X5090078Y-19095207D01*
X5104364Y-19066636D01*
X5118650Y-19052350D01*
X5147221Y-19038064D01*
X5375793Y-19338064D02*
X5375793Y-19138064D01*
X5375793Y-19166636D02*
X5390078Y-19152350D01*
X5418650Y-19138064D01*
X5461507Y-19138064D01*
X5490078Y-19152350D01*
X5504364Y-19180922D01*
X5504364Y-19338064D01*
X5504364Y-19180922D02*
X5518650Y-19152350D01*
X5547221Y-19138064D01*
X5590078Y-19138064D01*
X5618650Y-19152350D01*
X5632936Y-19180922D01*
X5632936Y-19338064D01*
X5775793Y-19338064D02*
X5775793Y-19138064D01*
X5775793Y-19166636D02*
X5790078Y-19152350D01*
X5818650Y-19138064D01*
X5861507Y-19138064D01*
X5890078Y-19152350D01*
X5904364Y-19180922D01*
X5904364Y-19338064D01*
X5904364Y-19180922D02*
X5918650Y-19152350D01*
X5947221Y-19138064D01*
X5990078Y-19138064D01*
X6018650Y-19152350D01*
X6032936Y-19180922D01*
X6032936Y-19338064D01*
X6618650Y-19023779D02*
X6361507Y-19409493D01*
X7004364Y-19038064D02*
X7032936Y-19038064D01*
X7061507Y-19052350D01*
X7075793Y-19066636D01*
X7090078Y-19095207D01*
X7104364Y-19152350D01*
X7104364Y-19223779D01*
X7090078Y-19280922D01*
X7075793Y-19309493D01*
X7061507Y-19323779D01*
X7032936Y-19338064D01*
X7004364Y-19338064D01*
X6975793Y-19323779D01*
X6961507Y-19309493D01*
X6947221Y-19280922D01*
X6932936Y-19223779D01*
X6932936Y-19152350D01*
X6947221Y-19095207D01*
X6961507Y-19066636D01*
X6975793Y-19052350D01*
X7004364Y-19038064D01*
X7232936Y-19309493D02*
X7247221Y-19323779D01*
X7232936Y-19338064D01*
X7218650Y-19323779D01*
X7232936Y-19309493D01*
X7232936Y-19338064D01*
X7432936Y-19038064D02*
X7461507Y-19038064D01*
X7490078Y-19052350D01*
X7504364Y-19066636D01*
X7518650Y-19095207D01*
X7532936Y-19152350D01*
X7532936Y-19223779D01*
X7518650Y-19280922D01*
X7504364Y-19309493D01*
X7490078Y-19323779D01*
X7461507Y-19338064D01*
X7432936Y-19338064D01*
X7404364Y-19323779D01*
X7390078Y-19309493D01*
X7375793Y-19280922D01*
X7361507Y-19223779D01*
X7361507Y-19152350D01*
X7375793Y-19095207D01*
X7390078Y-19066636D01*
X7404364Y-19052350D01*
X7432936Y-19038064D01*
X7632936Y-19038064D02*
X7832936Y-19038064D01*
X7704364Y-19338064D01*
X7990078Y-19166636D02*
X7961507Y-19152350D01*
X7947221Y-19138064D01*
X7932936Y-19109493D01*
X7932936Y-19095207D01*
X7947221Y-19066636D01*
X7961507Y-19052350D01*
X7990078Y-19038064D01*
X8047221Y-19038064D01*
X8075793Y-19052350D01*
X8090078Y-19066636D01*
X8104364Y-19095207D01*
X8104364Y-19109493D01*
X8090078Y-19138064D01*
X8075793Y-19152350D01*
X8047221Y-19166636D01*
X7990078Y-19166636D01*
X7961507Y-19180922D01*
X7947221Y-19195207D01*
X7932936Y-19223779D01*
X7932936Y-19280922D01*
X7947221Y-19309493D01*
X7961507Y-19323779D01*
X7990078Y-19338064D01*
X8047221Y-19338064D01*
X8075793Y-19323779D01*
X8090078Y-19309493D01*
X8104364Y-19280922D01*
X8104364Y-19223779D01*
X8090078Y-19195207D01*
X8075793Y-19180922D01*
X8047221Y-19166636D01*
X8204364Y-19038064D02*
X8404364Y-19038064D01*
X8275793Y-19338064D01*
X8504364Y-19038064D02*
X8504364Y-19095207D01*
X8618650Y-19038064D02*
X8618650Y-19095207D01*
X9061507Y-19452350D02*
X9047221Y-19438064D01*
X9018650Y-19395207D01*
X9004364Y-19366636D01*
X8990078Y-19323779D01*
X8975793Y-19252350D01*
X8975793Y-19195207D01*
X8990078Y-19123779D01*
X9004364Y-19080922D01*
X9018650Y-19052350D01*
X9047221Y-19009493D01*
X9061507Y-18995207D01*
X9147221Y-19038064D02*
X9332936Y-19038064D01*
X9232936Y-19152350D01*
X9275793Y-19152350D01*
X9304364Y-19166636D01*
X9318650Y-19180922D01*
X9332936Y-19209493D01*
X9332936Y-19280922D01*
X9318650Y-19309493D01*
X9304364Y-19323779D01*
X9275793Y-19338064D01*
X9190078Y-19338064D01*
X9161507Y-19323779D01*
X9147221Y-19309493D01*
X9690078Y-19338064D02*
X9690078Y-19038064D01*
X9818650Y-19338064D02*
X9818650Y-19180922D01*
X9804364Y-19152350D01*
X9775793Y-19138064D01*
X9732936Y-19138064D01*
X9704364Y-19152350D01*
X9690078Y-19166636D01*
X10004364Y-19338064D02*
X9975793Y-19323779D01*
X9961507Y-19309493D01*
X9947221Y-19280922D01*
X9947221Y-19195207D01*
X9961507Y-19166636D01*
X9975793Y-19152350D01*
X10004364Y-19138064D01*
X10047221Y-19138064D01*
X10075793Y-19152350D01*
X10090078Y-19166636D01*
X10104364Y-19195207D01*
X10104364Y-19280922D01*
X10090078Y-19309493D01*
X10075793Y-19323779D01*
X10047221Y-19338064D01*
X10004364Y-19338064D01*
X10275793Y-19338064D02*
X10247221Y-19323779D01*
X10232936Y-19295207D01*
X10232936Y-19038064D01*
X10504364Y-19323779D02*
X10475793Y-19338064D01*
X10418650Y-19338064D01*
X10390078Y-19323779D01*
X10375793Y-19295207D01*
X10375793Y-19180922D01*
X10390078Y-19152350D01*
X10418650Y-19138064D01*
X10475793Y-19138064D01*
X10504364Y-19152350D01*
X10518650Y-19180922D01*
X10518650Y-19209493D01*
X10375793Y-19238064D01*
X10632936Y-19323779D02*
X10661507Y-19338064D01*
X10718650Y-19338064D01*
X10747221Y-19323779D01*
X10761507Y-19295207D01*
X10761507Y-19280922D01*
X10747221Y-19252350D01*
X10718650Y-19238064D01*
X10675793Y-19238064D01*
X10647221Y-19223779D01*
X10632936Y-19195207D01*
X10632936Y-19180922D01*
X10647221Y-19152350D01*
X10675793Y-19138064D01*
X10718650Y-19138064D01*
X10747221Y-19152350D01*
X10861507Y-19452350D02*
X10875793Y-19438064D01*
X10904364Y-19395207D01*
X10918650Y-19366636D01*
X10932936Y-19323779D01*
X10947221Y-19252350D01*
X10947221Y-19195207D01*
X10932936Y-19123779D01*
X10918650Y-19080922D01*
X10904364Y-19052350D01*
X10875793Y-19009493D01*
X10861507Y-18995207D01*
X3473450Y-19433250D02*
X3803650Y-19763450D01*
X3803650Y-19433250D02*
X3473450Y-19763450D01*
X3638550Y-19433250D02*
X3638550Y-19763450D01*
X3473450Y-19598350D02*
X3803650Y-19598350D01*
X4061507Y-19434064D02*
X4247221Y-19434064D01*
X4147221Y-19548350D01*
X4190078Y-19548350D01*
X4218650Y-19562636D01*
X4232936Y-19576922D01*
X4247221Y-19605493D01*
X4247221Y-19676922D01*
X4232936Y-19705493D01*
X4218650Y-19719779D01*
X4190078Y-19734064D01*
X4104364Y-19734064D01*
X4075793Y-19719779D01*
X4061507Y-19705493D01*
X4375793Y-19705493D02*
X4390078Y-19719779D01*
X4375793Y-19734064D01*
X4361507Y-19719779D01*
X4375793Y-19705493D01*
X4375793Y-19734064D01*
X4490078Y-19434064D02*
X4675793Y-19434064D01*
X4575793Y-19548350D01*
X4618650Y-19548350D01*
X4647221Y-19562636D01*
X4661507Y-19576922D01*
X4675793Y-19605493D01*
X4675793Y-19676922D01*
X4661507Y-19705493D01*
X4647221Y-19719779D01*
X4618650Y-19734064D01*
X4532936Y-19734064D01*
X4504364Y-19719779D01*
X4490078Y-19705493D01*
X4861507Y-19434064D02*
X4890078Y-19434064D01*
X4918650Y-19448350D01*
X4932936Y-19462636D01*
X4947221Y-19491207D01*
X4961507Y-19548350D01*
X4961507Y-19619779D01*
X4947221Y-19676922D01*
X4932936Y-19705493D01*
X4918650Y-19719779D01*
X4890078Y-19734064D01*
X4861507Y-19734064D01*
X4832936Y-19719779D01*
X4818650Y-19705493D01*
X4804364Y-19676922D01*
X4790078Y-19619779D01*
X4790078Y-19548350D01*
X4804364Y-19491207D01*
X4818650Y-19462636D01*
X4832936Y-19448350D01*
X4861507Y-19434064D01*
X5075793Y-19462636D02*
X5090078Y-19448350D01*
X5118650Y-19434064D01*
X5190078Y-19434064D01*
X5218650Y-19448350D01*
X5232936Y-19462636D01*
X5247221Y-19491207D01*
X5247221Y-19519779D01*
X5232936Y-19562636D01*
X5061507Y-19734064D01*
X5247221Y-19734064D01*
X5375793Y-19734064D02*
X5375793Y-19534064D01*
X5375793Y-19562636D02*
X5390078Y-19548350D01*
X5418650Y-19534064D01*
X5461507Y-19534064D01*
X5490078Y-19548350D01*
X5504364Y-19576922D01*
X5504364Y-19734064D01*
X5504364Y-19576922D02*
X5518650Y-19548350D01*
X5547221Y-19534064D01*
X5590078Y-19534064D01*
X5618650Y-19548350D01*
X5632936Y-19576922D01*
X5632936Y-19734064D01*
X5775793Y-19734064D02*
X5775793Y-19534064D01*
X5775793Y-19562636D02*
X5790078Y-19548350D01*
X5818650Y-19534064D01*
X5861507Y-19534064D01*
X5890078Y-19548350D01*
X5904364Y-19576922D01*
X5904364Y-19734064D01*
X5904364Y-19576922D02*
X5918650Y-19548350D01*
X5947221Y-19534064D01*
X5990078Y-19534064D01*
X6018650Y-19548350D01*
X6032936Y-19576922D01*
X6032936Y-19734064D01*
X6618650Y-19419779D02*
X6361507Y-19805493D01*
X7004364Y-19434064D02*
X7032936Y-19434064D01*
X7061507Y-19448350D01*
X7075793Y-19462636D01*
X7090078Y-19491207D01*
X7104364Y-19548350D01*
X7104364Y-19619779D01*
X7090078Y-19676922D01*
X7075793Y-19705493D01*
X7061507Y-19719779D01*
X7032936Y-19734064D01*
X7004364Y-19734064D01*
X6975793Y-19719779D01*
X6961507Y-19705493D01*
X6947221Y-19676922D01*
X6932936Y-19619779D01*
X6932936Y-19548350D01*
X6947221Y-19491207D01*
X6961507Y-19462636D01*
X6975793Y-19448350D01*
X7004364Y-19434064D01*
X7232936Y-19705493D02*
X7247221Y-19719779D01*
X7232936Y-19734064D01*
X7218650Y-19719779D01*
X7232936Y-19705493D01*
X7232936Y-19734064D01*
X7532936Y-19734064D02*
X7361507Y-19734064D01*
X7447221Y-19734064D02*
X7447221Y-19434064D01*
X7418650Y-19476922D01*
X7390078Y-19505493D01*
X7361507Y-19519779D01*
X7632936Y-19434064D02*
X7818650Y-19434064D01*
X7718650Y-19548350D01*
X7761507Y-19548350D01*
X7790078Y-19562636D01*
X7804364Y-19576922D01*
X7818650Y-19605493D01*
X7818650Y-19676922D01*
X7804364Y-19705493D01*
X7790078Y-19719779D01*
X7761507Y-19734064D01*
X7675793Y-19734064D01*
X7647221Y-19719779D01*
X7632936Y-19705493D01*
X8004364Y-19434064D02*
X8032936Y-19434064D01*
X8061507Y-19448350D01*
X8075793Y-19462636D01*
X8090078Y-19491207D01*
X8104364Y-19548350D01*
X8104364Y-19619779D01*
X8090078Y-19676922D01*
X8075793Y-19705493D01*
X8061507Y-19719779D01*
X8032936Y-19734064D01*
X8004364Y-19734064D01*
X7975793Y-19719779D01*
X7961507Y-19705493D01*
X7947221Y-19676922D01*
X7932936Y-19619779D01*
X7932936Y-19548350D01*
X7947221Y-19491207D01*
X7961507Y-19462636D01*
X7975793Y-19448350D01*
X8004364Y-19434064D01*
X8290078Y-19434064D02*
X8318650Y-19434064D01*
X8347221Y-19448350D01*
X8361507Y-19462636D01*
X8375793Y-19491207D01*
X8390078Y-19548350D01*
X8390078Y-19619779D01*
X8375793Y-19676922D01*
X8361507Y-19705493D01*
X8347221Y-19719779D01*
X8318650Y-19734064D01*
X8290078Y-19734064D01*
X8261507Y-19719779D01*
X8247221Y-19705493D01*
X8232936Y-19676922D01*
X8218650Y-19619779D01*
X8218650Y-19548350D01*
X8232936Y-19491207D01*
X8247221Y-19462636D01*
X8261507Y-19448350D01*
X8290078Y-19434064D01*
X8504364Y-19434064D02*
X8504364Y-19491207D01*
X8618650Y-19434064D02*
X8618650Y-19491207D01*
X9061507Y-19848350D02*
X9047221Y-19834064D01*
X9018650Y-19791207D01*
X9004364Y-19762636D01*
X8990078Y-19719779D01*
X8975793Y-19648350D01*
X8975793Y-19591207D01*
X8990078Y-19519779D01*
X9004364Y-19476922D01*
X9018650Y-19448350D01*
X9047221Y-19405493D01*
X9061507Y-19391207D01*
X9304364Y-19434064D02*
X9247221Y-19434064D01*
X9218650Y-19448350D01*
X9204364Y-19462636D01*
X9175793Y-19505493D01*
X9161507Y-19562636D01*
X9161507Y-19676922D01*
X9175793Y-19705493D01*
X9190078Y-19719779D01*
X9218650Y-19734064D01*
X9275793Y-19734064D01*
X9304364Y-19719779D01*
X9318650Y-19705493D01*
X9332936Y-19676922D01*
X9332936Y-19605493D01*
X9318650Y-19576922D01*
X9304364Y-19562636D01*
X9275793Y-19548350D01*
X9218650Y-19548350D01*
X9190078Y-19562636D01*
X9175793Y-19576922D01*
X9161507Y-19605493D01*
X9447221Y-19462636D02*
X9461507Y-19448350D01*
X9490078Y-19434064D01*
X9561507Y-19434064D01*
X9590078Y-19448350D01*
X9604364Y-19462636D01*
X9618650Y-19491207D01*
X9618650Y-19519779D01*
X9604364Y-19562636D01*
X9432936Y-19734064D01*
X9618650Y-19734064D01*
X9975793Y-19734064D02*
X9975793Y-19434064D01*
X10104364Y-19734064D02*
X10104364Y-19576922D01*
X10090078Y-19548350D01*
X10061507Y-19534064D01*
X10018650Y-19534064D01*
X9990078Y-19548350D01*
X9975793Y-19562636D01*
X10290078Y-19734064D02*
X10261507Y-19719779D01*
X10247221Y-19705493D01*
X10232936Y-19676922D01*
X10232936Y-19591207D01*
X10247221Y-19562636D01*
X10261507Y-19548350D01*
X10290078Y-19534064D01*
X10332936Y-19534064D01*
X10361507Y-19548350D01*
X10375793Y-19562636D01*
X10390078Y-19591207D01*
X10390078Y-19676922D01*
X10375793Y-19705493D01*
X10361507Y-19719779D01*
X10332936Y-19734064D01*
X10290078Y-19734064D01*
X10561507Y-19734064D02*
X10532936Y-19719779D01*
X10518650Y-19691207D01*
X10518650Y-19434064D01*
X10790078Y-19719779D02*
X10761507Y-19734064D01*
X10704364Y-19734064D01*
X10675793Y-19719779D01*
X10661507Y-19691207D01*
X10661507Y-19576922D01*
X10675793Y-19548350D01*
X10704364Y-19534064D01*
X10761507Y-19534064D01*
X10790078Y-19548350D01*
X10804364Y-19576922D01*
X10804364Y-19605493D01*
X10661507Y-19634064D01*
X10918650Y-19719779D02*
X10947221Y-19734064D01*
X11004364Y-19734064D01*
X11032936Y-19719779D01*
X11047221Y-19691207D01*
X11047221Y-19676922D01*
X11032936Y-19648350D01*
X11004364Y-19634064D01*
X10961507Y-19634064D01*
X10932936Y-19619779D01*
X10918650Y-19591207D01*
X10918650Y-19576922D01*
X10932936Y-19548350D01*
X10961507Y-19534064D01*
X11004364Y-19534064D01*
X11032936Y-19548350D01*
X11147221Y-19848350D02*
X11161507Y-19834064D01*
X11190078Y-19791207D01*
X11204364Y-19762636D01*
X11218650Y-19719779D01*
X11232936Y-19648350D01*
X11232936Y-19591207D01*
X11218650Y-19519779D01*
X11204364Y-19476922D01*
X11190078Y-19448350D01*
X11161507Y-19405493D01*
X11147221Y-19391207D01*
X3383650Y-19848550D02*
X3803650Y-20268550D01*
X3803650Y-19848550D02*
X3383650Y-20268550D01*
X3742144Y-20207044D02*
X3742144Y-19910056D01*
X3445156Y-19910056D01*
X3445156Y-20207044D01*
X3742144Y-20207044D01*
X4218650Y-19994264D02*
X4218650Y-20194264D01*
X4147221Y-19879979D02*
X4075793Y-20094264D01*
X4261507Y-20094264D01*
X4375793Y-20165693D02*
X4390078Y-20179979D01*
X4375793Y-20194264D01*
X4361507Y-20179979D01*
X4375793Y-20165693D01*
X4375793Y-20194264D01*
X4504364Y-19922836D02*
X4518650Y-19908550D01*
X4547221Y-19894264D01*
X4618650Y-19894264D01*
X4647221Y-19908550D01*
X4661507Y-19922836D01*
X4675793Y-19951407D01*
X4675793Y-19979979D01*
X4661507Y-20022836D01*
X4490078Y-20194264D01*
X4675793Y-20194264D01*
X4861507Y-19894264D02*
X4890078Y-19894264D01*
X4918650Y-19908550D01*
X4932936Y-19922836D01*
X4947221Y-19951407D01*
X4961507Y-20008550D01*
X4961507Y-20079979D01*
X4947221Y-20137122D01*
X4932936Y-20165693D01*
X4918650Y-20179979D01*
X4890078Y-20194264D01*
X4861507Y-20194264D01*
X4832936Y-20179979D01*
X4818650Y-20165693D01*
X4804364Y-20137122D01*
X4790078Y-20079979D01*
X4790078Y-20008550D01*
X4804364Y-19951407D01*
X4818650Y-19922836D01*
X4832936Y-19908550D01*
X4861507Y-19894264D01*
X5147221Y-19894264D02*
X5175793Y-19894264D01*
X5204364Y-19908550D01*
X5218650Y-19922836D01*
X5232936Y-19951407D01*
X5247221Y-20008550D01*
X5247221Y-20079979D01*
X5232936Y-20137122D01*
X5218650Y-20165693D01*
X5204364Y-20179979D01*
X5175793Y-20194264D01*
X5147221Y-20194264D01*
X5118650Y-20179979D01*
X5104364Y-20165693D01*
X5090078Y-20137122D01*
X5075793Y-20079979D01*
X5075793Y-20008550D01*
X5090078Y-19951407D01*
X5104364Y-19922836D01*
X5118650Y-19908550D01*
X5147221Y-19894264D01*
X5375793Y-20194264D02*
X5375793Y-19994264D01*
X5375793Y-20022836D02*
X5390078Y-20008550D01*
X5418650Y-19994264D01*
X5461507Y-19994264D01*
X5490078Y-20008550D01*
X5504364Y-20037122D01*
X5504364Y-20194264D01*
X5504364Y-20037122D02*
X5518650Y-20008550D01*
X5547221Y-19994264D01*
X5590078Y-19994264D01*
X5618650Y-20008550D01*
X5632936Y-20037122D01*
X5632936Y-20194264D01*
X5775793Y-20194264D02*
X5775793Y-19994264D01*
X5775793Y-20022836D02*
X5790078Y-20008550D01*
X5818650Y-19994264D01*
X5861507Y-19994264D01*
X5890078Y-20008550D01*
X5904364Y-20037122D01*
X5904364Y-20194264D01*
X5904364Y-20037122D02*
X5918650Y-20008550D01*
X5947221Y-19994264D01*
X5990078Y-19994264D01*
X6018650Y-20008550D01*
X6032936Y-20037122D01*
X6032936Y-20194264D01*
X6618650Y-19879979D02*
X6361507Y-20265693D01*
X7004364Y-19894264D02*
X7032936Y-19894264D01*
X7061507Y-19908550D01*
X7075793Y-19922836D01*
X7090078Y-19951407D01*
X7104364Y-20008550D01*
X7104364Y-20079979D01*
X7090078Y-20137122D01*
X7075793Y-20165693D01*
X7061507Y-20179979D01*
X7032936Y-20194264D01*
X7004364Y-20194264D01*
X6975793Y-20179979D01*
X6961507Y-20165693D01*
X6947221Y-20137122D01*
X6932936Y-20079979D01*
X6932936Y-20008550D01*
X6947221Y-19951407D01*
X6961507Y-19922836D01*
X6975793Y-19908550D01*
X7004364Y-19894264D01*
X7232936Y-20165693D02*
X7247221Y-20179979D01*
X7232936Y-20194264D01*
X7218650Y-20179979D01*
X7232936Y-20165693D01*
X7232936Y-20194264D01*
X7532936Y-20194264D02*
X7361507Y-20194264D01*
X7447221Y-20194264D02*
X7447221Y-19894264D01*
X7418650Y-19937122D01*
X7390078Y-19965693D01*
X7361507Y-19979979D01*
X7790078Y-19894264D02*
X7732936Y-19894264D01*
X7704364Y-19908550D01*
X7690078Y-19922836D01*
X7661507Y-19965693D01*
X7647221Y-20022836D01*
X7647221Y-20137122D01*
X7661507Y-20165693D01*
X7675793Y-20179979D01*
X7704364Y-20194264D01*
X7761507Y-20194264D01*
X7790078Y-20179979D01*
X7804364Y-20165693D01*
X7818650Y-20137122D01*
X7818650Y-20065693D01*
X7804364Y-20037122D01*
X7790078Y-20022836D01*
X7761507Y-20008550D01*
X7704364Y-20008550D01*
X7675793Y-20022836D01*
X7661507Y-20037122D01*
X7647221Y-20065693D01*
X8090078Y-19894264D02*
X7947221Y-19894264D01*
X7932936Y-20037122D01*
X7947221Y-20022836D01*
X7975793Y-20008550D01*
X8047221Y-20008550D01*
X8075793Y-20022836D01*
X8090078Y-20037122D01*
X8104364Y-20065693D01*
X8104364Y-20137122D01*
X8090078Y-20165693D01*
X8075793Y-20179979D01*
X8047221Y-20194264D01*
X7975793Y-20194264D01*
X7947221Y-20179979D01*
X7932936Y-20165693D01*
X8361507Y-19994264D02*
X8361507Y-20194264D01*
X8290078Y-19879979D02*
X8218650Y-20094264D01*
X8404364Y-20094264D01*
X8504364Y-19894264D02*
X8504364Y-19951407D01*
X8618650Y-19894264D02*
X8618650Y-19951407D01*
X9061507Y-20308550D02*
X9047221Y-20294264D01*
X9018650Y-20251407D01*
X9004364Y-20222836D01*
X8990078Y-20179979D01*
X8975793Y-20108550D01*
X8975793Y-20051407D01*
X8990078Y-19979979D01*
X9004364Y-19937122D01*
X9018650Y-19908550D01*
X9047221Y-19865693D01*
X9061507Y-19851407D01*
X9332936Y-20194264D02*
X9161507Y-20194264D01*
X9247221Y-20194264D02*
X9247221Y-19894264D01*
X9218650Y-19937122D01*
X9190078Y-19965693D01*
X9161507Y-19979979D01*
X9690078Y-20194264D02*
X9690078Y-19894264D01*
X9818650Y-20194264D02*
X9818650Y-20037122D01*
X9804364Y-20008550D01*
X9775793Y-19994264D01*
X9732936Y-19994264D01*
X9704364Y-20008550D01*
X9690078Y-20022836D01*
X10004364Y-20194264D02*
X9975793Y-20179979D01*
X9961507Y-20165693D01*
X9947221Y-20137122D01*
X9947221Y-20051407D01*
X9961507Y-20022836D01*
X9975793Y-20008550D01*
X10004364Y-19994264D01*
X10047221Y-19994264D01*
X10075793Y-20008550D01*
X10090078Y-20022836D01*
X10104364Y-20051407D01*
X10104364Y-20137122D01*
X10090078Y-20165693D01*
X10075793Y-20179979D01*
X10047221Y-20194264D01*
X10004364Y-20194264D01*
X10275793Y-20194264D02*
X10247221Y-20179979D01*
X10232936Y-20151407D01*
X10232936Y-19894264D01*
X10504364Y-20179979D02*
X10475793Y-20194264D01*
X10418650Y-20194264D01*
X10390078Y-20179979D01*
X10375793Y-20151407D01*
X10375793Y-20037122D01*
X10390078Y-20008550D01*
X10418650Y-19994264D01*
X10475793Y-19994264D01*
X10504364Y-20008550D01*
X10518650Y-20037122D01*
X10518650Y-20065693D01*
X10375793Y-20094264D01*
X10618650Y-20308550D02*
X10632936Y-20294264D01*
X10661507Y-20251407D01*
X10675793Y-20222836D01*
X10690078Y-20179979D01*
X10704364Y-20108550D01*
X10704364Y-20051407D01*
X10690078Y-19979979D01*
X10675793Y-19937122D01*
X10661507Y-19908550D01*
X10632936Y-19865693D01*
X10618650Y-19851407D01*
X3379470Y-20396460D02*
X3803650Y-20820640D01*
X3803650Y-20396460D02*
X3379470Y-20820640D01*
X3591560Y-20820640D02*
X3803650Y-20608550D01*
X3591560Y-20396460D01*
X3379470Y-20608550D01*
X3591560Y-20820640D01*
X4218650Y-20544264D02*
X4218650Y-20744264D01*
X4147221Y-20429979D02*
X4075793Y-20644264D01*
X4261507Y-20644264D01*
X4375793Y-20715693D02*
X4390078Y-20729979D01*
X4375793Y-20744264D01*
X4361507Y-20729979D01*
X4375793Y-20715693D01*
X4375793Y-20744264D01*
X4504364Y-20472836D02*
X4518650Y-20458550D01*
X4547221Y-20444264D01*
X4618650Y-20444264D01*
X4647221Y-20458550D01*
X4661507Y-20472836D01*
X4675793Y-20501407D01*
X4675793Y-20529979D01*
X4661507Y-20572836D01*
X4490078Y-20744264D01*
X4675793Y-20744264D01*
X4932936Y-20544264D02*
X4932936Y-20744264D01*
X4861507Y-20429979D02*
X4790078Y-20644264D01*
X4975793Y-20644264D01*
X5075793Y-20472836D02*
X5090078Y-20458550D01*
X5118650Y-20444264D01*
X5190078Y-20444264D01*
X5218650Y-20458550D01*
X5232936Y-20472836D01*
X5247221Y-20501407D01*
X5247221Y-20529979D01*
X5232936Y-20572836D01*
X5061507Y-20744264D01*
X5247221Y-20744264D01*
X5375793Y-20744264D02*
X5375793Y-20544264D01*
X5375793Y-20572836D02*
X5390078Y-20558550D01*
X5418650Y-20544264D01*
X5461507Y-20544264D01*
X5490078Y-20558550D01*
X5504364Y-20587122D01*
X5504364Y-20744264D01*
X5504364Y-20587122D02*
X5518650Y-20558550D01*
X5547221Y-20544264D01*
X5590078Y-20544264D01*
X5618650Y-20558550D01*
X5632936Y-20587122D01*
X5632936Y-20744264D01*
X5775793Y-20744264D02*
X5775793Y-20544264D01*
X5775793Y-20572836D02*
X5790078Y-20558550D01*
X5818650Y-20544264D01*
X5861507Y-20544264D01*
X5890078Y-20558550D01*
X5904364Y-20587122D01*
X5904364Y-20744264D01*
X5904364Y-20587122D02*
X5918650Y-20558550D01*
X5947221Y-20544264D01*
X5990078Y-20544264D01*
X6018650Y-20558550D01*
X6032936Y-20587122D01*
X6032936Y-20744264D01*
X6618650Y-20429979D02*
X6361507Y-20815693D01*
X7004364Y-20444264D02*
X7032936Y-20444264D01*
X7061507Y-20458550D01*
X7075793Y-20472836D01*
X7090078Y-20501407D01*
X7104364Y-20558550D01*
X7104364Y-20629979D01*
X7090078Y-20687122D01*
X7075793Y-20715693D01*
X7061507Y-20729979D01*
X7032936Y-20744264D01*
X7004364Y-20744264D01*
X6975793Y-20729979D01*
X6961507Y-20715693D01*
X6947221Y-20687122D01*
X6932936Y-20629979D01*
X6932936Y-20558550D01*
X6947221Y-20501407D01*
X6961507Y-20472836D01*
X6975793Y-20458550D01*
X7004364Y-20444264D01*
X7232936Y-20715693D02*
X7247221Y-20729979D01*
X7232936Y-20744264D01*
X7218650Y-20729979D01*
X7232936Y-20715693D01*
X7232936Y-20744264D01*
X7532936Y-20744264D02*
X7361507Y-20744264D01*
X7447221Y-20744264D02*
X7447221Y-20444264D01*
X7418650Y-20487122D01*
X7390078Y-20515693D01*
X7361507Y-20529979D01*
X7790078Y-20444264D02*
X7732936Y-20444264D01*
X7704364Y-20458550D01*
X7690078Y-20472836D01*
X7661507Y-20515693D01*
X7647221Y-20572836D01*
X7647221Y-20687122D01*
X7661507Y-20715693D01*
X7675793Y-20729979D01*
X7704364Y-20744264D01*
X7761507Y-20744264D01*
X7790078Y-20729979D01*
X7804364Y-20715693D01*
X7818650Y-20687122D01*
X7818650Y-20615693D01*
X7804364Y-20587122D01*
X7790078Y-20572836D01*
X7761507Y-20558550D01*
X7704364Y-20558550D01*
X7675793Y-20572836D01*
X7661507Y-20587122D01*
X7647221Y-20615693D01*
X7918650Y-20444264D02*
X8118650Y-20444264D01*
X7990078Y-20744264D01*
X8290078Y-20444264D02*
X8318650Y-20444264D01*
X8347221Y-20458550D01*
X8361507Y-20472836D01*
X8375793Y-20501407D01*
X8390078Y-20558550D01*
X8390078Y-20629979D01*
X8375793Y-20687122D01*
X8361507Y-20715693D01*
X8347221Y-20729979D01*
X8318650Y-20744264D01*
X8290078Y-20744264D01*
X8261507Y-20729979D01*
X8247221Y-20715693D01*
X8232936Y-20687122D01*
X8218650Y-20629979D01*
X8218650Y-20558550D01*
X8232936Y-20501407D01*
X8247221Y-20472836D01*
X8261507Y-20458550D01*
X8290078Y-20444264D01*
X8504364Y-20444264D02*
X8504364Y-20501407D01*
X8618650Y-20444264D02*
X8618650Y-20501407D01*
X9061507Y-20858550D02*
X9047221Y-20844264D01*
X9018650Y-20801407D01*
X9004364Y-20772836D01*
X8990078Y-20729979D01*
X8975793Y-20658550D01*
X8975793Y-20601407D01*
X8990078Y-20529979D01*
X9004364Y-20487122D01*
X9018650Y-20458550D01*
X9047221Y-20415693D01*
X9061507Y-20401407D01*
X9332936Y-20744264D02*
X9161507Y-20744264D01*
X9247221Y-20744264D02*
X9247221Y-20444264D01*
X9218650Y-20487122D01*
X9190078Y-20515693D01*
X9161507Y-20529979D01*
X9447221Y-20472836D02*
X9461507Y-20458550D01*
X9490078Y-20444264D01*
X9561507Y-20444264D01*
X9590078Y-20458550D01*
X9604364Y-20472836D01*
X9618650Y-20501407D01*
X9618650Y-20529979D01*
X9604364Y-20572836D01*
X9432936Y-20744264D01*
X9618650Y-20744264D01*
X9975793Y-20744264D02*
X9975793Y-20444264D01*
X10104364Y-20744264D02*
X10104364Y-20587122D01*
X10090078Y-20558550D01*
X10061507Y-20544264D01*
X10018650Y-20544264D01*
X9990078Y-20558550D01*
X9975793Y-20572836D01*
X10290078Y-20744264D02*
X10261507Y-20729979D01*
X10247221Y-20715693D01*
X10232936Y-20687122D01*
X10232936Y-20601407D01*
X10247221Y-20572836D01*
X10261507Y-20558550D01*
X10290078Y-20544264D01*
X10332936Y-20544264D01*
X10361507Y-20558550D01*
X10375793Y-20572836D01*
X10390078Y-20601407D01*
X10390078Y-20687122D01*
X10375793Y-20715693D01*
X10361507Y-20729979D01*
X10332936Y-20744264D01*
X10290078Y-20744264D01*
X10561507Y-20744264D02*
X10532936Y-20729979D01*
X10518650Y-20701407D01*
X10518650Y-20444264D01*
X10790078Y-20729979D02*
X10761507Y-20744264D01*
X10704364Y-20744264D01*
X10675793Y-20729979D01*
X10661507Y-20701407D01*
X10661507Y-20587122D01*
X10675793Y-20558550D01*
X10704364Y-20544264D01*
X10761507Y-20544264D01*
X10790078Y-20558550D01*
X10804364Y-20587122D01*
X10804364Y-20615693D01*
X10661507Y-20644264D01*
X10918650Y-20729979D02*
X10947221Y-20744264D01*
X11004364Y-20744264D01*
X11032936Y-20729979D01*
X11047221Y-20701407D01*
X11047221Y-20687122D01*
X11032936Y-20658550D01*
X11004364Y-20644264D01*
X10961507Y-20644264D01*
X10932936Y-20629979D01*
X10918650Y-20601407D01*
X10918650Y-20587122D01*
X10932936Y-20558550D01*
X10961507Y-20544264D01*
X11004364Y-20544264D01*
X11032936Y-20558550D01*
X11147221Y-20858550D02*
X11161507Y-20844264D01*
X11190078Y-20801407D01*
X11204364Y-20772836D01*
X11218650Y-20729979D01*
X11232936Y-20658550D01*
X11232936Y-20601407D01*
X11218650Y-20529979D01*
X11204364Y-20487122D01*
X11190078Y-20458550D01*
X11161507Y-20415693D01*
X11147221Y-20401407D01*
M02*
