%TF.GenerationSoftware,KiCad,Pcbnew,5.1.10-88a1d61d58~88~ubuntu20.10.1*%
%TF.CreationDate,2021-06-17T10:47:31-04:00*%
%TF.ProjectId,lickport_array_module,6c69636b-706f-4727-945f-61727261795f,1.0*%
%TF.SameCoordinates,Original*%
%TF.FileFunction,Paste,Top*%
%TF.FilePolarity,Positive*%
%FSLAX46Y46*%
G04 Gerber Fmt 4.6, Leading zero omitted, Abs format (unit mm)*
G04 Created by KiCad (PCBNEW 5.1.10-88a1d61d58~88~ubuntu20.10.1) date 2021-06-17 10:47:31*
%MOMM*%
%LPD*%
G01*
G04 APERTURE LIST*
%ADD10R,5.000000X3.750000*%
%ADD11R,5.200000X5.000000*%
%ADD12R,0.787400X1.600200*%
%ADD13R,0.600000X0.700000*%
%ADD14R,0.700000X0.600000*%
%ADD15R,3.800000X4.960000*%
%ADD16R,1.600000X1.440000*%
%ADD17R,1.193800X1.193800*%
%ADD18C,0.100000*%
%ADD19R,0.599440X1.549400*%
%ADD20R,1.549400X0.599440*%
G04 APERTURE END LIST*
D10*
%TO.C,P1*%
X128400000Y-32220000D03*
X128400000Y-27470000D03*
D11*
X147300000Y-29845000D03*
%TD*%
D12*
%TO.C,C1*%
X140741400Y-21590000D03*
X138658600Y-21590000D03*
%TD*%
D13*
%TO.C,C2*%
X133850000Y-90805000D03*
X132850000Y-90805000D03*
%TD*%
%TO.C,C3*%
X133850000Y-92710000D03*
X132850000Y-92710000D03*
%TD*%
D14*
%TO.C,C4*%
X43180000Y-74160000D03*
X43180000Y-73160000D03*
%TD*%
%TO.C,C5*%
X46990000Y-79875000D03*
X46990000Y-78875000D03*
%TD*%
D13*
%TO.C,C6*%
X69715000Y-20955000D03*
X68715000Y-20955000D03*
%TD*%
%TO.C,C7*%
X63000000Y-24765000D03*
X64000000Y-24765000D03*
%TD*%
D14*
%TO.C,C8*%
X121920000Y-47490000D03*
X121920000Y-46490000D03*
%TD*%
%TO.C,C9*%
X118110000Y-40775000D03*
X118110000Y-41775000D03*
%TD*%
D13*
%TO.C,C10*%
X183015000Y-20955000D03*
X184015000Y-20955000D03*
%TD*%
%TO.C,C11*%
X178300000Y-24765000D03*
X177300000Y-24765000D03*
%TD*%
D14*
%TO.C,C12*%
X236220000Y-46490000D03*
X236220000Y-47490000D03*
%TD*%
%TO.C,C13*%
X232410000Y-41775000D03*
X232410000Y-40775000D03*
%TD*%
D13*
%TO.C,C14*%
X209685000Y-99695000D03*
X210685000Y-99695000D03*
%TD*%
%TO.C,C15*%
X216400000Y-95885000D03*
X215400000Y-95885000D03*
%TD*%
%TO.C,C16*%
X210685000Y-156845000D03*
X209685000Y-156845000D03*
%TD*%
%TO.C,C17*%
X215400000Y-153035000D03*
X216400000Y-153035000D03*
%TD*%
%TO.C,C18*%
X184015000Y-78105000D03*
X183015000Y-78105000D03*
%TD*%
%TO.C,C19*%
X178300000Y-81915000D03*
X177300000Y-81915000D03*
%TD*%
D14*
%TO.C,C20*%
X157480000Y-131310000D03*
X157480000Y-130310000D03*
%TD*%
%TO.C,C21*%
X161290000Y-136025000D03*
X161290000Y-137025000D03*
%TD*%
D13*
%TO.C,C22*%
X95385000Y-156845000D03*
X96385000Y-156845000D03*
%TD*%
%TO.C,C23*%
X101100000Y-153035000D03*
X102100000Y-153035000D03*
%TD*%
D14*
%TO.C,C24*%
X43180000Y-131310000D03*
X43180000Y-130310000D03*
%TD*%
%TO.C,C25*%
X46990000Y-136025000D03*
X46990000Y-137025000D03*
%TD*%
%TO.C,C26*%
X121920000Y-104640000D03*
X121920000Y-103640000D03*
%TD*%
%TO.C,C27*%
X118110000Y-98925000D03*
X118110000Y-97925000D03*
%TD*%
D15*
%TO.C,D1*%
X148590000Y-21205000D03*
D16*
X149655000Y-25005000D03*
X147525000Y-25005000D03*
%TD*%
D14*
%TO.C,D2*%
X143510000Y-17915000D03*
X143510000Y-18915000D03*
%TD*%
%TO.C,D3*%
X52705000Y-65540000D03*
X52705000Y-66540000D03*
%TD*%
D13*
%TO.C,D4*%
X52205000Y-71120000D03*
X53205000Y-71120000D03*
%TD*%
%TO.C,D5*%
X76335000Y-30480000D03*
X77335000Y-30480000D03*
%TD*%
D14*
%TO.C,D6*%
X71755000Y-30980000D03*
X71755000Y-29980000D03*
%TD*%
%TO.C,D7*%
X112395000Y-55110000D03*
X112395000Y-54110000D03*
%TD*%
D13*
%TO.C,D8*%
X111895000Y-49530000D03*
X112895000Y-49530000D03*
%TD*%
%TO.C,D9*%
X191635000Y-30480000D03*
X190635000Y-30480000D03*
%TD*%
D14*
%TO.C,D10*%
X186055000Y-29980000D03*
X186055000Y-30980000D03*
%TD*%
%TO.C,D11*%
X226695000Y-55110000D03*
X226695000Y-54110000D03*
%TD*%
D13*
%TO.C,D12*%
X226195000Y-49530000D03*
X227195000Y-49530000D03*
%TD*%
%TO.C,D13*%
X203065000Y-90170000D03*
X202065000Y-90170000D03*
%TD*%
D14*
%TO.C,D14*%
X207645000Y-90670000D03*
X207645000Y-89670000D03*
%TD*%
D13*
%TO.C,D15*%
X202065000Y-147320000D03*
X203065000Y-147320000D03*
%TD*%
D14*
%TO.C,D16*%
X207645000Y-146820000D03*
X207645000Y-147820000D03*
%TD*%
D13*
%TO.C,D17*%
X190635000Y-87630000D03*
X191635000Y-87630000D03*
%TD*%
D14*
%TO.C,D18*%
X186055000Y-87130000D03*
X186055000Y-88130000D03*
%TD*%
%TO.C,D19*%
X167005000Y-123690000D03*
X167005000Y-122690000D03*
%TD*%
D13*
%TO.C,D20*%
X166505000Y-128270000D03*
X167505000Y-128270000D03*
%TD*%
%TO.C,D21*%
X88765000Y-147320000D03*
X87765000Y-147320000D03*
%TD*%
D14*
%TO.C,D22*%
X93345000Y-146820000D03*
X93345000Y-147820000D03*
%TD*%
%TO.C,D23*%
X52705000Y-122690000D03*
X52705000Y-123690000D03*
%TD*%
D13*
%TO.C,D24*%
X53205000Y-128270000D03*
X52205000Y-128270000D03*
%TD*%
D14*
%TO.C,D25*%
X112395000Y-112260000D03*
X112395000Y-111260000D03*
%TD*%
D13*
%TO.C,D26*%
X111895000Y-106680000D03*
X112895000Y-106680000D03*
%TD*%
D17*
%TO.C,L1*%
X139779000Y-19469100D03*
X139779000Y-17360900D03*
%TD*%
%TO.C,L2*%
X51650900Y-74930000D03*
X53759100Y-74930000D03*
%TD*%
%TO.C,L3*%
X67945000Y-29425900D03*
X67945000Y-31534100D03*
%TD*%
%TO.C,L4*%
X111340900Y-45720000D03*
X113449100Y-45720000D03*
%TD*%
%TO.C,L5*%
X182245000Y-29425900D03*
X182245000Y-31534100D03*
%TD*%
%TO.C,L6*%
X225640900Y-45720000D03*
X227749100Y-45720000D03*
%TD*%
%TO.C,L7*%
X211455000Y-89115900D03*
X211455000Y-91224100D03*
%TD*%
%TO.C,L8*%
X211455000Y-146265900D03*
X211455000Y-148374100D03*
%TD*%
%TO.C,L9*%
X182245000Y-86575900D03*
X182245000Y-88684100D03*
%TD*%
%TO.C,L10*%
X168059100Y-132080000D03*
X165950900Y-132080000D03*
%TD*%
%TO.C,L11*%
X97155000Y-146265900D03*
X97155000Y-148374100D03*
%TD*%
%TO.C,L12*%
X51650900Y-132080000D03*
X53759100Y-132080000D03*
%TD*%
%TO.C,L13*%
X113449100Y-102870000D03*
X111340900Y-102870000D03*
%TD*%
D14*
%TO.C,R1*%
X141605000Y-18915000D03*
X141605000Y-17915000D03*
%TD*%
%TO.C,R2*%
X135890000Y-95750000D03*
X135890000Y-94750000D03*
%TD*%
%TO.C,R3*%
X141605000Y-94750000D03*
X141605000Y-95750000D03*
%TD*%
%TO.C,R4*%
X143510000Y-95750000D03*
X143510000Y-94750000D03*
%TD*%
%TO.C,R5*%
X137795000Y-95750000D03*
X137795000Y-94750000D03*
%TD*%
%TO.C,R6*%
X44450000Y-79875000D03*
X44450000Y-78875000D03*
%TD*%
%TO.C,R7*%
X49530000Y-79875000D03*
X49530000Y-78875000D03*
%TD*%
D13*
%TO.C,R8*%
X52205000Y-73025000D03*
X53205000Y-73025000D03*
%TD*%
%TO.C,R9*%
X133850000Y-86995000D03*
X132850000Y-86995000D03*
%TD*%
%TO.C,R10*%
X64000000Y-22225000D03*
X63000000Y-22225000D03*
%TD*%
%TO.C,R11*%
X64000000Y-27305000D03*
X63000000Y-27305000D03*
%TD*%
D14*
%TO.C,R12*%
X69850000Y-30980000D03*
X69850000Y-29980000D03*
%TD*%
D13*
%TO.C,R13*%
X132850000Y-85090000D03*
X133850000Y-85090000D03*
%TD*%
D14*
%TO.C,R14*%
X120650000Y-41775000D03*
X120650000Y-40775000D03*
%TD*%
%TO.C,R15*%
X115570000Y-41775000D03*
X115570000Y-40775000D03*
%TD*%
D13*
%TO.C,R16*%
X111895000Y-47625000D03*
X112895000Y-47625000D03*
%TD*%
D14*
%TO.C,R17*%
X135890000Y-82050000D03*
X135890000Y-83050000D03*
%TD*%
D13*
%TO.C,R18*%
X177300000Y-22225000D03*
X178300000Y-22225000D03*
%TD*%
%TO.C,R19*%
X177300000Y-27305000D03*
X178300000Y-27305000D03*
%TD*%
D14*
%TO.C,R20*%
X184150000Y-29980000D03*
X184150000Y-30980000D03*
%TD*%
%TO.C,R21*%
X137795000Y-82050000D03*
X137795000Y-83050000D03*
%TD*%
%TO.C,R22*%
X234950000Y-40775000D03*
X234950000Y-41775000D03*
%TD*%
%TO.C,R23*%
X229870000Y-40775000D03*
X229870000Y-41775000D03*
%TD*%
D13*
%TO.C,R24*%
X227195000Y-47625000D03*
X226195000Y-47625000D03*
%TD*%
D14*
%TO.C,R25*%
X139700000Y-82050000D03*
X139700000Y-83050000D03*
%TD*%
D13*
%TO.C,R26*%
X216400000Y-98425000D03*
X215400000Y-98425000D03*
%TD*%
%TO.C,R27*%
X216400000Y-93345000D03*
X215400000Y-93345000D03*
%TD*%
D14*
%TO.C,R28*%
X209550000Y-90670000D03*
X209550000Y-89670000D03*
%TD*%
%TO.C,R29*%
X141605000Y-82050000D03*
X141605000Y-83050000D03*
%TD*%
D13*
%TO.C,R30*%
X216400000Y-155575000D03*
X215400000Y-155575000D03*
%TD*%
%TO.C,R31*%
X216400000Y-150495000D03*
X215400000Y-150495000D03*
%TD*%
D14*
%TO.C,R32*%
X209550000Y-147820000D03*
X209550000Y-146820000D03*
%TD*%
%TO.C,R33*%
X143510000Y-82050000D03*
X143510000Y-83050000D03*
%TD*%
D13*
%TO.C,R34*%
X177300000Y-79375000D03*
X178300000Y-79375000D03*
%TD*%
%TO.C,R35*%
X177300000Y-84455000D03*
X178300000Y-84455000D03*
%TD*%
D14*
%TO.C,R36*%
X184150000Y-88130000D03*
X184150000Y-87130000D03*
%TD*%
D13*
%TO.C,R37*%
X145550000Y-85090000D03*
X146550000Y-85090000D03*
%TD*%
D14*
%TO.C,R38*%
X158750000Y-137025000D03*
X158750000Y-136025000D03*
%TD*%
%TO.C,R39*%
X163830000Y-137025000D03*
X163830000Y-136025000D03*
%TD*%
D13*
%TO.C,R40*%
X167505000Y-130175000D03*
X166505000Y-130175000D03*
%TD*%
%TO.C,R41*%
X145550000Y-86995000D03*
X146550000Y-86995000D03*
%TD*%
%TO.C,R42*%
X102100000Y-155575000D03*
X101100000Y-155575000D03*
%TD*%
%TO.C,R43*%
X101100000Y-150495000D03*
X102100000Y-150495000D03*
%TD*%
D14*
%TO.C,R44*%
X95250000Y-147820000D03*
X95250000Y-146820000D03*
%TD*%
D13*
%TO.C,R45*%
X146550000Y-88900000D03*
X145550000Y-88900000D03*
%TD*%
D14*
%TO.C,R46*%
X44450000Y-136025000D03*
X44450000Y-137025000D03*
%TD*%
%TO.C,R47*%
X49530000Y-136025000D03*
X49530000Y-137025000D03*
%TD*%
D13*
%TO.C,R48*%
X53205000Y-130175000D03*
X52205000Y-130175000D03*
%TD*%
%TO.C,R49*%
X146550000Y-90805000D03*
X145550000Y-90805000D03*
%TD*%
D14*
%TO.C,R50*%
X120650000Y-97925000D03*
X120650000Y-98925000D03*
%TD*%
%TO.C,R51*%
X115570000Y-98925000D03*
X115570000Y-97925000D03*
%TD*%
D13*
%TO.C,R52*%
X111895000Y-104775000D03*
X112895000Y-104775000D03*
%TD*%
%TO.C,R53*%
X146550000Y-92710000D03*
X145550000Y-92710000D03*
%TD*%
D18*
%TO.C,U1*%
G36*
X140724039Y-87714044D02*
G01*
X140721194Y-87723423D01*
X140716573Y-87732068D01*
X140710355Y-87739644D01*
X140589644Y-87860355D01*
X140582068Y-87866573D01*
X140573423Y-87871194D01*
X140564044Y-87874039D01*
X140554289Y-87875000D01*
X140525000Y-87875000D01*
X140515245Y-87874039D01*
X140505866Y-87871194D01*
X140497221Y-87866573D01*
X140489645Y-87860355D01*
X140483427Y-87852779D01*
X140478806Y-87844134D01*
X140475961Y-87834755D01*
X140475000Y-87825000D01*
X140475000Y-87075000D01*
X140475961Y-87065245D01*
X140478806Y-87055866D01*
X140483427Y-87047221D01*
X140489645Y-87039645D01*
X140497221Y-87033427D01*
X140505866Y-87028806D01*
X140515245Y-87025961D01*
X140525000Y-87025000D01*
X140675000Y-87025000D01*
X140684755Y-87025961D01*
X140694134Y-87028806D01*
X140702779Y-87033427D01*
X140710355Y-87039645D01*
X140716573Y-87047221D01*
X140721194Y-87055866D01*
X140724039Y-87065245D01*
X140725000Y-87075000D01*
X140725000Y-87704289D01*
X140724039Y-87714044D01*
G37*
G36*
G01*
X140087500Y-87025000D02*
X140212500Y-87025000D01*
G75*
G02*
X140275000Y-87087500I0J-62500D01*
G01*
X140275000Y-87812500D01*
G75*
G02*
X140212500Y-87875000I-62500J0D01*
G01*
X140087500Y-87875000D01*
G75*
G02*
X140025000Y-87812500I0J62500D01*
G01*
X140025000Y-87087500D01*
G75*
G02*
X140087500Y-87025000I62500J0D01*
G01*
G37*
G36*
G01*
X139637500Y-87025000D02*
X139762500Y-87025000D01*
G75*
G02*
X139825000Y-87087500I0J-62500D01*
G01*
X139825000Y-87812500D01*
G75*
G02*
X139762500Y-87875000I-62500J0D01*
G01*
X139637500Y-87875000D01*
G75*
G02*
X139575000Y-87812500I0J62500D01*
G01*
X139575000Y-87087500D01*
G75*
G02*
X139637500Y-87025000I62500J0D01*
G01*
G37*
G36*
G01*
X139187500Y-87025000D02*
X139312500Y-87025000D01*
G75*
G02*
X139375000Y-87087500I0J-62500D01*
G01*
X139375000Y-87812500D01*
G75*
G02*
X139312500Y-87875000I-62500J0D01*
G01*
X139187500Y-87875000D01*
G75*
G02*
X139125000Y-87812500I0J62500D01*
G01*
X139125000Y-87087500D01*
G75*
G02*
X139187500Y-87025000I62500J0D01*
G01*
G37*
G36*
X138924039Y-87834755D02*
G01*
X138921194Y-87844134D01*
X138916573Y-87852779D01*
X138910355Y-87860355D01*
X138902779Y-87866573D01*
X138894134Y-87871194D01*
X138884755Y-87874039D01*
X138875000Y-87875000D01*
X138845711Y-87875000D01*
X138835956Y-87874039D01*
X138826577Y-87871194D01*
X138817932Y-87866573D01*
X138810356Y-87860355D01*
X138689645Y-87739644D01*
X138683427Y-87732068D01*
X138678806Y-87723423D01*
X138675961Y-87714044D01*
X138675000Y-87704289D01*
X138675000Y-87075000D01*
X138675961Y-87065245D01*
X138678806Y-87055866D01*
X138683427Y-87047221D01*
X138689645Y-87039645D01*
X138697221Y-87033427D01*
X138705866Y-87028806D01*
X138715245Y-87025961D01*
X138725000Y-87025000D01*
X138875000Y-87025000D01*
X138884755Y-87025961D01*
X138894134Y-87028806D01*
X138902779Y-87033427D01*
X138910355Y-87039645D01*
X138916573Y-87047221D01*
X138921194Y-87055866D01*
X138924039Y-87065245D01*
X138925000Y-87075000D01*
X138925000Y-87825000D01*
X138924039Y-87834755D01*
G37*
G36*
X138674039Y-88084755D02*
G01*
X138671194Y-88094134D01*
X138666573Y-88102779D01*
X138660355Y-88110355D01*
X138652779Y-88116573D01*
X138644134Y-88121194D01*
X138634755Y-88124039D01*
X138625000Y-88125000D01*
X137875000Y-88125000D01*
X137865245Y-88124039D01*
X137855866Y-88121194D01*
X137847221Y-88116573D01*
X137839645Y-88110355D01*
X137833427Y-88102779D01*
X137828806Y-88094134D01*
X137825961Y-88084755D01*
X137825000Y-88075000D01*
X137825000Y-87925000D01*
X137825961Y-87915245D01*
X137828806Y-87905866D01*
X137833427Y-87897221D01*
X137839645Y-87889645D01*
X137847221Y-87883427D01*
X137855866Y-87878806D01*
X137865245Y-87875961D01*
X137875000Y-87875000D01*
X138504289Y-87875000D01*
X138514044Y-87875961D01*
X138523423Y-87878806D01*
X138532068Y-87883427D01*
X138539644Y-87889645D01*
X138660355Y-88010356D01*
X138666573Y-88017932D01*
X138671194Y-88026577D01*
X138674039Y-88035956D01*
X138675000Y-88045711D01*
X138675000Y-88075000D01*
X138674039Y-88084755D01*
G37*
G36*
G01*
X137887500Y-88325000D02*
X138612500Y-88325000D01*
G75*
G02*
X138675000Y-88387500I0J-62500D01*
G01*
X138675000Y-88512500D01*
G75*
G02*
X138612500Y-88575000I-62500J0D01*
G01*
X137887500Y-88575000D01*
G75*
G02*
X137825000Y-88512500I0J62500D01*
G01*
X137825000Y-88387500D01*
G75*
G02*
X137887500Y-88325000I62500J0D01*
G01*
G37*
G36*
G01*
X137887500Y-88775000D02*
X138612500Y-88775000D01*
G75*
G02*
X138675000Y-88837500I0J-62500D01*
G01*
X138675000Y-88962500D01*
G75*
G02*
X138612500Y-89025000I-62500J0D01*
G01*
X137887500Y-89025000D01*
G75*
G02*
X137825000Y-88962500I0J62500D01*
G01*
X137825000Y-88837500D01*
G75*
G02*
X137887500Y-88775000I62500J0D01*
G01*
G37*
G36*
G01*
X137887500Y-89225000D02*
X138612500Y-89225000D01*
G75*
G02*
X138675000Y-89287500I0J-62500D01*
G01*
X138675000Y-89412500D01*
G75*
G02*
X138612500Y-89475000I-62500J0D01*
G01*
X137887500Y-89475000D01*
G75*
G02*
X137825000Y-89412500I0J62500D01*
G01*
X137825000Y-89287500D01*
G75*
G02*
X137887500Y-89225000I62500J0D01*
G01*
G37*
G36*
X138674039Y-89764044D02*
G01*
X138671194Y-89773423D01*
X138666573Y-89782068D01*
X138660355Y-89789644D01*
X138539644Y-89910355D01*
X138532068Y-89916573D01*
X138523423Y-89921194D01*
X138514044Y-89924039D01*
X138504289Y-89925000D01*
X137875000Y-89925000D01*
X137865245Y-89924039D01*
X137855866Y-89921194D01*
X137847221Y-89916573D01*
X137839645Y-89910355D01*
X137833427Y-89902779D01*
X137828806Y-89894134D01*
X137825961Y-89884755D01*
X137825000Y-89875000D01*
X137825000Y-89725000D01*
X137825961Y-89715245D01*
X137828806Y-89705866D01*
X137833427Y-89697221D01*
X137839645Y-89689645D01*
X137847221Y-89683427D01*
X137855866Y-89678806D01*
X137865245Y-89675961D01*
X137875000Y-89675000D01*
X138625000Y-89675000D01*
X138634755Y-89675961D01*
X138644134Y-89678806D01*
X138652779Y-89683427D01*
X138660355Y-89689645D01*
X138666573Y-89697221D01*
X138671194Y-89705866D01*
X138674039Y-89715245D01*
X138675000Y-89725000D01*
X138675000Y-89754289D01*
X138674039Y-89764044D01*
G37*
G36*
X138924039Y-90734755D02*
G01*
X138921194Y-90744134D01*
X138916573Y-90752779D01*
X138910355Y-90760355D01*
X138902779Y-90766573D01*
X138894134Y-90771194D01*
X138884755Y-90774039D01*
X138875000Y-90775000D01*
X138725000Y-90775000D01*
X138715245Y-90774039D01*
X138705866Y-90771194D01*
X138697221Y-90766573D01*
X138689645Y-90760355D01*
X138683427Y-90752779D01*
X138678806Y-90744134D01*
X138675961Y-90734755D01*
X138675000Y-90725000D01*
X138675000Y-90095711D01*
X138675961Y-90085956D01*
X138678806Y-90076577D01*
X138683427Y-90067932D01*
X138689645Y-90060356D01*
X138810356Y-89939645D01*
X138817932Y-89933427D01*
X138826577Y-89928806D01*
X138835956Y-89925961D01*
X138845711Y-89925000D01*
X138875000Y-89925000D01*
X138884755Y-89925961D01*
X138894134Y-89928806D01*
X138902779Y-89933427D01*
X138910355Y-89939645D01*
X138916573Y-89947221D01*
X138921194Y-89955866D01*
X138924039Y-89965245D01*
X138925000Y-89975000D01*
X138925000Y-90725000D01*
X138924039Y-90734755D01*
G37*
G36*
G01*
X139187500Y-89925000D02*
X139312500Y-89925000D01*
G75*
G02*
X139375000Y-89987500I0J-62500D01*
G01*
X139375000Y-90712500D01*
G75*
G02*
X139312500Y-90775000I-62500J0D01*
G01*
X139187500Y-90775000D01*
G75*
G02*
X139125000Y-90712500I0J62500D01*
G01*
X139125000Y-89987500D01*
G75*
G02*
X139187500Y-89925000I62500J0D01*
G01*
G37*
G36*
G01*
X139637500Y-89925000D02*
X139762500Y-89925000D01*
G75*
G02*
X139825000Y-89987500I0J-62500D01*
G01*
X139825000Y-90712500D01*
G75*
G02*
X139762500Y-90775000I-62500J0D01*
G01*
X139637500Y-90775000D01*
G75*
G02*
X139575000Y-90712500I0J62500D01*
G01*
X139575000Y-89987500D01*
G75*
G02*
X139637500Y-89925000I62500J0D01*
G01*
G37*
G36*
G01*
X140087500Y-89925000D02*
X140212500Y-89925000D01*
G75*
G02*
X140275000Y-89987500I0J-62500D01*
G01*
X140275000Y-90712500D01*
G75*
G02*
X140212500Y-90775000I-62500J0D01*
G01*
X140087500Y-90775000D01*
G75*
G02*
X140025000Y-90712500I0J62500D01*
G01*
X140025000Y-89987500D01*
G75*
G02*
X140087500Y-89925000I62500J0D01*
G01*
G37*
G36*
X140724039Y-90734755D02*
G01*
X140721194Y-90744134D01*
X140716573Y-90752779D01*
X140710355Y-90760355D01*
X140702779Y-90766573D01*
X140694134Y-90771194D01*
X140684755Y-90774039D01*
X140675000Y-90775000D01*
X140525000Y-90775000D01*
X140515245Y-90774039D01*
X140505866Y-90771194D01*
X140497221Y-90766573D01*
X140489645Y-90760355D01*
X140483427Y-90752779D01*
X140478806Y-90744134D01*
X140475961Y-90734755D01*
X140475000Y-90725000D01*
X140475000Y-89975000D01*
X140475961Y-89965245D01*
X140478806Y-89955866D01*
X140483427Y-89947221D01*
X140489645Y-89939645D01*
X140497221Y-89933427D01*
X140505866Y-89928806D01*
X140515245Y-89925961D01*
X140525000Y-89925000D01*
X140554289Y-89925000D01*
X140564044Y-89925961D01*
X140573423Y-89928806D01*
X140582068Y-89933427D01*
X140589644Y-89939645D01*
X140710355Y-90060356D01*
X140716573Y-90067932D01*
X140721194Y-90076577D01*
X140724039Y-90085956D01*
X140725000Y-90095711D01*
X140725000Y-90725000D01*
X140724039Y-90734755D01*
G37*
G36*
X141574039Y-89884755D02*
G01*
X141571194Y-89894134D01*
X141566573Y-89902779D01*
X141560355Y-89910355D01*
X141552779Y-89916573D01*
X141544134Y-89921194D01*
X141534755Y-89924039D01*
X141525000Y-89925000D01*
X140895711Y-89925000D01*
X140885956Y-89924039D01*
X140876577Y-89921194D01*
X140867932Y-89916573D01*
X140860356Y-89910355D01*
X140739645Y-89789644D01*
X140733427Y-89782068D01*
X140728806Y-89773423D01*
X140725961Y-89764044D01*
X140725000Y-89754289D01*
X140725000Y-89725000D01*
X140725961Y-89715245D01*
X140728806Y-89705866D01*
X140733427Y-89697221D01*
X140739645Y-89689645D01*
X140747221Y-89683427D01*
X140755866Y-89678806D01*
X140765245Y-89675961D01*
X140775000Y-89675000D01*
X141525000Y-89675000D01*
X141534755Y-89675961D01*
X141544134Y-89678806D01*
X141552779Y-89683427D01*
X141560355Y-89689645D01*
X141566573Y-89697221D01*
X141571194Y-89705866D01*
X141574039Y-89715245D01*
X141575000Y-89725000D01*
X141575000Y-89875000D01*
X141574039Y-89884755D01*
G37*
G36*
G01*
X140787500Y-89225000D02*
X141512500Y-89225000D01*
G75*
G02*
X141575000Y-89287500I0J-62500D01*
G01*
X141575000Y-89412500D01*
G75*
G02*
X141512500Y-89475000I-62500J0D01*
G01*
X140787500Y-89475000D01*
G75*
G02*
X140725000Y-89412500I0J62500D01*
G01*
X140725000Y-89287500D01*
G75*
G02*
X140787500Y-89225000I62500J0D01*
G01*
G37*
G36*
G01*
X140787500Y-88775000D02*
X141512500Y-88775000D01*
G75*
G02*
X141575000Y-88837500I0J-62500D01*
G01*
X141575000Y-88962500D01*
G75*
G02*
X141512500Y-89025000I-62500J0D01*
G01*
X140787500Y-89025000D01*
G75*
G02*
X140725000Y-88962500I0J62500D01*
G01*
X140725000Y-88837500D01*
G75*
G02*
X140787500Y-88775000I62500J0D01*
G01*
G37*
G36*
G01*
X140787500Y-88325000D02*
X141512500Y-88325000D01*
G75*
G02*
X141575000Y-88387500I0J-62500D01*
G01*
X141575000Y-88512500D01*
G75*
G02*
X141512500Y-88575000I-62500J0D01*
G01*
X140787500Y-88575000D01*
G75*
G02*
X140725000Y-88512500I0J62500D01*
G01*
X140725000Y-88387500D01*
G75*
G02*
X140787500Y-88325000I62500J0D01*
G01*
G37*
G36*
X141574039Y-88084755D02*
G01*
X141571194Y-88094134D01*
X141566573Y-88102779D01*
X141560355Y-88110355D01*
X141552779Y-88116573D01*
X141544134Y-88121194D01*
X141534755Y-88124039D01*
X141525000Y-88125000D01*
X140775000Y-88125000D01*
X140765245Y-88124039D01*
X140755866Y-88121194D01*
X140747221Y-88116573D01*
X140739645Y-88110355D01*
X140733427Y-88102779D01*
X140728806Y-88094134D01*
X140725961Y-88084755D01*
X140725000Y-88075000D01*
X140725000Y-88045711D01*
X140725961Y-88035956D01*
X140728806Y-88026577D01*
X140733427Y-88017932D01*
X140739645Y-88010356D01*
X140860356Y-87889645D01*
X140867932Y-87883427D01*
X140876577Y-87878806D01*
X140885956Y-87875961D01*
X140895711Y-87875000D01*
X141525000Y-87875000D01*
X141534755Y-87875961D01*
X141544134Y-87878806D01*
X141552779Y-87883427D01*
X141560355Y-87889645D01*
X141566573Y-87897221D01*
X141571194Y-87905866D01*
X141574039Y-87915245D01*
X141575000Y-87925000D01*
X141575000Y-88075000D01*
X141574039Y-88084755D01*
G37*
G36*
G01*
X139940000Y-88180000D02*
X140260000Y-88180000D01*
G75*
G02*
X140420000Y-88340000I0J-160000D01*
G01*
X140420000Y-88660000D01*
G75*
G02*
X140260000Y-88820000I-160000J0D01*
G01*
X139940000Y-88820000D01*
G75*
G02*
X139780000Y-88660000I0J160000D01*
G01*
X139780000Y-88340000D01*
G75*
G02*
X139940000Y-88180000I160000J0D01*
G01*
G37*
G36*
G01*
X139140000Y-88180000D02*
X139460000Y-88180000D01*
G75*
G02*
X139620000Y-88340000I0J-160000D01*
G01*
X139620000Y-88660000D01*
G75*
G02*
X139460000Y-88820000I-160000J0D01*
G01*
X139140000Y-88820000D01*
G75*
G02*
X138980000Y-88660000I0J160000D01*
G01*
X138980000Y-88340000D01*
G75*
G02*
X139140000Y-88180000I160000J0D01*
G01*
G37*
G36*
G01*
X139940000Y-88980000D02*
X140260000Y-88980000D01*
G75*
G02*
X140420000Y-89140000I0J-160000D01*
G01*
X140420000Y-89460000D01*
G75*
G02*
X140260000Y-89620000I-160000J0D01*
G01*
X139940000Y-89620000D01*
G75*
G02*
X139780000Y-89460000I0J160000D01*
G01*
X139780000Y-89140000D01*
G75*
G02*
X139940000Y-88980000I160000J0D01*
G01*
G37*
G36*
G01*
X139140000Y-88980000D02*
X139460000Y-88980000D01*
G75*
G02*
X139620000Y-89140000I0J-160000D01*
G01*
X139620000Y-89460000D01*
G75*
G02*
X139460000Y-89620000I-160000J0D01*
G01*
X139140000Y-89620000D01*
G75*
G02*
X138980000Y-89460000I0J160000D01*
G01*
X138980000Y-89140000D01*
G75*
G02*
X139140000Y-88980000I160000J0D01*
G01*
G37*
%TD*%
D19*
%TO.C,U2*%
X45085000Y-70967600D03*
X46355000Y-70967600D03*
X47625000Y-70967600D03*
X48895000Y-70967600D03*
X48895000Y-76352400D03*
X47625000Y-76352400D03*
X46355000Y-76352400D03*
X45085000Y-76352400D03*
%TD*%
D20*
%TO.C,U3*%
X66522600Y-22860000D03*
X66522600Y-24130000D03*
X66522600Y-25400000D03*
X66522600Y-26670000D03*
X71907400Y-26670000D03*
X71907400Y-25400000D03*
X71907400Y-24130000D03*
X71907400Y-22860000D03*
%TD*%
D19*
%TO.C,U4*%
X120015000Y-44297600D03*
X118745000Y-44297600D03*
X117475000Y-44297600D03*
X116205000Y-44297600D03*
X116205000Y-49682400D03*
X117475000Y-49682400D03*
X118745000Y-49682400D03*
X120015000Y-49682400D03*
%TD*%
D20*
%TO.C,U5*%
X186207400Y-22860000D03*
X186207400Y-24130000D03*
X186207400Y-25400000D03*
X186207400Y-26670000D03*
X180822600Y-26670000D03*
X180822600Y-25400000D03*
X180822600Y-24130000D03*
X180822600Y-22860000D03*
%TD*%
D19*
%TO.C,U6*%
X234315000Y-44297600D03*
X233045000Y-44297600D03*
X231775000Y-44297600D03*
X230505000Y-44297600D03*
X230505000Y-49682400D03*
X231775000Y-49682400D03*
X233045000Y-49682400D03*
X234315000Y-49682400D03*
%TD*%
D20*
%TO.C,U7*%
X212877400Y-97790000D03*
X212877400Y-96520000D03*
X212877400Y-95250000D03*
X212877400Y-93980000D03*
X207492600Y-93980000D03*
X207492600Y-95250000D03*
X207492600Y-96520000D03*
X207492600Y-97790000D03*
%TD*%
%TO.C,U8*%
X207492600Y-154940000D03*
X207492600Y-153670000D03*
X207492600Y-152400000D03*
X207492600Y-151130000D03*
X212877400Y-151130000D03*
X212877400Y-152400000D03*
X212877400Y-153670000D03*
X212877400Y-154940000D03*
%TD*%
%TO.C,U9*%
X186207400Y-80010000D03*
X186207400Y-81280000D03*
X186207400Y-82550000D03*
X186207400Y-83820000D03*
X180822600Y-83820000D03*
X180822600Y-82550000D03*
X180822600Y-81280000D03*
X180822600Y-80010000D03*
%TD*%
D19*
%TO.C,U10*%
X159385000Y-128117600D03*
X160655000Y-128117600D03*
X161925000Y-128117600D03*
X163195000Y-128117600D03*
X163195000Y-133502400D03*
X161925000Y-133502400D03*
X160655000Y-133502400D03*
X159385000Y-133502400D03*
%TD*%
D20*
%TO.C,U11*%
X93192600Y-154940000D03*
X93192600Y-153670000D03*
X93192600Y-152400000D03*
X93192600Y-151130000D03*
X98577400Y-151130000D03*
X98577400Y-152400000D03*
X98577400Y-153670000D03*
X98577400Y-154940000D03*
%TD*%
D19*
%TO.C,U12*%
X45085000Y-133502400D03*
X46355000Y-133502400D03*
X47625000Y-133502400D03*
X48895000Y-133502400D03*
X48895000Y-128117600D03*
X47625000Y-128117600D03*
X46355000Y-128117600D03*
X45085000Y-128117600D03*
%TD*%
%TO.C,U13*%
X120015000Y-101447600D03*
X118745000Y-101447600D03*
X117475000Y-101447600D03*
X116205000Y-101447600D03*
X116205000Y-106832400D03*
X117475000Y-106832400D03*
X118745000Y-106832400D03*
X120015000Y-106832400D03*
%TD*%
M02*
