<?xml version="1.0" standalone="no"?>
 <!DOCTYPE svg PUBLIC "-//W3C//DTD SVG 1.1//EN" 
 "http://www.w3.org/Graphics/SVG/1.1/DTD/svg11.dtd"> 
<svg
  xmlns:svg="http://www.w3.org/2000/svg"
  xmlns="http://www.w3.org/2000/svg"
  xmlns:xlink="http://www.w3.org/1999/xlink"
  version="1.1"
  width="21.620480cm" height="15.748000cm" viewBox="0 0 85120 62000">
<title>SVG Picture created as lickport_array_module-B_SilkS.svg date 2021/06/17 10:48:43 </title>
  <desc>Picture generated by PCBNEW </desc>
<g style="fill:#000000; fill-opacity:1;stroke:#000000; stroke-opacity:1;
stroke-linecap:round; stroke-linejoin:round;"
 transform="translate(0 0) scale(1 1)">
</g>
<g style="fill:#000000; fill-opacity:0.0; 
stroke:#000000; stroke-width:-0.000393701; stroke-opacity:1; 
stroke-linecap:round; stroke-linejoin:round;">
</g>
<g style="fill:#840084; fill-opacity:0.0; 
stroke:#840084; stroke-width:-0.000393701; stroke-opacity:1; 
stroke-linecap:round; stroke-linejoin:round;">
</g>
<g style="fill:#840084; fill-opacity:0.0; 
stroke:#840084; stroke-width:200; stroke-opacity:1; 
stroke-linecap:round; stroke-linejoin:round;">
<g transform="rotate(-180 56561.6 23650)">
<text x="56561.6" y="24050"
transform="scale(-1 1) translate(-113123.149606 0)"
textLength="13024.7" font-size="1066.67" lengthAdjust="spacingAndGlyphs"
text-anchor="middle" opacity="0">lickport_array_module</text>
</g>
<path d="M50294 23288
L50218 23326
L50180 23402
L50180 24088
" />
<path d="M50599 23288
L50599 23821
" />
<path d="M50599 24088
L50561 24050
L50599 24011
L50637 24050
L50599 24088
L50599 24011
" />
<path d="M51323 23326
L51247 23288
L51094 23288
L51018 23326
L50980 23364
L50942 23440
L50942 23669
L50980 23745
L51018 23783
L51094 23821
L51247 23821
L51323 23783
" />
<path d="M51666 23288
L51666 24088
" />
<path d="M51742 23592
L51971 23288
" />
<path d="M51971 23821
L51666 23516
" />
<path d="M52313 23821
L52313 23021
" />
<path d="M52313 23783
L52390 23821
L52542 23821
L52618 23783
L52656 23745
L52694 23669
L52694 23440
L52656 23364
L52618 23326
L52542 23288
L52390 23288
L52313 23326
" />
<path d="M53152 23288
L53075 23326
L53037 23364
L52999 23440
L52999 23669
L53037 23745
L53075 23783
L53152 23821
L53266 23821
L53342 23783
L53380 23745
L53418 23669
L53418 23440
L53380 23364
L53342 23326
L53266 23288
L53152 23288
" />
<path d="M53761 23288
L53761 23821
" />
<path d="M53761 23669
L53799 23745
L53837 23783
L53913 23821
L53990 23821
" />
<path d="M54142 23821
L54447 23821
" />
<path d="M54256 24088
L54256 23402
L54294 23326
L54371 23288
L54447 23288
" />
<path d="M54523 23211
L55133 23211
" />
<path d="M55666 23288
L55666 23707
L55628 23783
L55552 23821
L55399 23821
L55323 23783
" />
<path d="M55666 23326
L55590 23288
L55399 23288
L55323 23326
L55285 23402
L55285 23478
L55323 23554
L55399 23592
L55590 23592
L55666 23630
" />
<path d="M56047 23288
L56047 23821
" />
<path d="M56047 23669
L56085 23745
L56123 23783
L56199 23821
L56275 23821
" />
<path d="M56542 23288
L56542 23821
" />
<path d="M56542 23669
L56580 23745
L56618 23783
L56694 23821
L56771 23821
" />
<path d="M57380 23288
L57380 23707
L57342 23783
L57266 23821
L57113 23821
L57037 23783
" />
<path d="M57380 23326
L57304 23288
L57113 23288
L57037 23326
L56999 23402
L56999 23478
L57037 23554
L57113 23592
L57304 23592
L57380 23630
" />
<path d="M57685 23821
L57875 23288
" />
<path d="M58066 23821
L57875 23288
L57799 23097
L57761 23059
L57685 23021
" />
<path d="M58180 23211
L58790 23211
" />
<path d="M58980 23288
L58980 23821
" />
<path d="M58980 23745
L59018 23783
L59094 23821
L59209 23821
L59285 23783
L59323 23707
L59323 23288
" />
<path d="M59323 23707
L59361 23783
L59437 23821
L59552 23821
L59628 23783
L59666 23707
L59666 23288
" />
<path d="M60161 23288
L60085 23326
L60047 23364
L60009 23440
L60009 23669
L60047 23745
L60085 23783
L60161 23821
L60275 23821
L60352 23783
L60390 23745
L60428 23669
L60428 23440
L60390 23364
L60352 23326
L60275 23288
L60161 23288
" />
<path d="M61113 23288
L61113 24088
" />
<path d="M61113 23326
L61037 23288
L60885 23288
L60809 23326
L60771 23364
L60733 23440
L60733 23669
L60771 23745
L60809 23783
L60885 23821
L61037 23821
L61113 23783
" />
<path d="M61837 23821
L61837 23288
" />
<path d="M61494 23821
L61494 23402
L61533 23326
L61609 23288
L61723 23288
L61799 23326
L61837 23364
" />
<path d="M62333 23288
L62256 23326
L62218 23402
L62218 24088
" />
<path d="M62942 23326
L62866 23288
L62713 23288
L62637 23326
L62599 23402
L62599 23707
L62637 23783
L62713 23821
L62866 23821
L62942 23783
L62980 23707
L62980 23630
L62599 23554
" />
<g transform="rotate(-180 56561.6 22250)">
<text x="56561.6" y="22650"
transform="scale(-1 1) translate(-113123.149606 0)"
textLength="15359" font-size="1066.67" lengthAdjust="spacingAndGlyphs"
text-anchor="middle" opacity="0">Janelia Research Campus</text>
</g>
<path d="M49171 22688
L49171 22116
L49133 22002
L49056 21926
L48942 21888
L48866 21888
" />
<path d="M49894 21888
L49894 22307
L49856 22383
L49780 22421
L49628 22421
L49552 22383
" />
<path d="M49894 21926
L49818 21888
L49628 21888
L49552 21926
L49513 22002
L49513 22078
L49552 22154
L49628 22192
L49818 22192
L49894 22230
" />
<path d="M50275 22421
L50275 21888
" />
<path d="M50275 22345
L50313 22383
L50390 22421
L50504 22421
L50580 22383
L50618 22307
L50618 21888
" />
<path d="M51304 21926
L51228 21888
L51075 21888
L50999 21926
L50961 22002
L50961 22307
L50999 22383
L51075 22421
L51228 22421
L51304 22383
L51342 22307
L51342 22230
L50961 22154
" />
<path d="M51799 21888
L51723 21926
L51685 22002
L51685 22688
" />
<path d="M52104 21888
L52104 22421
" />
<path d="M52104 22688
L52066 22650
L52104 22611
L52142 22650
L52104 22688
L52104 22611
" />
<path d="M52828 21888
L52828 22307
L52790 22383
L52713 22421
L52561 22421
L52485 22383
" />
<path d="M52828 21926
L52752 21888
L52561 21888
L52485 21926
L52447 22002
L52447 22078
L52485 22154
L52561 22192
L52752 22192
L52828 22230
" />
<path d="M54275 21888
L54009 22269
" />
<path d="M53818 21888
L53818 22688
L54123 22688
L54199 22650
L54237 22611
L54275 22535
L54275 22421
L54237 22345
L54199 22307
L54123 22269
L53818 22269
" />
<path d="M54923 21926
L54847 21888
L54694 21888
L54618 21926
L54580 22002
L54580 22307
L54618 22383
L54694 22421
L54847 22421
L54923 22383
L54961 22307
L54961 22230
L54580 22154
" />
<path d="M55266 21926
L55342 21888
L55494 21888
L55571 21926
L55609 22002
L55609 22040
L55571 22116
L55494 22154
L55380 22154
L55304 22192
L55266 22269
L55266 22307
L55304 22383
L55380 22421
L55494 22421
L55571 22383
" />
<path d="M56256 21926
L56180 21888
L56028 21888
L55952 21926
L55913 22002
L55913 22307
L55952 22383
L56028 22421
L56180 22421
L56256 22383
L56294 22307
L56294 22230
L55913 22154
" />
<path d="M56980 21888
L56980 22307
L56942 22383
L56866 22421
L56713 22421
L56637 22383
" />
<path d="M56980 21926
L56904 21888
L56713 21888
L56637 21926
L56599 22002
L56599 22078
L56637 22154
L56713 22192
L56904 22192
L56980 22230
" />
<path d="M57361 21888
L57361 22421
" />
<path d="M57361 22269
L57399 22345
L57437 22383
L57513 22421
L57590 22421
" />
<path d="M58199 21926
L58123 21888
L57971 21888
L57894 21926
L57856 21964
L57818 22040
L57818 22269
L57856 22345
L57894 22383
L57971 22421
L58123 22421
L58199 22383
" />
<path d="M58542 21888
L58542 22688
" />
<path d="M58885 21888
L58885 22307
L58847 22383
L58771 22421
L58656 22421
L58580 22383
L58542 22345
" />
<path d="M60333 21964
L60294 21926
L60180 21888
L60104 21888
L59990 21926
L59913 22002
L59875 22078
L59837 22230
L59837 22345
L59875 22497
L59913 22573
L59990 22650
L60104 22688
L60180 22688
L60294 22650
L60333 22611
" />
<path d="M61018 21888
L61018 22307
L60980 22383
L60904 22421
L60752 22421
L60675 22383
" />
<path d="M61018 21926
L60942 21888
L60752 21888
L60675 21926
L60637 22002
L60637 22078
L60675 22154
L60752 22192
L60942 22192
L61018 22230
" />
<path d="M61399 21888
L61399 22421
" />
<path d="M61399 22345
L61437 22383
L61513 22421
L61628 22421
L61704 22383
L61742 22307
L61742 21888
" />
<path d="M61742 22307
L61780 22383
L61856 22421
L61971 22421
L62047 22383
L62085 22307
L62085 21888
" />
<path d="M62466 22421
L62466 21621
" />
<path d="M62466 22383
L62542 22421
L62694 22421
L62771 22383
L62809 22345
L62847 22269
L62847 22040
L62809 21964
L62771 21926
L62694 21888
L62542 21888
L62466 21926
" />
<path d="M63533 22421
L63533 21888
" />
<path d="M63190 22421
L63190 22002
L63228 21926
L63304 21888
L63418 21888
L63494 21926
L63533 21964
" />
<path d="M63875 21926
L63952 21888
L64104 21888
L64180 21926
L64218 22002
L64218 22040
L64180 22116
L64104 22154
L63990 22154
L63913 22192
L63875 22269
L63875 22307
L63913 22383
L63990 22421
L64104 22421
L64180 22383
" />
<g transform="rotate(-180 56561.6 20850)">
<text x="56561.6" y="21250"
transform="scale(-1 1) translate(-113123.149606 0)"
textLength="10063.8" font-size="1066.67" lengthAdjust="spacingAndGlyphs"
text-anchor="middle" opacity="0">06/2021 ver 1.0</text>
</g>
<path d="M51742 21288
L51818 21288
L51894 21250
L51933 21211
L51971 21135
L52009 20983
L52009 20792
L51971 20640
L51933 20564
L51894 20526
L51818 20488
L51742 20488
L51666 20526
L51628 20564
L51590 20640
L51552 20792
L51552 20983
L51590 21135
L51628 21211
L51666 21250
L51742 21288
" />
<path d="M52694 21288
L52542 21288
L52466 21250
L52428 21211
L52352 21097
L52313 20945
L52313 20640
L52352 20564
L52390 20526
L52466 20488
L52618 20488
L52694 20526
L52733 20564
L52771 20640
L52771 20830
L52733 20907
L52694 20945
L52618 20983
L52466 20983
L52390 20945
L52352 20907
L52313 20830
" />
<path d="M53685 21326
L52999 20297
" />
<path d="M53913 21211
L53952 21250
L54028 21288
L54218 21288
L54294 21250
L54333 21211
L54371 21135
L54371 21059
L54333 20945
L53875 20488
L54371 20488
" />
<path d="M54866 21288
L54942 21288
L55018 21250
L55056 21211
L55094 21135
L55133 20983
L55133 20792
L55094 20640
L55056 20564
L55018 20526
L54942 20488
L54866 20488
L54790 20526
L54752 20564
L54713 20640
L54675 20792
L54675 20983
L54713 21135
L54752 21211
L54790 21250
L54866 21288
" />
<path d="M55437 21211
L55475 21250
L55552 21288
L55742 21288
L55818 21250
L55856 21211
L55894 21135
L55894 21059
L55856 20945
L55399 20488
L55894 20488
" />
<path d="M56656 20488
L56199 20488
" />
<path d="M56428 20488
L56428 21288
L56352 21173
L56275 21097
L56199 21059
" />
<path d="M57533 21021
L57723 20488
L57913 21021
" />
<path d="M58523 20526
L58447 20488
L58294 20488
L58218 20526
L58180 20602
L58180 20907
L58218 20983
L58294 21021
L58447 21021
L58523 20983
L58561 20907
L58561 20830
L58180 20754
" />
<path d="M58904 20488
L58904 21021
" />
<path d="M58904 20869
L58942 20945
L58980 20983
L59056 21021
L59133 21021
" />
<path d="M60428 20488
L59971 20488
" />
<path d="M60199 20488
L60199 21288
L60123 21173
L60047 21097
L59971 21059
" />
<path d="M60771 20564
L60809 20526
L60771 20488
L60733 20526
L60771 20564
L60771 20488
" />
<path d="M61304 21288
L61380 21288
L61456 21250
L61494 21211
L61533 21135
L61571 20983
L61571 20792
L61533 20640
L61494 20564
L61456 20526
L61380 20488
L61304 20488
L61228 20526
L61190 20564
L61152 20640
L61113 20792
L61113 20983
L61152 21135
L61190 21211
L61228 21250
L61304 21288
" />
</g>
<g style="fill:#840084; fill-opacity:0.0; 
stroke:#840084; stroke-width:250; stroke-opacity:1; 
stroke-linecap:round; stroke-linejoin:round;">
<g transform="rotate(-180 31311.6 29000)">
<text x="31311.6" y="29500"
transform="scale(-1 1) translate(-62623.149606 0)"
textLength="1644.76" font-size="1333.33" lengthAdjust="spacingAndGlyphs"
text-anchor="middle" opacity="0">11</text>
</g>
<path d="M31121 28547
L30549 28547
" />
<path d="M30835 28547
L30835 29547
L30740 29404
L30644 29309
L30549 29261
" />
<path d="M32073 28547
L31502 28547
" />
<path d="M31787 28547
L31787 29547
L31692 29404
L31597 29309
L31502 29261
" />
<g transform="rotate(-180 8811.57 51500)">
<text x="8811.57" y="52000"
transform="scale(-1 1) translate(-17623.149606 0)"
textLength="1579.76" font-size="1333.33" lengthAdjust="spacingAndGlyphs"
text-anchor="middle" opacity="0">10</text>
</g>
<path d="M8621 51047
L8049 51047
" />
<path d="M8335 51047
L8335 52047
L8240 51904
L8144 51809
L8049 51761
" />
<path d="M9240 52047
L9335 52047
L9430 52000
L9478 51952
L9525 51857
L9573 51666
L9573 51428
L9525 51238
L9478 51142
L9430 51095
L9335 51047
L9240 51047
L9144 51095
L9097 51142
L9049 51238
L9002 51428
L9002 51666
L9049 51857
L9097 51952
L9144 52000
L9240 52047
" />
<g transform="rotate(-180 31311.6 51500)">
<text x="31311.6" y="52000"
transform="scale(-1 1) translate(-62623.149606 0)"
textLength="627.381" font-size="1333.33" lengthAdjust="spacingAndGlyphs"
text-anchor="middle" opacity="0">9</text>
</g>
<path d="M31121 51047
L31311 51047
L31406 51095
L31454 51142
L31549 51285
L31597 51476
L31597 51857
L31549 51952
L31502 52000
L31406 52047
L31216 52047
L31121 52000
L31073 51952
L31025 51857
L31025 51619
L31073 51523
L31121 51476
L31216 51428
L31406 51428
L31502 51476
L31549 51523
L31597 51619
" />
<g transform="rotate(-180 53811.6 51500)">
<text x="53811.6" y="52000"
transform="scale(-1 1) translate(-107623.149606 0)"
textLength="627.381" font-size="1333.33" lengthAdjust="spacingAndGlyphs"
text-anchor="middle" opacity="0">8</text>
</g>
<path d="M53716 51619
L53621 51666
L53573 51714
L53525 51809
L53525 51857
L53573 51952
L53621 52000
L53716 52047
L53906 52047
L54002 52000
L54049 51952
L54097 51857
L54097 51809
L54049 51714
L54002 51666
L53906 51619
L53716 51619
L53621 51571
L53573 51523
L53525 51428
L53525 51238
L53573 51142
L53621 51095
L53716 51047
L53906 51047
L54002 51095
L54049 51142
L54097 51238
L54097 51428
L54049 51523
L54002 51571
L53906 51619
" />
<g transform="rotate(-180 53811.6 29000)">
<text x="53811.6" y="29500"
transform="scale(-1 1) translate(-107623.149606 0)"
textLength="627.381" font-size="1333.33" lengthAdjust="spacingAndGlyphs"
text-anchor="middle" opacity="0">7</text>
</g>
<path d="M53478 29547
L54144 29547
L53716 28547
" />
<g transform="rotate(-180 76311.6 51500)">
<text x="76311.6" y="52000"
transform="scale(-1 1) translate(-152623.149606 0)"
textLength="627.381" font-size="1333.33" lengthAdjust="spacingAndGlyphs"
text-anchor="middle" opacity="0">6</text>
</g>
<path d="M76502 52047
L76311 52047
L76216 52000
L76168 51952
L76073 51809
L76025 51619
L76025 51238
L76073 51142
L76121 51095
L76216 51047
L76406 51047
L76502 51095
L76549 51142
L76597 51238
L76597 51476
L76549 51571
L76502 51619
L76406 51666
L76216 51666
L76121 51619
L76073 51571
L76025 51476
" />
<g transform="rotate(-180 76311.6 29000)">
<text x="76311.6" y="29500"
transform="scale(-1 1) translate(-152623.149606 0)"
textLength="627.381" font-size="1333.33" lengthAdjust="spacingAndGlyphs"
text-anchor="middle" opacity="0">5</text>
</g>
<path d="M76549 29547
L76073 29547
L76025 29071
L76073 29119
L76168 29166
L76406 29166
L76502 29119
L76549 29071
L76597 28976
L76597 28738
L76549 28642
L76502 28595
L76406 28547
L76168 28547
L76073 28595
L76025 28642
" />
<g transform="rotate(-180 76311.6 6500)">
<text x="76311.6" y="7000"
transform="scale(-1 1) translate(-152623.149606 0)"
textLength="627.381" font-size="1333.33" lengthAdjust="spacingAndGlyphs"
text-anchor="middle" opacity="0">4</text>
</g>
<path d="M76502 6714
L76502 6047
" />
<path d="M76263 7095
L76025 6380
L76644 6380
" />
<g transform="rotate(-180 53811.6 6500)">
<text x="53811.6" y="7000"
transform="scale(-1 1) translate(-107623.149606 0)"
textLength="627.381" font-size="1333.33" lengthAdjust="spacingAndGlyphs"
text-anchor="middle" opacity="0">3</text>
</g>
<path d="M53478 7047
L54097 7047
L53763 6666
L53906 6666
L54002 6619
L54049 6571
L54097 6476
L54097 6238
L54049 6142
L54002 6095
L53906 6047
L53621 6047
L53525 6095
L53478 6142
" />
<g transform="rotate(-180 31311.6 6500)">
<text x="31311.6" y="7000"
transform="scale(-1 1) translate(-62623.149606 0)"
textLength="627.381" font-size="1333.33" lengthAdjust="spacingAndGlyphs"
text-anchor="middle" opacity="0">2</text>
</g>
<path d="M31025 6952
L31073 7000
L31168 7047
L31406 7047
L31502 7000
L31549 6952
L31597 6857
L31597 6761
L31549 6619
L30978 6047
L31597 6047
" />
<g transform="rotate(-180 8811.57 6500)">
<text x="8811.57" y="7000"
transform="scale(-1 1) translate(-17623.149606 0)"
textLength="627.381" font-size="1333.33" lengthAdjust="spacingAndGlyphs"
text-anchor="middle" opacity="0">1</text>
</g>
<path d="M9097 6047
L8525 6047
" />
<path d="M8811 6047
L8811 7047
L8716 6904
L8621 6809
L8525 6761
" />
<g transform="rotate(-180 8811.57 29000)">
<text x="8811.57" y="29500"
transform="scale(-1 1) translate(-17623.149606 0)"
textLength="627.381" font-size="1333.33" lengthAdjust="spacingAndGlyphs"
text-anchor="middle" opacity="0">0</text>
</g>
<path d="M8763 29547
L8859 29547
L8954 29500
L9002 29452
L9049 29357
L9097 29166
L9097 28928
L9049 28738
L9002 28642
L8954 28595
L8859 28547
L8763 28547
L8668 28595
L8621 28642
L8573 28738
L8525 28928
L8525 29166
L8573 29357
L8621 29452
L8668 29500
L8763 29547
" />
</g>
<g style="fill:#840084; fill-opacity:0.0; 
stroke:#840084; stroke-width:110; stroke-opacity:1; 
stroke-linecap:round; stroke-linejoin:round;">
<path d="M2561 42250
L82561 42250
" />
<path d="M65061 2000
L65061 60000
" />
<path d="M47561 2000
L47561 60000
" />
<path d="M37561 2000
L37561 60000
" />
<path d="M20061 2000
L20061 60000
" />
<path d="M2561 19750
L82561 19750
" />
<circle cx="14311.6" cy="25500" r="5000" /> 
</g>
<g style="fill:#840084; fill-opacity:0.0; 
stroke:#840084; stroke-width:50; stroke-opacity:1; 
stroke-linecap:round; stroke-linejoin:round;">
<circle cx="17748.1" cy="25500" r="1000" /> 
<circle cx="14311.6" cy="22063.5" r="1000" /> 
<circle cx="10875" cy="25500" r="1000" /> 
<circle cx="14311.6" cy="28936.5" r="1000" /> 
</g>
<g style="fill:#840084; fill-opacity:0.0; 
stroke:#840084; stroke-width:110; stroke-opacity:1; 
stroke-linecap:round; stroke-linejoin:round;">
<circle cx="14311.6" cy="14000" r="5000" /> 
</g>
<g style="fill:#840084; fill-opacity:0.0; 
stroke:#840084; stroke-width:50; stroke-opacity:1; 
stroke-linecap:round; stroke-linejoin:round;">
<circle cx="14311.6" cy="17436.5" r="1000" /> 
<circle cx="17748.1" cy="14000" r="1000" /> 
<circle cx="14311.6" cy="10563.5" r="1000" /> 
<circle cx="10875" cy="14000" r="1000" /> 
</g>
<g style="fill:#840084; fill-opacity:0.0; 
stroke:#840084; stroke-width:110; stroke-opacity:1; 
stroke-linecap:round; stroke-linejoin:round;">
<circle cx="25811.6" cy="14000" r="5000" /> 
</g>
<g style="fill:#840084; fill-opacity:0.0; 
stroke:#840084; stroke-width:50; stroke-opacity:1; 
stroke-linecap:round; stroke-linejoin:round;">
<circle cx="22375" cy="14000" r="1000" /> 
<circle cx="25811.6" cy="17436.5" r="1000" /> 
<circle cx="29248.1" cy="14000" r="1000" /> 
<circle cx="25811.6" cy="10563.5" r="1000" /> 
</g>
<g style="fill:#840084; fill-opacity:0.0; 
stroke:#840084; stroke-width:110; stroke-opacity:1; 
stroke-linecap:round; stroke-linejoin:round;">
<circle cx="59311.6" cy="14000" r="5000" /> 
</g>
<g style="fill:#840084; fill-opacity:0.0; 
stroke:#840084; stroke-width:50; stroke-opacity:1; 
stroke-linecap:round; stroke-linejoin:round;">
<circle cx="59311.6" cy="17436.5" r="1000" /> 
<circle cx="62748.1" cy="14000" r="1000" /> 
<circle cx="59311.6" cy="10563.5" r="1000" /> 
<circle cx="55875" cy="14000" r="1000" /> 
</g>
<g style="fill:#840084; fill-opacity:0.0; 
stroke:#840084; stroke-width:110; stroke-opacity:1; 
stroke-linecap:round; stroke-linejoin:round;">
<circle cx="70811.6" cy="14000" r="5000" /> 
</g>
<g style="fill:#840084; fill-opacity:0.0; 
stroke:#840084; stroke-width:50; stroke-opacity:1; 
stroke-linecap:round; stroke-linejoin:round;">
<circle cx="67375" cy="14000" r="1000" /> 
<circle cx="70811.6" cy="17436.5" r="1000" /> 
<circle cx="74248.1" cy="14000" r="1000" /> 
<circle cx="70811.6" cy="10563.5" r="1000" /> 
</g>
<g style="fill:#840084; fill-opacity:0.0; 
stroke:#840084; stroke-width:110; stroke-opacity:1; 
stroke-linecap:round; stroke-linejoin:round;">
<circle cx="70811.6" cy="25500" r="5000" /> 
</g>
<g style="fill:#840084; fill-opacity:0.0; 
stroke:#840084; stroke-width:50; stroke-opacity:1; 
stroke-linecap:round; stroke-linejoin:round;">
<circle cx="70811.6" cy="22063.5" r="1000" /> 
<circle cx="67375" cy="25500" r="1000" /> 
<circle cx="70811.6" cy="28936.5" r="1000" /> 
<circle cx="74248.1" cy="25500" r="1000" /> 
</g>
<g style="fill:#840084; fill-opacity:0.0; 
stroke:#840084; stroke-width:110; stroke-opacity:1; 
stroke-linecap:round; stroke-linejoin:round;">
<circle cx="70811.6" cy="48000" r="5000" /> 
</g>
<g style="fill:#840084; fill-opacity:0.0; 
stroke:#840084; stroke-width:50; stroke-opacity:1; 
stroke-linecap:round; stroke-linejoin:round;">
<circle cx="70811.6" cy="44563.5" r="1000" /> 
<circle cx="67375" cy="48000" r="1000" /> 
<circle cx="70811.6" cy="51436.5" r="1000" /> 
<circle cx="74248.1" cy="48000" r="1000" /> 
</g>
<g style="fill:#840084; fill-opacity:0.0; 
stroke:#840084; stroke-width:110; stroke-opacity:1; 
stroke-linecap:round; stroke-linejoin:round;">
<circle cx="59311.6" cy="36500" r="5000" /> 
</g>
<g style="fill:#840084; fill-opacity:0.0; 
stroke:#840084; stroke-width:50; stroke-opacity:1; 
stroke-linecap:round; stroke-linejoin:round;">
<circle cx="59311.6" cy="39936.5" r="1000" /> 
<circle cx="62748.1" cy="36500" r="1000" /> 
<circle cx="59311.6" cy="33063.5" r="1000" /> 
<circle cx="55875" cy="36500" r="1000" /> 
</g>
<g style="fill:#840084; fill-opacity:0.0; 
stroke:#840084; stroke-width:110; stroke-opacity:1; 
stroke-linecap:round; stroke-linejoin:round;">
<circle cx="59311.6" cy="48000" r="5000" /> 
</g>
<g style="fill:#840084; fill-opacity:0.0; 
stroke:#840084; stroke-width:50; stroke-opacity:1; 
stroke-linecap:round; stroke-linejoin:round;">
<circle cx="62748.1" cy="48000" r="1000" /> 
<circle cx="59311.6" cy="44563.5" r="1000" /> 
<circle cx="55875" cy="48000" r="1000" /> 
<circle cx="59311.6" cy="51436.5" r="1000" /> 
</g>
<g style="fill:#840084; fill-opacity:0.0; 
stroke:#840084; stroke-width:110; stroke-opacity:1; 
stroke-linecap:round; stroke-linejoin:round;">
<circle cx="25811.6" cy="48000" r="5000" /> 
</g>
<g style="fill:#840084; fill-opacity:0.0; 
stroke:#840084; stroke-width:50; stroke-opacity:1; 
stroke-linecap:round; stroke-linejoin:round;">
<circle cx="25811.6" cy="44563.5" r="1000" /> 
<circle cx="22375" cy="48000" r="1000" /> 
<circle cx="25811.6" cy="51436.5" r="1000" /> 
<circle cx="29248.1" cy="48000" r="1000" /> 
</g>
<g style="fill:#840084; fill-opacity:0.0; 
stroke:#840084; stroke-width:110; stroke-opacity:1; 
stroke-linecap:round; stroke-linejoin:round;">
<circle cx="14311.6" cy="48000" r="5000" /> 
</g>
<g style="fill:#840084; fill-opacity:0.0; 
stroke:#840084; stroke-width:50; stroke-opacity:1; 
stroke-linecap:round; stroke-linejoin:round;">
<circle cx="17748.1" cy="48000" r="1000" /> 
<circle cx="14311.6" cy="44563.5" r="1000" /> 
<circle cx="10875" cy="48000" r="1000" /> 
<circle cx="14311.6" cy="51436.5" r="1000" /> 
</g>
<g style="fill:#840084; fill-opacity:0.0; 
stroke:#840084; stroke-width:110; stroke-opacity:1; 
stroke-linecap:round; stroke-linejoin:round;">
<circle cx="25811.6" cy="36500" r="5000" /> 
</g>
<g style="fill:#840084; fill-opacity:0.0; 
stroke:#840084; stroke-width:50; stroke-opacity:1; 
stroke-linecap:round; stroke-linejoin:round;">
<circle cx="22375" cy="36500" r="1000" /> 
<circle cx="25811.6" cy="39936.5" r="1000" /> 
<circle cx="29248.1" cy="36500" r="1000" /> 
<circle cx="25811.6" cy="33063.5" r="1000" /> 
<g >
</g>
</g>
<g style="fill:#000000; fill-opacity:0.0; 
stroke:#000000; stroke-width:50; stroke-opacity:1; 
stroke-linecap:round; stroke-linejoin:round;">
</g>
<g style="fill:#C2C200; fill-opacity:0.0; 
stroke:#C2C200; stroke-width:50; stroke-opacity:1; 
stroke-linecap:round; stroke-linejoin:round;">
<path d="M77561 60000
L7561 60000
" />
<path d="M82561 55000
L77561 60000
" />
<path d="M82561 7000
L82561 55000
" />
<path d="M77561 2000
L82561 7000
" />
<path d="M7561 2000
L77561 2000
" />
<path d="M2561 7000
L7561 2000
" />
<path d="M2561 55000
L2561 7000
" />
<path d="M7561 60000
L2561 55000
" />
<g >
</g>
<g >
</g>
<g >
</g>
<g >
</g>
<g >
</g>
<g >
</g>
<g >
</g>
<g >
</g>
<g >
</g>
<g >
</g>
<g >
</g>
<g >
</g>
<g >
</g>
<g >
</g>
<g >
</g>
<g >
</g>
<g >
</g>
<g >
</g>
<g >
</g>
<g >
</g>
<g >
</g>
<g >
</g>
<g >
</g>
<g >
</g>
<g >
</g>
<g >
</g>
<g >
</g>
<g >
</g>
<g >
</g>
<g >
</g>
<g >
</g>
<g >
</g>
<g >
</g>
<g >
</g>
<g >
</g>
<g >
</g>
<g >
</g>
<g >
</g>
<g >
</g>
<g >
</g>
<g >
</g>
<g >
</g>
<g >
</g>
<g >
</g>
<g >
</g>
<g >
</g>
<g >
</g>
<g >
</g>
<g >
</g>
<g >
</g>
<g >
</g>
<g >
</g>
<g >
</g>
<g >
</g>
<g >
</g>
<g >
</g>
<g >
</g>
<g >
</g>
<g >
</g>
<g >
</g>
<g >
</g>
<g >
</g>
<g >
</g>
<g >
</g>
<g >
</g>
<g >
</g>
<g >
</g>
<g >
</g>
<g >
</g>
<g >
</g>
<g >
</g>
<g >
</g>
<g >
</g>
<g >
</g>
<g >
</g>
<g >
</g>
<g >
</g>
<g >
</g>
<g >
</g>
<g >
</g>
<g >
</g>
<g >
</g>
<g >
</g>
<g >
</g>
<g >
</g>
<g >
</g>
<g >
</g>
<g >
</g>
<g >
</g>
<g >
</g>
<g >
</g>
<g >
</g>
<g >
</g>
<g >
</g>
<g >
</g>
<g >
</g>
<g >
</g>
<g >
</g>
<g >
</g>
<g >
</g>
<g >
</g>
<g >
</g>
<g >
</g>
<g >
</g>
<g >
</g>
<g >
</g>
<g >
</g>
<g >
</g>
<g >
</g>
<g >
</g>
<g >
</g>
<g >
</g>
<g >
</g>
<g >
</g>
<g >
</g>
<g >
</g>
<g >
</g>
<g >
</g>
<g >
</g>
<g >
</g>
<g >
</g>
<g >
</g>
<g >
</g>
<g >
</g>
<g >
</g>
<g >
</g>
<g >
</g>
<g >
</g>
<g >
</g>
<g >
</g>
<g >
</g>
<g >
</g>
<g >
</g>
<g >
</g>
<g >
</g>
<g >
</g>
<g >
</g>
<g >
</g>
<g >
</g>
<g >
</g>
<g >
</g>
<g >
</g>
<g >
</g>
<g >
</g>
<g >
</g>
<g >
</g>
<g >
</g>
<g >
</g>
<g >
</g>
<g >
</g>
<g >
</g>
<g >
</g>
<g >
</g>
<g >
</g>
<g >
</g>
<g >
</g>
<g >
</g>
<g >
</g>
<g >
</g>
<g >
</g>
<g >
</g>
<g >
</g>
<g >
</g>
<g >
</g>
<g >
</g>
<g >
</g>
<g >
</g>
<g >
</g>
<g >
</g>
<g >
</g>
<g >
</g>
<g >
</g>
<g >
</g>
<g >
</g>
<g >
</g>
<g >
</g>
<g >
</g>
<g >
</g>
<g >
</g>
<g >
</g>
<g >
</g>
<g >
</g>
<g >
</g>
<g >
</g>
<g >
</g>
<g >
</g>
<g >
</g>
<g >
</g>
<g >
</g>
<g >
</g>
</g> 
</svg>
