%TF.GenerationSoftware,KiCad,Pcbnew,5.1.10-88a1d61d58~88~ubuntu20.10.1*%
%TF.CreationDate,2021-06-17T10:47:31-04:00*%
%TF.ProjectId,lickport_array_module,6c69636b-706f-4727-945f-61727261795f,1.0*%
%TF.SameCoordinates,Original*%
%TF.FileFunction,Legend,Bot*%
%TF.FilePolarity,Positive*%
%FSLAX46Y46*%
G04 Gerber Fmt 4.6, Leading zero omitted, Abs format (unit mm)*
G04 Created by KiCad (PCBNEW 5.1.10-88a1d61d58~88~ubuntu20.10.1) date 2021-06-17 10:47:31*
%MOMM*%
%LPD*%
G01*
G04 APERTURE LIST*
%ADD10C,0.508000*%
%ADD11C,0.635000*%
%ADD12C,0.279400*%
%ADD13C,0.127000*%
%ADD14C,1.900000*%
%ADD15C,4.500000*%
%ADD16C,3.810000*%
%ADD17O,2.540000X1.524000*%
%ADD18R,2.540000X1.524000*%
%ADD19C,3.000000*%
%ADD20C,1.750000*%
%ADD21R,1.750000X1.750000*%
%ADD22O,3.500000X2.500000*%
%ADD23R,3.500000X2.500000*%
%ADD24O,2.500000X3.500000*%
%ADD25R,2.500000X3.500000*%
%ADD26C,3.556000*%
%ADD27C,5.511800*%
G04 APERTURE END LIST*
D10*
X159342666Y-69311761D02*
X159149142Y-69408523D01*
X159052380Y-69602047D01*
X159052380Y-71343761D01*
X160116761Y-69311761D02*
X160116761Y-70666428D01*
X160116761Y-71343761D02*
X160020000Y-71247000D01*
X160116761Y-71150238D01*
X160213523Y-71247000D01*
X160116761Y-71343761D01*
X160116761Y-71150238D01*
X161955238Y-69408523D02*
X161761714Y-69311761D01*
X161374666Y-69311761D01*
X161181142Y-69408523D01*
X161084380Y-69505285D01*
X160987619Y-69698809D01*
X160987619Y-70279380D01*
X161084380Y-70472904D01*
X161181142Y-70569666D01*
X161374666Y-70666428D01*
X161761714Y-70666428D01*
X161955238Y-70569666D01*
X162826095Y-69311761D02*
X162826095Y-71343761D01*
X163019619Y-70085857D02*
X163600190Y-69311761D01*
X163600190Y-70666428D02*
X162826095Y-69892333D01*
X164471047Y-70666428D02*
X164471047Y-68634428D01*
X164471047Y-70569666D02*
X164664571Y-70666428D01*
X165051619Y-70666428D01*
X165245142Y-70569666D01*
X165341904Y-70472904D01*
X165438666Y-70279380D01*
X165438666Y-69698809D01*
X165341904Y-69505285D01*
X165245142Y-69408523D01*
X165051619Y-69311761D01*
X164664571Y-69311761D01*
X164471047Y-69408523D01*
X166599809Y-69311761D02*
X166406285Y-69408523D01*
X166309523Y-69505285D01*
X166212761Y-69698809D01*
X166212761Y-70279380D01*
X166309523Y-70472904D01*
X166406285Y-70569666D01*
X166599809Y-70666428D01*
X166890095Y-70666428D01*
X167083619Y-70569666D01*
X167180380Y-70472904D01*
X167277142Y-70279380D01*
X167277142Y-69698809D01*
X167180380Y-69505285D01*
X167083619Y-69408523D01*
X166890095Y-69311761D01*
X166599809Y-69311761D01*
X168148000Y-69311761D02*
X168148000Y-70666428D01*
X168148000Y-70279380D02*
X168244761Y-70472904D01*
X168341523Y-70569666D01*
X168535047Y-70666428D01*
X168728571Y-70666428D01*
X169115619Y-70666428D02*
X169889714Y-70666428D01*
X169405904Y-71343761D02*
X169405904Y-69602047D01*
X169502666Y-69408523D01*
X169696190Y-69311761D01*
X169889714Y-69311761D01*
X170083238Y-69118238D02*
X171631428Y-69118238D01*
X172986095Y-69311761D02*
X172986095Y-70376142D01*
X172889333Y-70569666D01*
X172695809Y-70666428D01*
X172308761Y-70666428D01*
X172115238Y-70569666D01*
X172986095Y-69408523D02*
X172792571Y-69311761D01*
X172308761Y-69311761D01*
X172115238Y-69408523D01*
X172018476Y-69602047D01*
X172018476Y-69795571D01*
X172115238Y-69989095D01*
X172308761Y-70085857D01*
X172792571Y-70085857D01*
X172986095Y-70182619D01*
X173953714Y-69311761D02*
X173953714Y-70666428D01*
X173953714Y-70279380D02*
X174050476Y-70472904D01*
X174147238Y-70569666D01*
X174340761Y-70666428D01*
X174534285Y-70666428D01*
X175211619Y-69311761D02*
X175211619Y-70666428D01*
X175211619Y-70279380D02*
X175308380Y-70472904D01*
X175405142Y-70569666D01*
X175598666Y-70666428D01*
X175792190Y-70666428D01*
X177340380Y-69311761D02*
X177340380Y-70376142D01*
X177243619Y-70569666D01*
X177050095Y-70666428D01*
X176663047Y-70666428D01*
X176469523Y-70569666D01*
X177340380Y-69408523D02*
X177146857Y-69311761D01*
X176663047Y-69311761D01*
X176469523Y-69408523D01*
X176372761Y-69602047D01*
X176372761Y-69795571D01*
X176469523Y-69989095D01*
X176663047Y-70085857D01*
X177146857Y-70085857D01*
X177340380Y-70182619D01*
X178114476Y-70666428D02*
X178598285Y-69311761D01*
X179082095Y-70666428D02*
X178598285Y-69311761D01*
X178404761Y-68827952D01*
X178308000Y-68731190D01*
X178114476Y-68634428D01*
X179372380Y-69118238D02*
X180920571Y-69118238D01*
X181404380Y-69311761D02*
X181404380Y-70666428D01*
X181404380Y-70472904D02*
X181501142Y-70569666D01*
X181694666Y-70666428D01*
X181984952Y-70666428D01*
X182178476Y-70569666D01*
X182275238Y-70376142D01*
X182275238Y-69311761D01*
X182275238Y-70376142D02*
X182372000Y-70569666D01*
X182565523Y-70666428D01*
X182855809Y-70666428D01*
X183049333Y-70569666D01*
X183146095Y-70376142D01*
X183146095Y-69311761D01*
X184404000Y-69311761D02*
X184210476Y-69408523D01*
X184113714Y-69505285D01*
X184016952Y-69698809D01*
X184016952Y-70279380D01*
X184113714Y-70472904D01*
X184210476Y-70569666D01*
X184404000Y-70666428D01*
X184694285Y-70666428D01*
X184887809Y-70569666D01*
X184984571Y-70472904D01*
X185081333Y-70279380D01*
X185081333Y-69698809D01*
X184984571Y-69505285D01*
X184887809Y-69408523D01*
X184694285Y-69311761D01*
X184404000Y-69311761D01*
X186823047Y-69311761D02*
X186823047Y-71343761D01*
X186823047Y-69408523D02*
X186629523Y-69311761D01*
X186242476Y-69311761D01*
X186048952Y-69408523D01*
X185952190Y-69505285D01*
X185855428Y-69698809D01*
X185855428Y-70279380D01*
X185952190Y-70472904D01*
X186048952Y-70569666D01*
X186242476Y-70666428D01*
X186629523Y-70666428D01*
X186823047Y-70569666D01*
X188661523Y-70666428D02*
X188661523Y-69311761D01*
X187790666Y-70666428D02*
X187790666Y-69602047D01*
X187887428Y-69408523D01*
X188080952Y-69311761D01*
X188371238Y-69311761D01*
X188564761Y-69408523D01*
X188661523Y-69505285D01*
X189919428Y-69311761D02*
X189725904Y-69408523D01*
X189629142Y-69602047D01*
X189629142Y-71343761D01*
X191467619Y-69408523D02*
X191274095Y-69311761D01*
X190887047Y-69311761D01*
X190693523Y-69408523D01*
X190596761Y-69602047D01*
X190596761Y-70376142D01*
X190693523Y-70569666D01*
X190887047Y-70666428D01*
X191274095Y-70666428D01*
X191467619Y-70569666D01*
X191564380Y-70376142D01*
X191564380Y-70182619D01*
X190596761Y-69989095D01*
X156488190Y-67787761D02*
X156488190Y-66336333D01*
X156391428Y-66046047D01*
X156197904Y-65852523D01*
X155907619Y-65755761D01*
X155714095Y-65755761D01*
X158326666Y-65755761D02*
X158326666Y-66820142D01*
X158229904Y-67013666D01*
X158036380Y-67110428D01*
X157649333Y-67110428D01*
X157455809Y-67013666D01*
X158326666Y-65852523D02*
X158133142Y-65755761D01*
X157649333Y-65755761D01*
X157455809Y-65852523D01*
X157359047Y-66046047D01*
X157359047Y-66239571D01*
X157455809Y-66433095D01*
X157649333Y-66529857D01*
X158133142Y-66529857D01*
X158326666Y-66626619D01*
X159294285Y-67110428D02*
X159294285Y-65755761D01*
X159294285Y-66916904D02*
X159391047Y-67013666D01*
X159584571Y-67110428D01*
X159874857Y-67110428D01*
X160068380Y-67013666D01*
X160165142Y-66820142D01*
X160165142Y-65755761D01*
X161906857Y-65852523D02*
X161713333Y-65755761D01*
X161326285Y-65755761D01*
X161132761Y-65852523D01*
X161036000Y-66046047D01*
X161036000Y-66820142D01*
X161132761Y-67013666D01*
X161326285Y-67110428D01*
X161713333Y-67110428D01*
X161906857Y-67013666D01*
X162003619Y-66820142D01*
X162003619Y-66626619D01*
X161036000Y-66433095D01*
X163164761Y-65755761D02*
X162971238Y-65852523D01*
X162874476Y-66046047D01*
X162874476Y-67787761D01*
X163938857Y-65755761D02*
X163938857Y-67110428D01*
X163938857Y-67787761D02*
X163842095Y-67691000D01*
X163938857Y-67594238D01*
X164035619Y-67691000D01*
X163938857Y-67787761D01*
X163938857Y-67594238D01*
X165777333Y-65755761D02*
X165777333Y-66820142D01*
X165680571Y-67013666D01*
X165487047Y-67110428D01*
X165100000Y-67110428D01*
X164906476Y-67013666D01*
X165777333Y-65852523D02*
X165583809Y-65755761D01*
X165100000Y-65755761D01*
X164906476Y-65852523D01*
X164809714Y-66046047D01*
X164809714Y-66239571D01*
X164906476Y-66433095D01*
X165100000Y-66529857D01*
X165583809Y-66529857D01*
X165777333Y-66626619D01*
X169454285Y-65755761D02*
X168776952Y-66723380D01*
X168293142Y-65755761D02*
X168293142Y-67787761D01*
X169067238Y-67787761D01*
X169260761Y-67691000D01*
X169357523Y-67594238D01*
X169454285Y-67400714D01*
X169454285Y-67110428D01*
X169357523Y-66916904D01*
X169260761Y-66820142D01*
X169067238Y-66723380D01*
X168293142Y-66723380D01*
X171099238Y-65852523D02*
X170905714Y-65755761D01*
X170518666Y-65755761D01*
X170325142Y-65852523D01*
X170228380Y-66046047D01*
X170228380Y-66820142D01*
X170325142Y-67013666D01*
X170518666Y-67110428D01*
X170905714Y-67110428D01*
X171099238Y-67013666D01*
X171196000Y-66820142D01*
X171196000Y-66626619D01*
X170228380Y-66433095D01*
X171970095Y-65852523D02*
X172163619Y-65755761D01*
X172550666Y-65755761D01*
X172744190Y-65852523D01*
X172840952Y-66046047D01*
X172840952Y-66142809D01*
X172744190Y-66336333D01*
X172550666Y-66433095D01*
X172260380Y-66433095D01*
X172066857Y-66529857D01*
X171970095Y-66723380D01*
X171970095Y-66820142D01*
X172066857Y-67013666D01*
X172260380Y-67110428D01*
X172550666Y-67110428D01*
X172744190Y-67013666D01*
X174485904Y-65852523D02*
X174292380Y-65755761D01*
X173905333Y-65755761D01*
X173711809Y-65852523D01*
X173615047Y-66046047D01*
X173615047Y-66820142D01*
X173711809Y-67013666D01*
X173905333Y-67110428D01*
X174292380Y-67110428D01*
X174485904Y-67013666D01*
X174582666Y-66820142D01*
X174582666Y-66626619D01*
X173615047Y-66433095D01*
X176324380Y-65755761D02*
X176324380Y-66820142D01*
X176227619Y-67013666D01*
X176034095Y-67110428D01*
X175647047Y-67110428D01*
X175453523Y-67013666D01*
X176324380Y-65852523D02*
X176130857Y-65755761D01*
X175647047Y-65755761D01*
X175453523Y-65852523D01*
X175356761Y-66046047D01*
X175356761Y-66239571D01*
X175453523Y-66433095D01*
X175647047Y-66529857D01*
X176130857Y-66529857D01*
X176324380Y-66626619D01*
X177292000Y-65755761D02*
X177292000Y-67110428D01*
X177292000Y-66723380D02*
X177388761Y-66916904D01*
X177485523Y-67013666D01*
X177679047Y-67110428D01*
X177872571Y-67110428D01*
X179420761Y-65852523D02*
X179227238Y-65755761D01*
X178840190Y-65755761D01*
X178646666Y-65852523D01*
X178549904Y-65949285D01*
X178453142Y-66142809D01*
X178453142Y-66723380D01*
X178549904Y-66916904D01*
X178646666Y-67013666D01*
X178840190Y-67110428D01*
X179227238Y-67110428D01*
X179420761Y-67013666D01*
X180291619Y-65755761D02*
X180291619Y-67787761D01*
X181162476Y-65755761D02*
X181162476Y-66820142D01*
X181065714Y-67013666D01*
X180872190Y-67110428D01*
X180581904Y-67110428D01*
X180388380Y-67013666D01*
X180291619Y-66916904D01*
X184839428Y-65949285D02*
X184742666Y-65852523D01*
X184452380Y-65755761D01*
X184258857Y-65755761D01*
X183968571Y-65852523D01*
X183775047Y-66046047D01*
X183678285Y-66239571D01*
X183581523Y-66626619D01*
X183581523Y-66916904D01*
X183678285Y-67303952D01*
X183775047Y-67497476D01*
X183968571Y-67691000D01*
X184258857Y-67787761D01*
X184452380Y-67787761D01*
X184742666Y-67691000D01*
X184839428Y-67594238D01*
X186581142Y-65755761D02*
X186581142Y-66820142D01*
X186484380Y-67013666D01*
X186290857Y-67110428D01*
X185903809Y-67110428D01*
X185710285Y-67013666D01*
X186581142Y-65852523D02*
X186387619Y-65755761D01*
X185903809Y-65755761D01*
X185710285Y-65852523D01*
X185613523Y-66046047D01*
X185613523Y-66239571D01*
X185710285Y-66433095D01*
X185903809Y-66529857D01*
X186387619Y-66529857D01*
X186581142Y-66626619D01*
X187548761Y-65755761D02*
X187548761Y-67110428D01*
X187548761Y-66916904D02*
X187645523Y-67013666D01*
X187839047Y-67110428D01*
X188129333Y-67110428D01*
X188322857Y-67013666D01*
X188419619Y-66820142D01*
X188419619Y-65755761D01*
X188419619Y-66820142D02*
X188516380Y-67013666D01*
X188709904Y-67110428D01*
X189000190Y-67110428D01*
X189193714Y-67013666D01*
X189290476Y-66820142D01*
X189290476Y-65755761D01*
X190258095Y-67110428D02*
X190258095Y-65078428D01*
X190258095Y-67013666D02*
X190451619Y-67110428D01*
X190838666Y-67110428D01*
X191032190Y-67013666D01*
X191128952Y-66916904D01*
X191225714Y-66723380D01*
X191225714Y-66142809D01*
X191128952Y-65949285D01*
X191032190Y-65852523D01*
X190838666Y-65755761D01*
X190451619Y-65755761D01*
X190258095Y-65852523D01*
X192967428Y-67110428D02*
X192967428Y-65755761D01*
X192096571Y-67110428D02*
X192096571Y-66046047D01*
X192193333Y-65852523D01*
X192386857Y-65755761D01*
X192677142Y-65755761D01*
X192870666Y-65852523D01*
X192967428Y-65949285D01*
X193838285Y-65852523D02*
X194031809Y-65755761D01*
X194418857Y-65755761D01*
X194612380Y-65852523D01*
X194709142Y-66046047D01*
X194709142Y-66142809D01*
X194612380Y-66336333D01*
X194418857Y-66433095D01*
X194128571Y-66433095D01*
X193935047Y-66529857D01*
X193838285Y-66723380D01*
X193838285Y-66820142D01*
X193935047Y-67013666D01*
X194128571Y-67110428D01*
X194418857Y-67110428D01*
X194612380Y-67013666D01*
X163019619Y-64231761D02*
X163213142Y-64231761D01*
X163406666Y-64135000D01*
X163503428Y-64038238D01*
X163600190Y-63844714D01*
X163696952Y-63457666D01*
X163696952Y-62973857D01*
X163600190Y-62586809D01*
X163503428Y-62393285D01*
X163406666Y-62296523D01*
X163213142Y-62199761D01*
X163019619Y-62199761D01*
X162826095Y-62296523D01*
X162729333Y-62393285D01*
X162632571Y-62586809D01*
X162535809Y-62973857D01*
X162535809Y-63457666D01*
X162632571Y-63844714D01*
X162729333Y-64038238D01*
X162826095Y-64135000D01*
X163019619Y-64231761D01*
X165438666Y-64231761D02*
X165051619Y-64231761D01*
X164858095Y-64135000D01*
X164761333Y-64038238D01*
X164567809Y-63747952D01*
X164471047Y-63360904D01*
X164471047Y-62586809D01*
X164567809Y-62393285D01*
X164664571Y-62296523D01*
X164858095Y-62199761D01*
X165245142Y-62199761D01*
X165438666Y-62296523D01*
X165535428Y-62393285D01*
X165632190Y-62586809D01*
X165632190Y-63070619D01*
X165535428Y-63264142D01*
X165438666Y-63360904D01*
X165245142Y-63457666D01*
X164858095Y-63457666D01*
X164664571Y-63360904D01*
X164567809Y-63264142D01*
X164471047Y-63070619D01*
X167954476Y-64328523D02*
X166212761Y-61715952D01*
X168535047Y-64038238D02*
X168631809Y-64135000D01*
X168825333Y-64231761D01*
X169309142Y-64231761D01*
X169502666Y-64135000D01*
X169599428Y-64038238D01*
X169696190Y-63844714D01*
X169696190Y-63651190D01*
X169599428Y-63360904D01*
X168438285Y-62199761D01*
X169696190Y-62199761D01*
X170954095Y-64231761D02*
X171147619Y-64231761D01*
X171341142Y-64135000D01*
X171437904Y-64038238D01*
X171534666Y-63844714D01*
X171631428Y-63457666D01*
X171631428Y-62973857D01*
X171534666Y-62586809D01*
X171437904Y-62393285D01*
X171341142Y-62296523D01*
X171147619Y-62199761D01*
X170954095Y-62199761D01*
X170760571Y-62296523D01*
X170663809Y-62393285D01*
X170567047Y-62586809D01*
X170470285Y-62973857D01*
X170470285Y-63457666D01*
X170567047Y-63844714D01*
X170663809Y-64038238D01*
X170760571Y-64135000D01*
X170954095Y-64231761D01*
X172405523Y-64038238D02*
X172502285Y-64135000D01*
X172695809Y-64231761D01*
X173179619Y-64231761D01*
X173373142Y-64135000D01*
X173469904Y-64038238D01*
X173566666Y-63844714D01*
X173566666Y-63651190D01*
X173469904Y-63360904D01*
X172308761Y-62199761D01*
X173566666Y-62199761D01*
X175501904Y-62199761D02*
X174340761Y-62199761D01*
X174921333Y-62199761D02*
X174921333Y-64231761D01*
X174727809Y-63941476D01*
X174534285Y-63747952D01*
X174340761Y-63651190D01*
X177727428Y-63554428D02*
X178211238Y-62199761D01*
X178695047Y-63554428D01*
X180243238Y-62296523D02*
X180049714Y-62199761D01*
X179662666Y-62199761D01*
X179469142Y-62296523D01*
X179372380Y-62490047D01*
X179372380Y-63264142D01*
X179469142Y-63457666D01*
X179662666Y-63554428D01*
X180049714Y-63554428D01*
X180243238Y-63457666D01*
X180340000Y-63264142D01*
X180340000Y-63070619D01*
X179372380Y-62877095D01*
X181210857Y-62199761D02*
X181210857Y-63554428D01*
X181210857Y-63167380D02*
X181307619Y-63360904D01*
X181404380Y-63457666D01*
X181597904Y-63554428D01*
X181791428Y-63554428D01*
X185081333Y-62199761D02*
X183920190Y-62199761D01*
X184500761Y-62199761D02*
X184500761Y-64231761D01*
X184307238Y-63941476D01*
X184113714Y-63747952D01*
X183920190Y-63651190D01*
X185952190Y-62393285D02*
X186048952Y-62296523D01*
X185952190Y-62199761D01*
X185855428Y-62296523D01*
X185952190Y-62393285D01*
X185952190Y-62199761D01*
X187306857Y-64231761D02*
X187500380Y-64231761D01*
X187693904Y-64135000D01*
X187790666Y-64038238D01*
X187887428Y-63844714D01*
X187984190Y-63457666D01*
X187984190Y-62973857D01*
X187887428Y-62586809D01*
X187790666Y-62393285D01*
X187693904Y-62296523D01*
X187500380Y-62199761D01*
X187306857Y-62199761D01*
X187113333Y-62296523D01*
X187016571Y-62393285D01*
X186919809Y-62586809D01*
X186823047Y-62973857D01*
X186823047Y-63457666D01*
X186919809Y-63844714D01*
X187016571Y-64038238D01*
X187113333Y-64135000D01*
X187306857Y-64231761D01*
D11*
X110641190Y-82670952D02*
X109189761Y-82670952D01*
X109915476Y-82670952D02*
X109915476Y-85210952D01*
X109673571Y-84848095D01*
X109431666Y-84606190D01*
X109189761Y-84485238D01*
X113060238Y-82670952D02*
X111608809Y-82670952D01*
X112334523Y-82670952D02*
X112334523Y-85210952D01*
X112092619Y-84848095D01*
X111850714Y-84606190D01*
X111608809Y-84485238D01*
X53491190Y-139820952D02*
X52039761Y-139820952D01*
X52765476Y-139820952D02*
X52765476Y-142360952D01*
X52523571Y-141998095D01*
X52281666Y-141756190D01*
X52039761Y-141635238D01*
X55063571Y-142360952D02*
X55305476Y-142360952D01*
X55547380Y-142240000D01*
X55668333Y-142119047D01*
X55789285Y-141877142D01*
X55910238Y-141393333D01*
X55910238Y-140788571D01*
X55789285Y-140304761D01*
X55668333Y-140062857D01*
X55547380Y-139941904D01*
X55305476Y-139820952D01*
X55063571Y-139820952D01*
X54821666Y-139941904D01*
X54700714Y-140062857D01*
X54579761Y-140304761D01*
X54458809Y-140788571D01*
X54458809Y-141393333D01*
X54579761Y-141877142D01*
X54700714Y-142119047D01*
X54821666Y-142240000D01*
X55063571Y-142360952D01*
X110641190Y-139820952D02*
X111125000Y-139820952D01*
X111366904Y-139941904D01*
X111487857Y-140062857D01*
X111729761Y-140425714D01*
X111850714Y-140909523D01*
X111850714Y-141877142D01*
X111729761Y-142119047D01*
X111608809Y-142240000D01*
X111366904Y-142360952D01*
X110883095Y-142360952D01*
X110641190Y-142240000D01*
X110520238Y-142119047D01*
X110399285Y-141877142D01*
X110399285Y-141272380D01*
X110520238Y-141030476D01*
X110641190Y-140909523D01*
X110883095Y-140788571D01*
X111366904Y-140788571D01*
X111608809Y-140909523D01*
X111729761Y-141030476D01*
X111850714Y-141272380D01*
X168033095Y-141272380D02*
X167791190Y-141393333D01*
X167670238Y-141514285D01*
X167549285Y-141756190D01*
X167549285Y-141877142D01*
X167670238Y-142119047D01*
X167791190Y-142240000D01*
X168033095Y-142360952D01*
X168516904Y-142360952D01*
X168758809Y-142240000D01*
X168879761Y-142119047D01*
X169000714Y-141877142D01*
X169000714Y-141756190D01*
X168879761Y-141514285D01*
X168758809Y-141393333D01*
X168516904Y-141272380D01*
X168033095Y-141272380D01*
X167791190Y-141151428D01*
X167670238Y-141030476D01*
X167549285Y-140788571D01*
X167549285Y-140304761D01*
X167670238Y-140062857D01*
X167791190Y-139941904D01*
X168033095Y-139820952D01*
X168516904Y-139820952D01*
X168758809Y-139941904D01*
X168879761Y-140062857D01*
X169000714Y-140304761D01*
X169000714Y-140788571D01*
X168879761Y-141030476D01*
X168758809Y-141151428D01*
X168516904Y-141272380D01*
X167428333Y-85210952D02*
X169121666Y-85210952D01*
X168033095Y-82670952D01*
X225908809Y-142360952D02*
X225425000Y-142360952D01*
X225183095Y-142240000D01*
X225062142Y-142119047D01*
X224820238Y-141756190D01*
X224699285Y-141272380D01*
X224699285Y-140304761D01*
X224820238Y-140062857D01*
X224941190Y-139941904D01*
X225183095Y-139820952D01*
X225666904Y-139820952D01*
X225908809Y-139941904D01*
X226029761Y-140062857D01*
X226150714Y-140304761D01*
X226150714Y-140909523D01*
X226029761Y-141151428D01*
X225908809Y-141272380D01*
X225666904Y-141393333D01*
X225183095Y-141393333D01*
X224941190Y-141272380D01*
X224820238Y-141151428D01*
X224699285Y-140909523D01*
X226029761Y-85210952D02*
X224820238Y-85210952D01*
X224699285Y-84001428D01*
X224820238Y-84122380D01*
X225062142Y-84243333D01*
X225666904Y-84243333D01*
X225908809Y-84122380D01*
X226029761Y-84001428D01*
X226150714Y-83759523D01*
X226150714Y-83154761D01*
X226029761Y-82912857D01*
X225908809Y-82791904D01*
X225666904Y-82670952D01*
X225062142Y-82670952D01*
X224820238Y-82791904D01*
X224699285Y-82912857D01*
X225908809Y-27214285D02*
X225908809Y-25520952D01*
X225304047Y-28181904D02*
X224699285Y-26367619D01*
X226271666Y-26367619D01*
X167428333Y-28060952D02*
X169000714Y-28060952D01*
X168154047Y-27093333D01*
X168516904Y-27093333D01*
X168758809Y-26972380D01*
X168879761Y-26851428D01*
X169000714Y-26609523D01*
X169000714Y-26004761D01*
X168879761Y-25762857D01*
X168758809Y-25641904D01*
X168516904Y-25520952D01*
X167791190Y-25520952D01*
X167549285Y-25641904D01*
X167428333Y-25762857D01*
X110399285Y-27819047D02*
X110520238Y-27940000D01*
X110762142Y-28060952D01*
X111366904Y-28060952D01*
X111608809Y-27940000D01*
X111729761Y-27819047D01*
X111850714Y-27577142D01*
X111850714Y-27335238D01*
X111729761Y-26972380D01*
X110278333Y-25520952D01*
X111850714Y-25520952D01*
X54700714Y-25520952D02*
X53249285Y-25520952D01*
X53975000Y-25520952D02*
X53975000Y-28060952D01*
X53733095Y-27698095D01*
X53491190Y-27456190D01*
X53249285Y-27335238D01*
X53854047Y-85210952D02*
X54095952Y-85210952D01*
X54337857Y-85090000D01*
X54458809Y-84969047D01*
X54579761Y-84727142D01*
X54700714Y-84243333D01*
X54700714Y-83638571D01*
X54579761Y-83154761D01*
X54458809Y-82912857D01*
X54337857Y-82791904D01*
X54095952Y-82670952D01*
X53854047Y-82670952D01*
X53612142Y-82791904D01*
X53491190Y-82912857D01*
X53370238Y-83154761D01*
X53249285Y-83638571D01*
X53249285Y-84243333D01*
X53370238Y-84727142D01*
X53491190Y-84969047D01*
X53612142Y-85090000D01*
X53854047Y-85210952D01*
D12*
X38100000Y-117475000D02*
X241300000Y-117475000D01*
X196850000Y-15240000D02*
X196850000Y-162560000D01*
X152400000Y-15240000D02*
X152400000Y-162560000D01*
X127000000Y-15240000D02*
X127000000Y-162560000D01*
X82550000Y-15240000D02*
X82550000Y-162560000D01*
X38100000Y-60325000D02*
X241300000Y-60325000D01*
%TO.C,S1*%
X80645000Y-74930000D02*
G75*
G03*
X80645000Y-74930000I-12700000J0D01*
G01*
D13*
X79213809Y-74930000D02*
G75*
G03*
X79213809Y-74930000I-2540000J0D01*
G01*
X70485000Y-66201191D02*
G75*
G03*
X70485000Y-66201191I-2540000J0D01*
G01*
X61756191Y-74930000D02*
G75*
G03*
X61756191Y-74930000I-2540000J0D01*
G01*
X70485000Y-83658809D02*
G75*
G03*
X70485000Y-83658809I-2540000J0D01*
G01*
D12*
%TO.C,S2*%
X80645000Y-45720000D02*
G75*
G03*
X80645000Y-45720000I-12700000J0D01*
G01*
D13*
X70485000Y-54448809D02*
G75*
G03*
X70485000Y-54448809I-2540000J0D01*
G01*
X79213809Y-45720000D02*
G75*
G03*
X79213809Y-45720000I-2540000J0D01*
G01*
X70485000Y-36991191D02*
G75*
G03*
X70485000Y-36991191I-2540000J0D01*
G01*
X61756191Y-45720000D02*
G75*
G03*
X61756191Y-45720000I-2540000J0D01*
G01*
D12*
%TO.C,S3*%
X109855000Y-45720000D02*
G75*
G03*
X109855000Y-45720000I-12700000J0D01*
G01*
D13*
X90966191Y-45720000D02*
G75*
G03*
X90966191Y-45720000I-2540000J0D01*
G01*
X99695000Y-54448809D02*
G75*
G03*
X99695000Y-54448809I-2540000J0D01*
G01*
X108423809Y-45720000D02*
G75*
G03*
X108423809Y-45720000I-2540000J0D01*
G01*
X99695000Y-36991191D02*
G75*
G03*
X99695000Y-36991191I-2540000J0D01*
G01*
D12*
%TO.C,S4*%
X194945000Y-45720000D02*
G75*
G03*
X194945000Y-45720000I-12700000J0D01*
G01*
D13*
X184785000Y-54448809D02*
G75*
G03*
X184785000Y-54448809I-2540000J0D01*
G01*
X193513809Y-45720000D02*
G75*
G03*
X193513809Y-45720000I-2540000J0D01*
G01*
X184785000Y-36991191D02*
G75*
G03*
X184785000Y-36991191I-2540000J0D01*
G01*
X176056191Y-45720000D02*
G75*
G03*
X176056191Y-45720000I-2540000J0D01*
G01*
D12*
%TO.C,S5*%
X224155000Y-45720000D02*
G75*
G03*
X224155000Y-45720000I-12700000J0D01*
G01*
D13*
X205266191Y-45720000D02*
G75*
G03*
X205266191Y-45720000I-2540000J0D01*
G01*
X213995000Y-54448809D02*
G75*
G03*
X213995000Y-54448809I-2540000J0D01*
G01*
X222723809Y-45720000D02*
G75*
G03*
X222723809Y-45720000I-2540000J0D01*
G01*
X213995000Y-36991191D02*
G75*
G03*
X213995000Y-36991191I-2540000J0D01*
G01*
D12*
%TO.C,S6*%
X224155000Y-74930000D02*
G75*
G03*
X224155000Y-74930000I-12700000J0D01*
G01*
D13*
X213995000Y-66201191D02*
G75*
G03*
X213995000Y-66201191I-2540000J0D01*
G01*
X205266191Y-74930000D02*
G75*
G03*
X205266191Y-74930000I-2540000J0D01*
G01*
X213995000Y-83658809D02*
G75*
G03*
X213995000Y-83658809I-2540000J0D01*
G01*
X222723809Y-74930000D02*
G75*
G03*
X222723809Y-74930000I-2540000J0D01*
G01*
D12*
%TO.C,S7*%
X224155000Y-132080000D02*
G75*
G03*
X224155000Y-132080000I-12700000J0D01*
G01*
D13*
X213995000Y-123351191D02*
G75*
G03*
X213995000Y-123351191I-2540000J0D01*
G01*
X205266191Y-132080000D02*
G75*
G03*
X205266191Y-132080000I-2540000J0D01*
G01*
X213995000Y-140808809D02*
G75*
G03*
X213995000Y-140808809I-2540000J0D01*
G01*
X222723809Y-132080000D02*
G75*
G03*
X222723809Y-132080000I-2540000J0D01*
G01*
D12*
%TO.C,S8*%
X194945000Y-102870000D02*
G75*
G03*
X194945000Y-102870000I-12700000J0D01*
G01*
D13*
X184785000Y-111598809D02*
G75*
G03*
X184785000Y-111598809I-2540000J0D01*
G01*
X193513809Y-102870000D02*
G75*
G03*
X193513809Y-102870000I-2540000J0D01*
G01*
X184785000Y-94141191D02*
G75*
G03*
X184785000Y-94141191I-2540000J0D01*
G01*
X176056191Y-102870000D02*
G75*
G03*
X176056191Y-102870000I-2540000J0D01*
G01*
D12*
%TO.C,S9*%
X194945000Y-132080000D02*
G75*
G03*
X194945000Y-132080000I-12700000J0D01*
G01*
D13*
X193513809Y-132080000D02*
G75*
G03*
X193513809Y-132080000I-2540000J0D01*
G01*
X184785000Y-123351191D02*
G75*
G03*
X184785000Y-123351191I-2540000J0D01*
G01*
X176056191Y-132080000D02*
G75*
G03*
X176056191Y-132080000I-2540000J0D01*
G01*
X184785000Y-140808809D02*
G75*
G03*
X184785000Y-140808809I-2540000J0D01*
G01*
D12*
%TO.C,S10*%
X109855000Y-132080000D02*
G75*
G03*
X109855000Y-132080000I-12700000J0D01*
G01*
D13*
X99695000Y-123351191D02*
G75*
G03*
X99695000Y-123351191I-2540000J0D01*
G01*
X90966191Y-132080000D02*
G75*
G03*
X90966191Y-132080000I-2540000J0D01*
G01*
X99695000Y-140808809D02*
G75*
G03*
X99695000Y-140808809I-2540000J0D01*
G01*
X108423809Y-132080000D02*
G75*
G03*
X108423809Y-132080000I-2540000J0D01*
G01*
D12*
%TO.C,S11*%
X80645000Y-132080000D02*
G75*
G03*
X80645000Y-132080000I-12700000J0D01*
G01*
D13*
X79213809Y-132080000D02*
G75*
G03*
X79213809Y-132080000I-2540000J0D01*
G01*
X70485000Y-123351191D02*
G75*
G03*
X70485000Y-123351191I-2540000J0D01*
G01*
X61756191Y-132080000D02*
G75*
G03*
X61756191Y-132080000I-2540000J0D01*
G01*
X70485000Y-140808809D02*
G75*
G03*
X70485000Y-140808809I-2540000J0D01*
G01*
D12*
%TO.C,S12*%
X109855000Y-102870000D02*
G75*
G03*
X109855000Y-102870000I-12700000J0D01*
G01*
D13*
X90966191Y-102870000D02*
G75*
G03*
X90966191Y-102870000I-2540000J0D01*
G01*
X99695000Y-111598809D02*
G75*
G03*
X99695000Y-111598809I-2540000J0D01*
G01*
X108423809Y-102870000D02*
G75*
G03*
X108423809Y-102870000I-2540000J0D01*
G01*
X99695000Y-94141191D02*
G75*
G03*
X99695000Y-94141191I-2540000J0D01*
G01*
%TD*%
%LPC*%
D14*
%TO.C,P1*%
X137700000Y-33945000D03*
X137700000Y-25745000D03*
D15*
X139700000Y-29845000D03*
%TD*%
D16*
%TO.C,S1*%
X67945000Y-83658809D03*
X59216191Y-74930000D03*
X67945000Y-66201191D03*
X76673809Y-74930000D03*
%TD*%
%TO.C,S2*%
X59216191Y-45720000D03*
X67945000Y-36991191D03*
X76673809Y-45720000D03*
X67945000Y-54448809D03*
%TD*%
%TO.C,S3*%
X97155000Y-36991191D03*
X105883809Y-45720000D03*
X97155000Y-54448809D03*
X88426191Y-45720000D03*
%TD*%
%TO.C,S4*%
X173516191Y-45720000D03*
X182245000Y-36991191D03*
X190973809Y-45720000D03*
X182245000Y-54448809D03*
%TD*%
%TO.C,S5*%
X211455000Y-36991191D03*
X220183809Y-45720000D03*
X211455000Y-54448809D03*
X202726191Y-45720000D03*
%TD*%
%TO.C,S6*%
X220183809Y-74930000D03*
X211455000Y-83658809D03*
X202726191Y-74930000D03*
X211455000Y-66201191D03*
%TD*%
%TO.C,S7*%
X220183809Y-132080000D03*
X211455000Y-140808809D03*
X202726191Y-132080000D03*
X211455000Y-123351191D03*
%TD*%
%TO.C,S8*%
X173516191Y-102870000D03*
X182245000Y-94141191D03*
X190973809Y-102870000D03*
X182245000Y-111598809D03*
%TD*%
%TO.C,S9*%
X182245000Y-140808809D03*
X173516191Y-132080000D03*
X182245000Y-123351191D03*
X190973809Y-132080000D03*
%TD*%
%TO.C,S10*%
X105883809Y-132080000D03*
X97155000Y-140808809D03*
X88426191Y-132080000D03*
X97155000Y-123351191D03*
%TD*%
%TO.C,S11*%
X67945000Y-140808809D03*
X59216191Y-132080000D03*
X67945000Y-123351191D03*
X76673809Y-132080000D03*
%TD*%
%TO.C,S12*%
X97155000Y-94141191D03*
X105883809Y-102870000D03*
X97155000Y-111598809D03*
X88426191Y-102870000D03*
%TD*%
D17*
%TO.C,TEENSY1*%
X147320000Y-127635000D03*
X147320000Y-130175000D03*
X147320000Y-132715000D03*
X147320000Y-135255000D03*
X147320000Y-137795000D03*
X147320000Y-140335000D03*
X147320000Y-142875000D03*
X147320000Y-145415000D03*
X147320000Y-147955000D03*
X147320000Y-150495000D03*
X147320000Y-153035000D03*
X147320000Y-155575000D03*
X147320000Y-158115000D03*
X147320000Y-160655000D03*
X132080000Y-160655000D03*
X132080000Y-158115000D03*
X132080000Y-155575000D03*
X132080000Y-153035000D03*
X132080000Y-150495000D03*
X132080000Y-147955000D03*
X132080000Y-145415000D03*
X132080000Y-142875000D03*
X132080000Y-140335000D03*
X132080000Y-137795000D03*
X132080000Y-135255000D03*
X132080000Y-132715000D03*
X132080000Y-130175000D03*
D18*
X132080000Y-127635000D03*
%TD*%
D19*
%TO.C,P2*%
X134620000Y-53340000D03*
D20*
X137160000Y-48260000D03*
D21*
X139700000Y-48260000D03*
D19*
X144780000Y-43180000D03*
X134620000Y-43180000D03*
%TD*%
D22*
%TO.C,T1*%
X48895000Y-64290000D03*
D23*
X48895000Y-67790000D03*
%TD*%
D24*
%TO.C,T2*%
X78585000Y-26670000D03*
D25*
X75085000Y-26670000D03*
%TD*%
D22*
%TO.C,T3*%
X116205000Y-56360000D03*
D23*
X116205000Y-52860000D03*
%TD*%
D24*
%TO.C,T4*%
X192885000Y-26670000D03*
D25*
X189385000Y-26670000D03*
%TD*%
D22*
%TO.C,T5*%
X230505000Y-56360000D03*
D23*
X230505000Y-52860000D03*
%TD*%
D24*
%TO.C,T6*%
X200815000Y-93980000D03*
D25*
X204315000Y-93980000D03*
%TD*%
D24*
%TO.C,T7*%
X200815000Y-151130000D03*
D25*
X204315000Y-151130000D03*
%TD*%
D24*
%TO.C,T8*%
X192885000Y-83820000D03*
D25*
X189385000Y-83820000D03*
%TD*%
D22*
%TO.C,T9*%
X163195000Y-121440000D03*
D23*
X163195000Y-124940000D03*
%TD*%
D24*
%TO.C,T10*%
X86515000Y-151130000D03*
D25*
X90015000Y-151130000D03*
%TD*%
D22*
%TO.C,T11*%
X48895000Y-121440000D03*
D23*
X48895000Y-124940000D03*
%TD*%
D22*
%TO.C,T12*%
X116205000Y-113510000D03*
D23*
X116205000Y-110010000D03*
%TD*%
D26*
%TO.C,MH1*%
X44700000Y-33900000D03*
%TD*%
%TO.C,MH2*%
X119700000Y-33900000D03*
%TD*%
%TO.C,MH3*%
X159700000Y-33900000D03*
%TD*%
%TO.C,MH4*%
X234700000Y-33900000D03*
%TD*%
%TO.C,MH5*%
X219700000Y-58900000D03*
%TD*%
%TO.C,MH6*%
X234700000Y-88900000D03*
%TD*%
%TO.C,MH7*%
X219700000Y-118900000D03*
%TD*%
%TO.C,MH8*%
X234700000Y-143900000D03*
%TD*%
%TO.C,MH9*%
X159700000Y-143900000D03*
%TD*%
%TO.C,MH10*%
X119700000Y-143900000D03*
%TD*%
%TO.C,MH11*%
X44700000Y-143900000D03*
%TD*%
%TO.C,MH12*%
X59700000Y-118900000D03*
%TD*%
%TO.C,MH13*%
X44700000Y-88900000D03*
%TD*%
%TO.C,MH14*%
X59700000Y-58900000D03*
%TD*%
D27*
%TO.C,P3*%
X53975000Y-88900000D03*
%TD*%
%TO.C,P4*%
X53975000Y-31750000D03*
%TD*%
%TO.C,P5*%
X111125000Y-31750000D03*
%TD*%
%TO.C,P6*%
X168275000Y-31750000D03*
%TD*%
%TO.C,P7*%
X225425000Y-31750000D03*
%TD*%
%TO.C,P8*%
X225425000Y-88900000D03*
%TD*%
%TO.C,P9*%
X225425000Y-146050000D03*
%TD*%
%TO.C,P10*%
X168275000Y-88900000D03*
%TD*%
%TO.C,P11*%
X168275000Y-146050000D03*
%TD*%
%TO.C,P12*%
X111125000Y-146050000D03*
%TD*%
%TO.C,P13*%
X53975000Y-146050000D03*
%TD*%
%TO.C,P14*%
X111125000Y-88900000D03*
%TD*%
M02*
