M48
; DRILL file {KiCad 5.1.10-88a1d61d58~88~ubuntu20.10.1} date Fri Jun 25 14:56:53 2021
; FORMAT={2:4/ absolute / inch / keep zeros}
; #@! TF.CreationDate,2021-06-25T14:56:53-04:00
; #@! TF.GenerationSoftware,Kicad,Pcbnew,5.1.10-88a1d61d58~88~ubuntu20.10.1
FMAT,2
INCH
T1C0.0160
T2C0.0354
T3C0.0400
T4C0.0512
T5C0.0669
T6C0.0787
T7C0.1300
T8C0.1654
T9C0.1670
%
G90
G05
T1
X017796Y-027342
X032292Y-008922
X047250Y-021414
X047830Y-044491
X050536Y-051543
X052750Y-035000
X053000Y-037250
X053806Y-036750
X054490Y-051222
X054661Y-038555
X054913Y-051119
X054916Y-051619
X055012Y-037750
X055072Y-050817
X055077Y-038250
X057928Y-049690
X067594Y-038939
X073905Y-008910
X077958Y-038500
X080782Y-022388
T2
X054000Y-019000
X055000Y-019000
T3
X052000Y-050250
X052000Y-051250
X052000Y-052250
X052000Y-053250
X052000Y-054250
X052000Y-055250
X052000Y-056250
X052000Y-057250
X052000Y-058250
X052000Y-059250
X052000Y-060250
X052000Y-061250
X052000Y-062250
X052000Y-063250
X058000Y-050250
X058000Y-051250
X058000Y-052250
X058000Y-053250
X058000Y-054250
X058000Y-055250
X058000Y-056250
X058000Y-057250
X058000Y-058250
X058000Y-059250
X058000Y-060250
X058000Y-061250
X058000Y-062250
X058000Y-063250
T4
X019250Y-025311
X019250Y-026689
X019250Y-047811
X019250Y-049189
X029561Y-010500
X030939Y-010500
X034061Y-059500
X035439Y-059500
X045750Y-020811
X045750Y-022189
X045750Y-043311
X045750Y-044689
X064250Y-047811
X064250Y-049189
X074561Y-010500
X074561Y-033000
X075939Y-010500
X075939Y-033000
X079061Y-037000
X079061Y-059500
X080439Y-037000
X080439Y-059500
X090750Y-020811
X090750Y-022189
T5
X054213Y-010136
X054213Y-013364
T6
X053000Y-017000
X053000Y-021000
X057000Y-017000
T7
X017598Y-013346
X017598Y-035000
X017598Y-056654
X023313Y-018000
X023313Y-029500
X023313Y-052000
X023504Y-023189
X023504Y-046811
X026750Y-014563
X026750Y-021437
X026750Y-026063
X026750Y-032937
X026750Y-048563
X026750Y-055437
X030187Y-018000
X030187Y-029500
X030187Y-052000
X034813Y-018000
X034813Y-040500
X034813Y-052000
X038250Y-014563
X038250Y-021437
X038250Y-037063
X038250Y-043937
X038250Y-048563
X038250Y-055437
X041687Y-018000
X041687Y-040500
X041687Y-052000
X047126Y-013346
X047126Y-056654
X062874Y-013346
X062874Y-056654
X068313Y-018000
X068313Y-040500
X068313Y-052000
X071750Y-014563
X071750Y-021437
X071750Y-037063
X071750Y-043937
X071750Y-048563
X071750Y-055437
X075187Y-018000
X075187Y-040500
X075187Y-052000
X079813Y-018000
X079813Y-029500
X079813Y-052000
X083250Y-014563
X083250Y-021437
X083250Y-026063
X083250Y-032937
X083250Y-048563
X083250Y-055437
X086496Y-023189
X086496Y-046811
X086687Y-018000
X086687Y-029500
X086687Y-052000
X092402Y-013346
X092402Y-035000
X092402Y-056654
T8
X055000Y-011750
T9
X021250Y-012500
X021250Y-035000
X021250Y-057500
X043750Y-012500
X043750Y-035000
X043750Y-057500
X066250Y-012500
X066250Y-035000
X066250Y-057500
X088750Y-012500
X088750Y-035000
X088750Y-057500
T0
M30
